G04 #@! TF.GenerationSoftware,KiCad,Pcbnew,(5.1.9)-1*
G04 #@! TF.CreationDate,2021-04-10T08:26:10+02:00*
G04 #@! TF.ProjectId,NE555V2,4e453535-3556-4322-9e6b-696361645f70,rev?*
G04 #@! TF.SameCoordinates,Original*
G04 #@! TF.FileFunction,Soldermask,Bot*
G04 #@! TF.FilePolarity,Negative*
%FSLAX46Y46*%
G04 Gerber Fmt 4.6, Leading zero omitted, Abs format (unit mm)*
G04 Created by KiCad (PCBNEW (5.1.9)-1) date 2021-04-10 08:26:10*
%MOMM*%
%LPD*%
G01*
G04 APERTURE LIST*
%ADD10C,2.200000*%
%ADD11C,2.000000*%
%ADD12O,2.800000X2.800000*%
%ADD13O,1.450000X1.900000*%
%ADD14O,2.000000X2.000000*%
%ADD15C,2.740000*%
%ADD16C,2.400000*%
G04 APERTURE END LIST*
G36*
G01*
X151500000Y-66210000D02*
X153300000Y-66210000D01*
G75*
G02*
X153500000Y-66410000I0J-200000D01*
G01*
X153500000Y-68210000D01*
G75*
G02*
X153300000Y-68410000I-200000J0D01*
G01*
X151500000Y-68410000D01*
G75*
G02*
X151300000Y-68210000I0J200000D01*
G01*
X151300000Y-66410000D01*
G75*
G02*
X151500000Y-66210000I200000J0D01*
G01*
G37*
D10*
X152400000Y-69850000D03*
X139700000Y-69850000D03*
G36*
G01*
X138800000Y-66210000D02*
X140600000Y-66210000D01*
G75*
G02*
X140800000Y-66410000I0J-200000D01*
G01*
X140800000Y-68210000D01*
G75*
G02*
X140600000Y-68410000I-200000J0D01*
G01*
X138800000Y-68410000D01*
G75*
G02*
X138600000Y-68210000I0J200000D01*
G01*
X138600000Y-66410000D01*
G75*
G02*
X138800000Y-66210000I200000J0D01*
G01*
G37*
G36*
G01*
X167033700Y-82232400D02*
X167033700Y-80632400D01*
G75*
G02*
X167233700Y-80432400I200000J0D01*
G01*
X168833700Y-80432400D01*
G75*
G02*
X169033700Y-80632400I0J-200000D01*
G01*
X169033700Y-82232400D01*
G75*
G02*
X168833700Y-82432400I-200000J0D01*
G01*
X167233700Y-82432400D01*
G75*
G02*
X167033700Y-82232400I0J200000D01*
G01*
G37*
D11*
X170533700Y-81432400D03*
X153860500Y-95453200D03*
X158860500Y-95453200D03*
G36*
G01*
X160258300Y-88563300D02*
X160258300Y-86163300D01*
G75*
G02*
X160458300Y-85963300I200000J0D01*
G01*
X162858300Y-85963300D01*
G75*
G02*
X163058300Y-86163300I0J-200000D01*
G01*
X163058300Y-88563300D01*
G75*
G02*
X162858300Y-88763300I-200000J0D01*
G01*
X160458300Y-88763300D01*
G75*
G02*
X160258300Y-88563300I0J200000D01*
G01*
G37*
D12*
X165468300Y-87363300D03*
G36*
G01*
X170051900Y-91415300D02*
X170051900Y-89915300D01*
G75*
G02*
X170251900Y-89715300I200000J0D01*
G01*
X171301900Y-89715300D01*
G75*
G02*
X171501900Y-89915300I0J-200000D01*
G01*
X171501900Y-91415300D01*
G75*
G02*
X171301900Y-91615300I-200000J0D01*
G01*
X170251900Y-91615300D01*
G75*
G02*
X170051900Y-91415300I0J200000D01*
G01*
G37*
D13*
X173316900Y-90665300D03*
X172046900Y-90665300D03*
X162407600Y-77546200D03*
X163677600Y-77546200D03*
G36*
G01*
X160412600Y-78296200D02*
X160412600Y-76796200D01*
G75*
G02*
X160612600Y-76596200I200000J0D01*
G01*
X161662600Y-76596200D01*
G75*
G02*
X161862600Y-76796200I0J-200000D01*
G01*
X161862600Y-78296200D01*
G75*
G02*
X161662600Y-78496200I-200000J0D01*
G01*
X160612600Y-78496200D01*
G75*
G02*
X160412600Y-78296200I0J200000D01*
G01*
G37*
D14*
X124180600Y-94119700D03*
D11*
X124180600Y-104279700D03*
D15*
X115150900Y-80830400D03*
X120150900Y-85830400D03*
X115150900Y-90830400D03*
D14*
X127889000Y-94322900D03*
D11*
X127889000Y-104482900D03*
X128117600Y-89839800D03*
D14*
X128117600Y-79679800D03*
X172897800Y-96075500D03*
D11*
X162737800Y-96075500D03*
X132257800Y-88760300D03*
D14*
X132257800Y-78600300D03*
D11*
X158877000Y-102095300D03*
D14*
X169037000Y-102095300D03*
D16*
X118859300Y-102920800D03*
X118859300Y-100380800D03*
X118859300Y-97840800D03*
G36*
G01*
X147688200Y-98637600D02*
X146088200Y-98637600D01*
G75*
G02*
X145888200Y-98437600I0J200000D01*
G01*
X145888200Y-96837600D01*
G75*
G02*
X146088200Y-96637600I200000J0D01*
G01*
X147688200Y-96637600D01*
G75*
G02*
X147888200Y-96837600I0J-200000D01*
G01*
X147888200Y-98437600D01*
G75*
G02*
X147688200Y-98637600I-200000J0D01*
G01*
G37*
D14*
X139268200Y-90017600D03*
X144348200Y-97637600D03*
X141808200Y-90017600D03*
X141808200Y-97637600D03*
X144348200Y-90017600D03*
X139268200Y-97637600D03*
X146888200Y-90017600D03*
D16*
X133210300Y-112001300D03*
G36*
G01*
X152461900Y-113001300D02*
X152461900Y-111001300D01*
G75*
G02*
X152661900Y-110801300I200000J0D01*
G01*
X154661900Y-110801300D01*
G75*
G02*
X154861900Y-111001300I0J-200000D01*
G01*
X154861900Y-113001300D01*
G75*
G02*
X154661900Y-113201300I-200000J0D01*
G01*
X152661900Y-113201300D01*
G75*
G02*
X152461900Y-113001300I0J200000D01*
G01*
G37*
M02*
