M48
; DRILL file {KiCad (5.1.9)-1} date 04/10/21 08:26:07
; FORMAT={-:-/ absolute / metric / decimal}
; #@! TF.CreationDate,2021-04-10T08:26:07+02:00
; #@! TF.GenerationSoftware,Kicad,Pcbnew,(5.1.9)-1
; #@! TF.FileFunction,Plated,1,2,PTH
FMAT,2
METRIC
T1C0.400
T2C0.750
T3C0.800
T4C0.900
T5C1.000
T6C1.200
T7C1.300
%
G90
G05
T1
X139.344Y-94.983
X143.167Y-95.263
X144.513Y-82.271
X153.619Y-92.481
X154.546Y-87.592
X157.302Y-87.592
X158.826Y-84.671
T2
X161.138Y-77.546
X162.408Y-77.546
X163.678Y-77.546
X170.777Y-90.665
X172.047Y-90.665
X173.317Y-90.665
T3
X124.181Y-94.12
X124.181Y-104.28
X127.889Y-94.323
X127.889Y-104.483
X128.118Y-79.68
X128.118Y-89.84
X132.258Y-78.6
X132.258Y-88.76
X139.268Y-90.018
X139.268Y-97.638
X141.808Y-90.018
X141.808Y-97.638
X144.348Y-90.018
X144.348Y-97.638
X146.888Y-90.018
X146.888Y-97.638
X153.861Y-95.453
X158.861Y-95.453
X158.877Y-102.095
X162.738Y-96.075
X168.034Y-81.432
X169.037Y-102.095
X170.534Y-81.432
X172.898Y-96.075
T4
X139.7Y-67.31
X139.7Y-69.85
X152.4Y-67.31
X152.4Y-69.85
T5
X118.859Y-97.841
X118.859Y-100.381
X118.859Y-102.921
X133.21Y-112.001
X153.662Y-112.001
T6
X161.658Y-87.363
X165.468Y-87.363
T7
X115.151Y-80.83
X115.151Y-90.83
X120.151Y-85.83
T0
M30
