G04 #@! TF.GenerationSoftware,KiCad,Pcbnew,(5.1.9)-1*
G04 #@! TF.CreationDate,2021-04-10T08:26:10+02:00*
G04 #@! TF.ProjectId,NE555V2,4e453535-3556-4322-9e6b-696361645f70,rev?*
G04 #@! TF.SameCoordinates,Original*
G04 #@! TF.FileFunction,Copper,L2,Bot*
G04 #@! TF.FilePolarity,Positive*
%FSLAX46Y46*%
G04 Gerber Fmt 4.6, Leading zero omitted, Abs format (unit mm)*
G04 Created by KiCad (PCBNEW (5.1.9)-1) date 2021-04-10 08:26:10*
%MOMM*%
%LPD*%
G01*
G04 APERTURE LIST*
G04 #@! TA.AperFunction,ComponentPad*
%ADD10R,1.800000X1.800000*%
G04 #@! TD*
G04 #@! TA.AperFunction,ComponentPad*
%ADD11C,1.800000*%
G04 #@! TD*
G04 #@! TA.AperFunction,ComponentPad*
%ADD12R,1.600000X1.600000*%
G04 #@! TD*
G04 #@! TA.AperFunction,ComponentPad*
%ADD13C,1.600000*%
G04 #@! TD*
G04 #@! TA.AperFunction,ComponentPad*
%ADD14R,2.400000X2.400000*%
G04 #@! TD*
G04 #@! TA.AperFunction,ComponentPad*
%ADD15O,2.400000X2.400000*%
G04 #@! TD*
G04 #@! TA.AperFunction,ComponentPad*
%ADD16R,1.050000X1.500000*%
G04 #@! TD*
G04 #@! TA.AperFunction,ComponentPad*
%ADD17O,1.050000X1.500000*%
G04 #@! TD*
G04 #@! TA.AperFunction,ComponentPad*
%ADD18O,1.600000X1.600000*%
G04 #@! TD*
G04 #@! TA.AperFunction,ComponentPad*
%ADD19C,2.340000*%
G04 #@! TD*
G04 #@! TA.AperFunction,ComponentPad*
%ADD20C,2.000000*%
G04 #@! TD*
G04 #@! TA.AperFunction,ComponentPad*
%ADD21R,2.000000X2.000000*%
G04 #@! TD*
G04 #@! TA.AperFunction,ViaPad*
%ADD22C,0.600000*%
G04 #@! TD*
G04 #@! TA.AperFunction,Conductor*
%ADD23C,0.250000*%
G04 #@! TD*
G04 APERTURE END LIST*
D10*
X152400000Y-67310000D03*
D11*
X152400000Y-69850000D03*
X139700000Y-69850000D03*
D10*
X139700000Y-67310000D03*
D12*
X168033700Y-81432400D03*
D13*
X170533700Y-81432400D03*
X153860500Y-95453200D03*
X158860500Y-95453200D03*
D14*
X161658300Y-87363300D03*
D15*
X165468300Y-87363300D03*
D16*
X170776900Y-90665300D03*
D17*
X173316900Y-90665300D03*
X172046900Y-90665300D03*
X162407600Y-77546200D03*
X163677600Y-77546200D03*
D16*
X161137600Y-77546200D03*
D18*
X124180600Y-94119700D03*
D13*
X124180600Y-104279700D03*
D19*
X115150900Y-80830400D03*
X120150900Y-85830400D03*
X115150900Y-90830400D03*
D18*
X127889000Y-94322900D03*
D13*
X127889000Y-104482900D03*
X128117600Y-89839800D03*
D18*
X128117600Y-79679800D03*
X172897800Y-96075500D03*
D13*
X162737800Y-96075500D03*
X132257800Y-88760300D03*
D18*
X132257800Y-78600300D03*
D13*
X158877000Y-102095300D03*
D18*
X169037000Y-102095300D03*
D20*
X118859300Y-102920800D03*
X118859300Y-100380800D03*
X118859300Y-97840800D03*
D12*
X146888200Y-97637600D03*
D18*
X139268200Y-90017600D03*
X144348200Y-97637600D03*
X141808200Y-90017600D03*
X141808200Y-97637600D03*
X144348200Y-90017600D03*
X139268200Y-97637600D03*
X146888200Y-90017600D03*
D20*
X133210300Y-112001300D03*
D21*
X153661900Y-112001300D03*
D22*
X154546300Y-87591900D03*
X157302200Y-87591900D03*
X158826200Y-84670900D03*
X153619200Y-92481400D03*
X143167100Y-95262700D03*
X139344400Y-94983300D03*
X144513300Y-82270600D03*
D23*
X167589200Y-81432400D02*
X161658300Y-87363300D01*
X168033700Y-81432400D02*
X167589200Y-81432400D01*
X154546300Y-87591900D02*
X157302200Y-87591900D01*
X161518600Y-87363300D02*
X161658300Y-87363300D01*
X158826200Y-84670900D02*
X161518600Y-87363300D01*
X153619200Y-92481400D02*
X147967700Y-92481400D01*
X147967700Y-92481400D02*
X145186400Y-95262700D01*
X145186400Y-95262700D02*
X143167100Y-95262700D01*
X139344400Y-90093800D02*
X139268200Y-90017600D01*
X139344400Y-94983300D02*
X139344400Y-90093800D01*
X118440200Y-94119700D02*
X115150900Y-90830400D01*
X124180600Y-94119700D02*
X118440200Y-94119700D01*
X117363502Y-90830400D02*
X115150900Y-90830400D01*
X163943299Y-88888301D02*
X160198299Y-88888301D01*
X127389101Y-80804801D02*
X117363502Y-90830400D01*
X160198299Y-88888301D02*
X152114799Y-80804801D01*
X165468300Y-87363300D02*
X163943299Y-88888301D01*
X152114799Y-80804801D02*
X127389101Y-80804801D01*
X145979099Y-80804801D02*
X152114799Y-80804801D01*
X144513300Y-82270600D02*
X145979099Y-80804801D01*
X127889000Y-90068400D02*
X128117600Y-89839800D01*
X127889000Y-94322900D02*
X127889000Y-90068400D01*
X172046900Y-89665300D02*
X172046900Y-90665300D01*
X171971899Y-89590299D02*
X172046900Y-89665300D01*
X148125901Y-89590299D02*
X171971899Y-89590299D01*
X146170901Y-87635299D02*
X148125901Y-89590299D01*
X130322101Y-87635299D02*
X146170901Y-87635299D01*
X128117600Y-89839800D02*
X130322101Y-87635299D01*
X133311900Y-77546200D02*
X132257800Y-78600300D01*
X161137600Y-77546200D02*
X133311900Y-77546200D01*
X127939800Y-112001300D02*
X118859300Y-102920800D01*
X133210300Y-112001300D02*
X127939800Y-112001300D01*
X139700000Y-67310000D02*
X152400000Y-67310000D01*
X139700000Y-68097400D02*
X128117600Y-79679800D01*
X139700000Y-67310000D02*
X139700000Y-68097400D01*
X165214967Y-76113667D02*
X170533700Y-81432400D01*
X161203667Y-76113667D02*
X165214967Y-76113667D01*
X152400000Y-67310000D02*
X161203667Y-76113667D01*
X173316900Y-84215600D02*
X170533700Y-81432400D01*
X173316900Y-90665300D02*
X173316900Y-84215600D01*
X169188796Y-94950499D02*
X159363201Y-94950499D01*
X172896910Y-91242385D02*
X169188796Y-94950499D01*
X172896910Y-90843990D02*
X172896910Y-91242385D01*
X159363201Y-94950499D02*
X158860500Y-95453200D01*
X173075600Y-90665300D02*
X172896910Y-90843990D01*
X173316900Y-90665300D02*
X173075600Y-90665300D01*
X157735499Y-94328199D02*
X150197601Y-94328199D01*
X150197601Y-94328199D02*
X146888200Y-97637600D01*
X158860500Y-95453200D02*
X157735499Y-94328199D01*
X153661900Y-104411300D02*
X146888200Y-97637600D01*
X153661900Y-112001300D02*
X153661900Y-104411300D01*
X122758200Y-104279700D02*
X118859300Y-100380800D01*
X124180600Y-104279700D02*
X122758200Y-104279700D01*
X124180600Y-104279700D02*
X131381500Y-97078800D01*
X138709400Y-97078800D02*
X139268200Y-97637600D01*
X131381500Y-97078800D02*
X138709400Y-97078800D01*
X132257800Y-96202500D02*
X131381500Y-97078800D01*
X132257800Y-88760300D02*
X132257800Y-96202500D01*
X139268200Y-97637600D02*
X146888200Y-90017600D01*
M02*
