G04 #@! TF.GenerationSoftware,KiCad,Pcbnew,(5.1.9)-1*
G04 #@! TF.CreationDate,2021-04-10T08:26:10+02:00*
G04 #@! TF.ProjectId,NE555V2,4e453535-3556-4322-9e6b-696361645f70,rev?*
G04 #@! TF.SameCoordinates,Original*
G04 #@! TF.FileFunction,Legend,Top*
G04 #@! TF.FilePolarity,Positive*
%FSLAX46Y46*%
G04 Gerber Fmt 4.6, Leading zero omitted, Abs format (unit mm)*
G04 Created by KiCad (PCBNEW (5.1.9)-1) date 2021-04-10 08:26:10*
%MOMM*%
%LPD*%
G01*
G04 APERTURE LIST*
%ADD10C,0.120000*%
%ADD11C,0.010000*%
%ADD12C,0.150000*%
G04 APERTURE END LIST*
D10*
X153945000Y-66020000D02*
X150855000Y-66020000D01*
X154900000Y-68580000D02*
G75*
G03*
X154900000Y-68580000I-2500000J0D01*
G01*
X152399538Y-71570000D02*
G75*
G03*
X153944830Y-66020000I462J2990000D01*
G01*
X152400462Y-71570000D02*
G75*
G02*
X150855170Y-66020000I-462J2990000D01*
G01*
D11*
G36*
X146725480Y-57327489D02*
G01*
X147689109Y-57476054D01*
X148650196Y-57699887D01*
X149603290Y-57997847D01*
X150542939Y-58368792D01*
X151463689Y-58811580D01*
X152360090Y-59325069D01*
X152714541Y-59552610D01*
X153542713Y-60147308D01*
X154336380Y-60811250D01*
X155096364Y-61545589D01*
X155823485Y-62351477D01*
X156518563Y-63230068D01*
X157182419Y-64182514D01*
X157815873Y-65209968D01*
X158419745Y-66313583D01*
X158994857Y-67494511D01*
X159542027Y-68753907D01*
X159891945Y-69638334D01*
X160206974Y-70425809D01*
X160559738Y-71238149D01*
X160930326Y-72030167D01*
X161289323Y-72725134D01*
X161656362Y-73343866D01*
X162039417Y-73894792D01*
X162446459Y-74386344D01*
X162885464Y-74826954D01*
X163364405Y-75225050D01*
X163891255Y-75589065D01*
X164473987Y-75927429D01*
X164752458Y-76071512D01*
X165063038Y-76224606D01*
X165335501Y-76350778D01*
X165581145Y-76450965D01*
X165811269Y-76526105D01*
X166037169Y-76577135D01*
X166270145Y-76604995D01*
X166521493Y-76610620D01*
X166802512Y-76594949D01*
X167124500Y-76558920D01*
X167498754Y-76503470D01*
X167936573Y-76429537D01*
X168296167Y-76365627D01*
X168804460Y-76277337D01*
X169252097Y-76207030D01*
X169660619Y-76152397D01*
X170051568Y-76111130D01*
X170446488Y-76080921D01*
X170866919Y-76059462D01*
X171280667Y-76045834D01*
X171701227Y-76037008D01*
X172050030Y-76036777D01*
X172339778Y-76047830D01*
X172583174Y-76072856D01*
X172792919Y-76114540D01*
X172981717Y-76175573D01*
X173162270Y-76258641D01*
X173347281Y-76366432D01*
X173549452Y-76501635D01*
X173599036Y-76536414D01*
X173891460Y-76762346D01*
X174146130Y-77005152D01*
X174373476Y-77278659D01*
X174583928Y-77596695D01*
X174787915Y-77973087D01*
X174960596Y-78341539D01*
X175120804Y-78724874D01*
X175273494Y-79138982D01*
X175421131Y-79592490D01*
X175566180Y-80094023D01*
X175711108Y-80652209D01*
X175858381Y-81275674D01*
X176010464Y-81973043D01*
X176042616Y-82126667D01*
X176083698Y-82319687D01*
X176141230Y-82583336D01*
X176212558Y-82905760D01*
X176295024Y-83275107D01*
X176385973Y-83679523D01*
X176482748Y-84107154D01*
X176582694Y-84546147D01*
X176678179Y-84963000D01*
X176809549Y-85535904D01*
X176945852Y-86132557D01*
X177085679Y-86746670D01*
X177227625Y-87371954D01*
X177370282Y-88002118D01*
X177512243Y-88630874D01*
X177652102Y-89251933D01*
X177788452Y-89859004D01*
X177919885Y-90445800D01*
X178044996Y-91006030D01*
X178162376Y-91533405D01*
X178270620Y-92021636D01*
X178368320Y-92464433D01*
X178454069Y-92855508D01*
X178526461Y-93188570D01*
X178584089Y-93457331D01*
X178625545Y-93655501D01*
X178647873Y-93768334D01*
X178702174Y-94113049D01*
X178740517Y-94466032D01*
X178762310Y-94809954D01*
X178766963Y-95127488D01*
X178753883Y-95401306D01*
X178722478Y-95614081D01*
X178712240Y-95653820D01*
X178631190Y-95849868D01*
X178500675Y-96036687D01*
X178315296Y-96218095D01*
X178069653Y-96397906D01*
X177758348Y-96579937D01*
X177375983Y-96768003D01*
X176917157Y-96965920D01*
X176773906Y-97023759D01*
X176554146Y-97109308D01*
X176279057Y-97213170D01*
X175961512Y-97330761D01*
X175614384Y-97457496D01*
X175250549Y-97588788D01*
X174882879Y-97720054D01*
X174524248Y-97846709D01*
X174187531Y-97964166D01*
X173885601Y-98067842D01*
X173631331Y-98153151D01*
X173437597Y-98215508D01*
X173372554Y-98235163D01*
X173106922Y-98309119D01*
X172903626Y-98354772D01*
X172745433Y-98372754D01*
X172615108Y-98363694D01*
X172495418Y-98328223D01*
X172377584Y-98271565D01*
X172219090Y-98166579D01*
X172026662Y-98009228D01*
X171816625Y-97815284D01*
X171605304Y-97600516D01*
X171409026Y-97380693D01*
X171256748Y-97188879D01*
X170917205Y-96695614D01*
X170575257Y-96133974D01*
X170229997Y-95501976D01*
X169880521Y-94797636D01*
X169525922Y-94018970D01*
X169165296Y-93163996D01*
X168797736Y-92230729D01*
X168422337Y-91217186D01*
X168062081Y-90191167D01*
X167970109Y-89930823D01*
X167867033Y-89651798D01*
X167765034Y-89386384D01*
X167676295Y-89166876D01*
X167670853Y-89153965D01*
X167585786Y-88945920D01*
X167505884Y-88738281D01*
X167441924Y-88559681D01*
X167412681Y-88468203D01*
X167359120Y-88308490D01*
X167313736Y-88220026D01*
X167280025Y-88205930D01*
X167261487Y-88269320D01*
X167259000Y-88331152D01*
X167271087Y-88545423D01*
X167306650Y-88835546D01*
X167364642Y-89196340D01*
X167444016Y-89622618D01*
X167543727Y-90109197D01*
X167662726Y-90650893D01*
X167799967Y-91242522D01*
X167954405Y-91878899D01*
X168061928Y-92307834D01*
X168169341Y-92728887D01*
X168268150Y-93110005D01*
X168361771Y-93462836D01*
X168453620Y-93799033D01*
X168547112Y-94130247D01*
X168645662Y-94468128D01*
X168752688Y-94824327D01*
X168871603Y-95210495D01*
X169005824Y-95638282D01*
X169158767Y-96119341D01*
X169333847Y-96665322D01*
X169396077Y-96858667D01*
X169639867Y-97616748D01*
X169857616Y-98296334D01*
X170049915Y-98899301D01*
X170217357Y-99427523D01*
X170360533Y-99882873D01*
X170480036Y-100267227D01*
X170576457Y-100582459D01*
X170646403Y-100816834D01*
X170763827Y-101173625D01*
X170899824Y-101493901D01*
X171066840Y-101801011D01*
X171277321Y-102118309D01*
X171492536Y-102404334D01*
X171713304Y-102695052D01*
X171881086Y-102939730D01*
X172002738Y-103152224D01*
X172085116Y-103346390D01*
X172135076Y-103536082D01*
X172159475Y-103735155D01*
X172160688Y-103754647D01*
X172145999Y-104179216D01*
X172051855Y-104576404D01*
X171879205Y-104945359D01*
X171628997Y-105285228D01*
X171302181Y-105595160D01*
X170899704Y-105874303D01*
X170422515Y-106121805D01*
X169871563Y-106336814D01*
X169247795Y-106518477D01*
X169025141Y-106571186D01*
X168634103Y-106646526D01*
X168309423Y-106681188D01*
X168043284Y-106675321D01*
X167827870Y-106629071D01*
X167745936Y-106595383D01*
X167585137Y-106489361D01*
X167385769Y-106308415D01*
X167148117Y-106052848D01*
X166872465Y-105722960D01*
X166628020Y-105410000D01*
X165980638Y-104506850D01*
X165354449Y-103524013D01*
X164750884Y-102464131D01*
X164171373Y-101329844D01*
X163617347Y-100123794D01*
X163132989Y-98957183D01*
X162998112Y-98611873D01*
X162871778Y-98278350D01*
X162750870Y-97946998D01*
X162632273Y-97608203D01*
X162512872Y-97252349D01*
X162389551Y-96869821D01*
X162259195Y-96451004D01*
X162118687Y-95986284D01*
X161964914Y-95466045D01*
X161794759Y-94880672D01*
X161657447Y-94403334D01*
X161485451Y-93807114D01*
X161333719Y-93289462D01*
X161201137Y-92847019D01*
X161086592Y-92476430D01*
X160988971Y-92174338D01*
X160907161Y-91937386D01*
X160840047Y-91762217D01*
X160786518Y-91645474D01*
X160745458Y-91583802D01*
X160718500Y-91572511D01*
X160697005Y-91622007D01*
X160684263Y-91742406D01*
X160679815Y-91920447D01*
X160683205Y-92142867D01*
X160693973Y-92396407D01*
X160711664Y-92667804D01*
X160735819Y-92943797D01*
X160765979Y-93211125D01*
X160778216Y-93302667D01*
X160878079Y-93975353D01*
X160998749Y-94718648D01*
X161138054Y-95521673D01*
X161293819Y-96373551D01*
X161463871Y-97263400D01*
X161646036Y-98180344D01*
X161838141Y-99113503D01*
X162038013Y-100051998D01*
X162243476Y-100984950D01*
X162452359Y-101901482D01*
X162662486Y-102790713D01*
X162727873Y-103060500D01*
X162836201Y-103500006D01*
X162954990Y-103973704D01*
X163081097Y-104469626D01*
X163211374Y-104975804D01*
X163342677Y-105480269D01*
X163471861Y-105971054D01*
X163595779Y-106436189D01*
X163711288Y-106863708D01*
X163815240Y-107241641D01*
X163904492Y-107558021D01*
X163958435Y-107742832D01*
X164136608Y-108373579D01*
X164293504Y-108995891D01*
X164427691Y-109600802D01*
X164537741Y-110179343D01*
X164622223Y-110722550D01*
X164679706Y-111221453D01*
X164708760Y-111667088D01*
X164707954Y-112050487D01*
X164685580Y-112301256D01*
X164607074Y-112656282D01*
X164480870Y-112941823D01*
X164305359Y-113159414D01*
X164078932Y-113310594D01*
X163799980Y-113396899D01*
X163514130Y-113420408D01*
X163196794Y-113392014D01*
X162835275Y-113311394D01*
X162446049Y-113185384D01*
X162045595Y-113020825D01*
X161650388Y-112824555D01*
X161276907Y-112603412D01*
X160941628Y-112364235D01*
X160911676Y-112340270D01*
X160650644Y-112102818D01*
X160366757Y-111797051D01*
X160067967Y-111433514D01*
X159762227Y-111022755D01*
X159457489Y-110575320D01*
X159161705Y-110101757D01*
X158957986Y-109749167D01*
X158650469Y-109166617D01*
X158337004Y-108513224D01*
X158022531Y-107802105D01*
X157711991Y-107046380D01*
X157410327Y-106259168D01*
X157122479Y-105453588D01*
X156853387Y-104642760D01*
X156607994Y-103839801D01*
X156391240Y-103057833D01*
X156295314Y-102679500D01*
X156221285Y-102372071D01*
X156150578Y-102066270D01*
X156081373Y-101752808D01*
X156011848Y-101422396D01*
X155940182Y-101065741D01*
X155864556Y-100673556D01*
X155783147Y-100236549D01*
X155694135Y-99745430D01*
X155595699Y-99190910D01*
X155486020Y-98563697D01*
X155465603Y-98446167D01*
X155360283Y-97845153D01*
X155266633Y-97323808D01*
X155183717Y-96878079D01*
X155110604Y-96503912D01*
X155046360Y-96197253D01*
X154990052Y-95954047D01*
X154940746Y-95770240D01*
X154897510Y-95641780D01*
X154859410Y-95564611D01*
X154825513Y-95534680D01*
X154797752Y-95544856D01*
X154776029Y-95611126D01*
X154760561Y-95756130D01*
X154751200Y-95974177D01*
X154747801Y-96259578D01*
X154750218Y-96606642D01*
X154758304Y-97009679D01*
X154771913Y-97462998D01*
X154790900Y-97960909D01*
X154815117Y-98497722D01*
X154844418Y-99067747D01*
X154878659Y-99665293D01*
X154917691Y-100284670D01*
X154920685Y-100330000D01*
X155122019Y-102748840D01*
X155405797Y-105177502D01*
X155771176Y-107610593D01*
X156217311Y-110042720D01*
X156743358Y-112468489D01*
X156964611Y-113389834D01*
X157049863Y-113738924D01*
X157121918Y-114043350D01*
X157184927Y-114323027D01*
X157243040Y-114597877D01*
X157300405Y-114887815D01*
X157361172Y-115212761D01*
X157429491Y-115592634D01*
X157462900Y-115781667D01*
X157492828Y-115928660D01*
X157541859Y-116142262D01*
X157606287Y-116407543D01*
X157682407Y-116709575D01*
X157766513Y-117033430D01*
X157854900Y-117364179D01*
X157864181Y-117398342D01*
X157989667Y-117862158D01*
X158093395Y-118252658D01*
X158176998Y-118577896D01*
X158242108Y-118845928D01*
X158290358Y-119064807D01*
X158323381Y-119242589D01*
X158342811Y-119387330D01*
X158350278Y-119507082D01*
X158347418Y-119609902D01*
X158335862Y-119703845D01*
X158333883Y-119715391D01*
X158228569Y-120071305D01*
X158040063Y-120419580D01*
X157769566Y-120759396D01*
X157418275Y-121089938D01*
X156987392Y-121410388D01*
X156478114Y-121719928D01*
X155891643Y-122017743D01*
X155229177Y-122303014D01*
X154491916Y-122574924D01*
X153818167Y-122791657D01*
X152499053Y-123155696D01*
X151178129Y-123448741D01*
X149840263Y-123673432D01*
X148470329Y-123832408D01*
X147404667Y-123910555D01*
X147170202Y-123921060D01*
X146861677Y-123930823D01*
X146489692Y-123939777D01*
X146064851Y-123947855D01*
X145597757Y-123954988D01*
X145099012Y-123961108D01*
X144579218Y-123966149D01*
X144048978Y-123970042D01*
X143518896Y-123972720D01*
X142999572Y-123974114D01*
X142501611Y-123974157D01*
X142035614Y-123972781D01*
X141612185Y-123969919D01*
X141241925Y-123965502D01*
X140935438Y-123959463D01*
X140737167Y-123953174D01*
X139960425Y-123905177D01*
X139162267Y-123824490D01*
X138357705Y-123713977D01*
X137561755Y-123576501D01*
X136789432Y-123414925D01*
X136055751Y-123232115D01*
X135375725Y-123030932D01*
X134764370Y-122814242D01*
X134763126Y-122813756D01*
X134200634Y-122570250D01*
X133691142Y-122301557D01*
X133240471Y-122012017D01*
X132854445Y-121705973D01*
X132538888Y-121387766D01*
X132299622Y-121061736D01*
X132220716Y-120918344D01*
X132058834Y-120590706D01*
X132060554Y-120017103D01*
X132066635Y-119764755D01*
X132085187Y-119521220D01*
X132119020Y-119273058D01*
X132170944Y-119006827D01*
X132243769Y-118709086D01*
X132340306Y-118366393D01*
X132463366Y-117965307D01*
X132539235Y-117727770D01*
X132620720Y-117469440D01*
X132688613Y-117237945D01*
X132746366Y-117016949D01*
X132797432Y-116790116D01*
X132845262Y-116541109D01*
X132893309Y-116253591D01*
X132945026Y-115911227D01*
X132990756Y-115591167D01*
X133095278Y-114900000D01*
X133216562Y-114198582D01*
X133359857Y-113457159D01*
X133412725Y-113199334D01*
X133482275Y-112847394D01*
X133561122Y-112416466D01*
X133649358Y-111905959D01*
X133747077Y-111315284D01*
X133854373Y-110643851D01*
X133971337Y-109891069D01*
X134098065Y-109056350D01*
X134234650Y-108139104D01*
X134381184Y-107138740D01*
X134474211Y-106496353D01*
X134561022Y-105873099D01*
X134645495Y-105225031D01*
X134727190Y-104557974D01*
X134805663Y-103877751D01*
X134880471Y-103190188D01*
X134951173Y-102501108D01*
X135017324Y-101816337D01*
X135078483Y-101141699D01*
X135134207Y-100483018D01*
X135184053Y-99846119D01*
X135227578Y-99236827D01*
X135264340Y-98660965D01*
X135293897Y-98124359D01*
X135315805Y-97632833D01*
X135329621Y-97192211D01*
X135334904Y-96808319D01*
X135331210Y-96486980D01*
X135318096Y-96234019D01*
X135295121Y-96055261D01*
X135273567Y-95978890D01*
X135226740Y-95883916D01*
X135193036Y-95862094D01*
X135172769Y-95885000D01*
X135146648Y-95952146D01*
X135112078Y-96075062D01*
X135068214Y-96257716D01*
X135014214Y-96504073D01*
X134949235Y-96818102D01*
X134872435Y-97203769D01*
X134782971Y-97665041D01*
X134682592Y-98192167D01*
X134539789Y-98940461D01*
X134408078Y-99614259D01*
X134285171Y-100222670D01*
X134168778Y-100774800D01*
X134056611Y-101279757D01*
X133946382Y-101746648D01*
X133835803Y-102184581D01*
X133722584Y-102602664D01*
X133604437Y-103010003D01*
X133479075Y-103415706D01*
X133344208Y-103828880D01*
X133197547Y-104258633D01*
X133060394Y-104648000D01*
X132676883Y-105706199D01*
X132308718Y-106684910D01*
X131954305Y-107587599D01*
X131612051Y-108417733D01*
X131280362Y-109178779D01*
X130957645Y-109874204D01*
X130642305Y-110507473D01*
X130332749Y-111082054D01*
X130027383Y-111601413D01*
X129724614Y-112069017D01*
X129508630Y-112373834D01*
X129350616Y-112573832D01*
X129156071Y-112797858D01*
X128938030Y-113032931D01*
X128709530Y-113266068D01*
X128483608Y-113484288D01*
X128273299Y-113674610D01*
X128091641Y-113824050D01*
X127962699Y-113913288D01*
X127562915Y-114121378D01*
X127129660Y-114298662D01*
X126678498Y-114441791D01*
X126224999Y-114547418D01*
X125784728Y-114612195D01*
X125373253Y-114632775D01*
X125006141Y-114605810D01*
X124866962Y-114579038D01*
X124502582Y-114462289D01*
X124163377Y-114286445D01*
X123834095Y-114042479D01*
X123610547Y-113835535D01*
X123299968Y-113494357D01*
X123066280Y-113162499D01*
X122904034Y-112829559D01*
X122807783Y-112485136D01*
X122777673Y-112245194D01*
X122777761Y-111991166D01*
X122808076Y-111659747D01*
X122868290Y-111252511D01*
X122958078Y-110771027D01*
X123077113Y-110216869D01*
X123225069Y-109591607D01*
X123401619Y-108896815D01*
X123606438Y-108134062D01*
X123704495Y-107780667D01*
X123985333Y-106750735D01*
X124263482Y-105678373D01*
X124536824Y-104573846D01*
X124803240Y-103447421D01*
X125060608Y-102309364D01*
X125306811Y-101169941D01*
X125539729Y-100039419D01*
X125757242Y-98928062D01*
X125957232Y-97846138D01*
X126137578Y-96803913D01*
X126296162Y-95811652D01*
X126430864Y-94879622D01*
X126510174Y-94255167D01*
X154643667Y-94255167D01*
X154664834Y-94276334D01*
X154686000Y-94255167D01*
X154664834Y-94234000D01*
X154643667Y-94255167D01*
X126510174Y-94255167D01*
X126531681Y-94085834D01*
X126563808Y-93811864D01*
X126602543Y-93481429D01*
X126644649Y-93122153D01*
X126686888Y-92761665D01*
X126726022Y-92427589D01*
X126726763Y-92421261D01*
X126765434Y-92080444D01*
X126792205Y-91815868D01*
X126807247Y-91619972D01*
X126810729Y-91485193D01*
X126802823Y-91403970D01*
X126783696Y-91368742D01*
X126753520Y-91371947D01*
X126750292Y-91373848D01*
X126705985Y-91435860D01*
X126643672Y-91575895D01*
X126564724Y-91789555D01*
X126470514Y-92072443D01*
X126362412Y-92420162D01*
X126241792Y-92828317D01*
X126110025Y-93292509D01*
X125968483Y-93808341D01*
X125837984Y-94297500D01*
X125636883Y-95038805D01*
X125423258Y-95785818D01*
X125200305Y-96529097D01*
X124971217Y-97259201D01*
X124739189Y-97966689D01*
X124507413Y-98642119D01*
X124279085Y-99276049D01*
X124057398Y-99859038D01*
X123845546Y-100381646D01*
X123646723Y-100834429D01*
X123575274Y-100986167D01*
X123029598Y-102040822D01*
X122406221Y-103101545D01*
X121710816Y-104159687D01*
X120949059Y-105206594D01*
X120156550Y-106197888D01*
X119911628Y-106481147D01*
X119699194Y-106698671D01*
X119505397Y-106855582D01*
X119316386Y-106957005D01*
X119118308Y-107008063D01*
X118897313Y-107013880D01*
X118639549Y-106979579D01*
X118331164Y-106910284D01*
X118271611Y-106895110D01*
X117786448Y-106759113D01*
X117374099Y-106618337D01*
X117022714Y-106467025D01*
X116720447Y-106299421D01*
X116455449Y-106109772D01*
X116223790Y-105900293D01*
X116024016Y-105681256D01*
X115869515Y-105463176D01*
X115747144Y-105238287D01*
X115648008Y-105017220D01*
X115573632Y-104800935D01*
X115524198Y-104579152D01*
X115499887Y-104341590D01*
X115500881Y-104077968D01*
X115527361Y-103778007D01*
X115579508Y-103431426D01*
X115657505Y-103027943D01*
X115761532Y-102557280D01*
X115797164Y-102404334D01*
X115864380Y-102110490D01*
X115932268Y-101799747D01*
X115995145Y-101499074D01*
X116047330Y-101235442D01*
X116073650Y-101092000D01*
X116116615Y-100846149D01*
X116161650Y-100588987D01*
X116202856Y-100354185D01*
X116229461Y-100203000D01*
X116268997Y-99995834D01*
X116326668Y-99720235D01*
X116402846Y-99374605D01*
X116497908Y-98957343D01*
X116612226Y-98466851D01*
X116746176Y-97901528D01*
X116900131Y-97259777D01*
X117074467Y-96539997D01*
X117269557Y-95740589D01*
X117363878Y-95355834D01*
X117605144Y-94370108D01*
X117825651Y-93463095D01*
X118026086Y-92631606D01*
X118207137Y-91872448D01*
X118369493Y-91182430D01*
X118513840Y-90558361D01*
X118640867Y-89997050D01*
X118751262Y-89495305D01*
X118845713Y-89049936D01*
X118924907Y-88657750D01*
X118989532Y-88315557D01*
X119040276Y-88020165D01*
X119077827Y-87768383D01*
X119102873Y-87557020D01*
X119116101Y-87382885D01*
X119118200Y-87242786D01*
X119117420Y-87220262D01*
X119104834Y-86931500D01*
X118887538Y-87354834D01*
X118801230Y-87532699D01*
X118694266Y-87768092D01*
X118576073Y-88039398D01*
X118456082Y-88325004D01*
X118351936Y-88582500D01*
X117931465Y-89608507D01*
X117460796Y-90689602D01*
X116944424Y-91816247D01*
X116386846Y-92978902D01*
X115792559Y-94168027D01*
X115166059Y-95374083D01*
X115029549Y-95631000D01*
X114735105Y-96177263D01*
X114473021Y-96650558D01*
X114240462Y-97054922D01*
X114034594Y-97394392D01*
X113852582Y-97673004D01*
X113691591Y-97894796D01*
X113548787Y-98063805D01*
X113421334Y-98184067D01*
X113306397Y-98259619D01*
X113201143Y-98294498D01*
X113156717Y-98298000D01*
X113043715Y-98280725D01*
X112864777Y-98231725D01*
X112630614Y-98155242D01*
X112351938Y-98055516D01*
X112039462Y-97936788D01*
X111703896Y-97803298D01*
X111355954Y-97659287D01*
X111006347Y-97508996D01*
X110665786Y-97356665D01*
X110344984Y-97206536D01*
X110118143Y-97095089D01*
X109711234Y-96875670D01*
X109382104Y-96665165D01*
X109125001Y-96458645D01*
X108934177Y-96251181D01*
X108803883Y-96037844D01*
X108761048Y-95931600D01*
X108738498Y-95856115D01*
X108721908Y-95774236D01*
X108712172Y-95680734D01*
X108710182Y-95570383D01*
X108716832Y-95437954D01*
X108733014Y-95278219D01*
X108759621Y-95085950D01*
X108797546Y-94855921D01*
X108847682Y-94582903D01*
X108910922Y-94261668D01*
X108988160Y-93886988D01*
X109080287Y-93453637D01*
X109188197Y-92956385D01*
X109312783Y-92390006D01*
X109454937Y-91749271D01*
X109542706Y-91355334D01*
X109802610Y-90191360D01*
X110045421Y-89106712D01*
X110271943Y-88097963D01*
X110482980Y-87161684D01*
X110679336Y-86294447D01*
X110861816Y-85492826D01*
X111031222Y-84753393D01*
X111188359Y-84072718D01*
X111334031Y-83447376D01*
X111469042Y-82873939D01*
X111594195Y-82348977D01*
X111710296Y-81869065D01*
X111818146Y-81430774D01*
X111918552Y-81030676D01*
X112012315Y-80665345D01*
X112100241Y-80331351D01*
X112183134Y-80025268D01*
X112261797Y-79743667D01*
X112286006Y-79658865D01*
X112495480Y-79034319D01*
X112747743Y-78466732D01*
X113039802Y-77959704D01*
X113368665Y-77516833D01*
X113731338Y-77141719D01*
X114124828Y-76837959D01*
X114546144Y-76609154D01*
X114935000Y-76473336D01*
X115144366Y-76435279D01*
X115420581Y-76411194D01*
X115746960Y-76401276D01*
X116106814Y-76405716D01*
X116483455Y-76424709D01*
X116797667Y-76451748D01*
X117086021Y-76484242D01*
X117445926Y-76529104D01*
X117865455Y-76584568D01*
X118332682Y-76648865D01*
X118835679Y-76720229D01*
X119362518Y-76796892D01*
X119901274Y-76877086D01*
X120440018Y-76959045D01*
X120966825Y-77041001D01*
X121469766Y-77121187D01*
X121936915Y-77197835D01*
X122356344Y-77269179D01*
X122576167Y-77307991D01*
X122851943Y-77356296D01*
X123069351Y-77390002D01*
X123253071Y-77410988D01*
X123427782Y-77421131D01*
X123618164Y-77422310D01*
X123848897Y-77416404D01*
X123952000Y-77412704D01*
X124433748Y-77385758D01*
X124934435Y-77341412D01*
X125438686Y-77282077D01*
X125931126Y-77210165D01*
X126396381Y-77128087D01*
X126819078Y-77038254D01*
X126949076Y-77004334D01*
X134261389Y-77004334D01*
X134263595Y-77438119D01*
X134270445Y-77806284D01*
X134283725Y-78127827D01*
X134305221Y-78421748D01*
X134336719Y-78707044D01*
X134380005Y-79002713D01*
X134436864Y-79327754D01*
X134509082Y-79701166D01*
X134520042Y-79756000D01*
X134641095Y-80330050D01*
X134762739Y-80836695D01*
X134891567Y-81292984D01*
X135034175Y-81715966D01*
X135197157Y-82122689D01*
X135387107Y-82530202D01*
X135610621Y-82955553D01*
X135874294Y-83415792D01*
X136046906Y-83703270D01*
X136301135Y-84115594D01*
X136524725Y-84464901D01*
X136726322Y-84763172D01*
X136914575Y-85022389D01*
X137098130Y-85254534D01*
X137285636Y-85471590D01*
X137453004Y-85651526D01*
X137810299Y-85992321D01*
X138194354Y-86292099D01*
X138624834Y-86564759D01*
X139091921Y-86809981D01*
X139446784Y-86970921D01*
X139758301Y-87084956D01*
X140049773Y-87157399D01*
X140344502Y-87193561D01*
X140665789Y-87198754D01*
X140779500Y-87194674D01*
X141211565Y-87153958D01*
X141588977Y-87070045D01*
X141921264Y-86936413D01*
X142217956Y-86746537D01*
X142488581Y-86493895D01*
X142742670Y-86171963D01*
X142989751Y-85774218D01*
X143070944Y-85626020D01*
X143181893Y-85428126D01*
X143295899Y-85241919D01*
X143398939Y-85089375D01*
X143471695Y-84997975D01*
X143566489Y-84904661D01*
X143647787Y-84856342D01*
X143751188Y-84838372D01*
X143865381Y-84836000D01*
X144077892Y-84855574D01*
X144245451Y-84910277D01*
X144352561Y-84994084D01*
X144374909Y-85034144D01*
X144387716Y-85102008D01*
X144403102Y-85236708D01*
X144419368Y-85420522D01*
X144434816Y-85635727D01*
X144438959Y-85702459D01*
X144478830Y-86126358D01*
X144545919Y-86479924D01*
X144644521Y-86774327D01*
X144778933Y-87020740D01*
X144953451Y-87230332D01*
X145065550Y-87331863D01*
X145363714Y-87527882D01*
X145710440Y-87670967D01*
X146085678Y-87757790D01*
X146469376Y-87785022D01*
X146841483Y-87749334D01*
X147118707Y-87672736D01*
X147372952Y-87542374D01*
X147602239Y-87358878D01*
X147784263Y-87142596D01*
X147869313Y-86987989D01*
X147916296Y-86856387D01*
X147971186Y-86668068D01*
X148026702Y-86449609D01*
X148069685Y-86256493D01*
X148160576Y-85867985D01*
X148261223Y-85545868D01*
X148378203Y-85271923D01*
X148507090Y-85044929D01*
X148646968Y-84861004D01*
X148786520Y-84752282D01*
X148937596Y-84710181D01*
X148970870Y-84709000D01*
X149152152Y-84735097D01*
X149326054Y-84816911D01*
X149497696Y-84959723D01*
X149672194Y-85168818D01*
X149854664Y-85449478D01*
X150050224Y-85806986D01*
X150067889Y-85841630D01*
X150262884Y-86203214D01*
X150444507Y-86490285D01*
X150618841Y-86710728D01*
X150791970Y-86872431D01*
X150934735Y-86965358D01*
X151140653Y-87034843D01*
X151406076Y-87060581D01*
X151719651Y-87045160D01*
X152070020Y-86991171D01*
X152445831Y-86901204D01*
X152835727Y-86777847D01*
X153228353Y-86623692D01*
X153612355Y-86441327D01*
X153876367Y-86294459D01*
X154422014Y-85929473D01*
X154968620Y-85484212D01*
X155511906Y-84962906D01*
X156047590Y-84369786D01*
X156571390Y-83709080D01*
X156771113Y-83434581D01*
X157316517Y-82634833D01*
X157788847Y-81873517D01*
X158187885Y-81151064D01*
X158513416Y-80467904D01*
X158765222Y-79824470D01*
X158943086Y-79221192D01*
X158984394Y-79036480D01*
X159050123Y-78653345D01*
X159104588Y-78207987D01*
X159147615Y-77714745D01*
X159179033Y-77187956D01*
X159198669Y-76641956D01*
X159206350Y-76091083D01*
X159201903Y-75549674D01*
X159185157Y-75032066D01*
X159155939Y-74552597D01*
X159114076Y-74125602D01*
X159059395Y-73765421D01*
X159048491Y-73710308D01*
X158944781Y-73324126D01*
X158806471Y-72990126D01*
X158638701Y-72712915D01*
X158446610Y-72497097D01*
X158235336Y-72347278D01*
X158010019Y-72268065D01*
X157775798Y-72264062D01*
X157537811Y-72339876D01*
X157525972Y-72345811D01*
X157355626Y-72456382D01*
X157211404Y-72605578D01*
X157088394Y-72802834D01*
X156981682Y-73057583D01*
X156886356Y-73379260D01*
X156808210Y-73724089D01*
X156709827Y-74146147D01*
X156602088Y-74487902D01*
X156482460Y-74753442D01*
X156348405Y-74946853D01*
X156197388Y-75072225D01*
X156026873Y-75133645D01*
X155928888Y-75141667D01*
X155784432Y-75119346D01*
X155627254Y-75048301D01*
X155448067Y-74922407D01*
X155237582Y-74735537D01*
X155088167Y-74587269D01*
X154823415Y-74334735D01*
X154548757Y-74105771D01*
X154275846Y-73907857D01*
X154016337Y-73748473D01*
X153781884Y-73635100D01*
X153584142Y-73575218D01*
X153499741Y-73567702D01*
X153261687Y-73612178D01*
X153041297Y-73735194D01*
X152845923Y-73931254D01*
X152696074Y-74168508D01*
X152654392Y-74273445D01*
X152602049Y-74439503D01*
X152545398Y-74644864D01*
X152490792Y-74867709D01*
X152484764Y-74894208D01*
X152381730Y-75291475D01*
X152264967Y-75635317D01*
X152138593Y-75915057D01*
X152016765Y-76107413D01*
X151863902Y-76254501D01*
X151681215Y-76356366D01*
X151489531Y-76407047D01*
X151309680Y-76400583D01*
X151182394Y-76346215D01*
X151092073Y-76258181D01*
X150993024Y-76111677D01*
X150881300Y-75899719D01*
X150752954Y-75615324D01*
X150705083Y-75501500D01*
X150541127Y-75126579D01*
X150387748Y-74827137D01*
X150236624Y-74596126D01*
X150079435Y-74426492D01*
X149907863Y-74311187D01*
X149713588Y-74243158D01*
X149488289Y-74215355D01*
X149223647Y-74220726D01*
X149196171Y-74222705D01*
X148926906Y-74264537D01*
X148695168Y-74350924D01*
X148493717Y-74489100D01*
X148315316Y-74686300D01*
X148152727Y-74949757D01*
X147998712Y-75286706D01*
X147916655Y-75501500D01*
X147767166Y-75893423D01*
X147630750Y-76206274D01*
X147504866Y-76444192D01*
X147386970Y-76611321D01*
X147274520Y-76711799D01*
X147164972Y-76749770D01*
X147149786Y-76750334D01*
X147088593Y-76743741D01*
X147032437Y-76717507D01*
X146974339Y-76661943D01*
X146907318Y-76567362D01*
X146824394Y-76424077D01*
X146718586Y-76222402D01*
X146600704Y-75988334D01*
X146408381Y-75619623D01*
X146231979Y-75321263D01*
X146062556Y-75082671D01*
X145891170Y-74893263D01*
X145708883Y-74742456D01*
X145506752Y-74619666D01*
X145400737Y-74567882D01*
X145097744Y-74461975D01*
X144818214Y-74430885D01*
X144568648Y-74475274D01*
X144552218Y-74481321D01*
X144393441Y-74558945D01*
X144243997Y-74670965D01*
X144097156Y-74825935D01*
X143946189Y-75032407D01*
X143784367Y-75298934D01*
X143604959Y-75634068D01*
X143533025Y-75776667D01*
X143354480Y-76113549D01*
X143190028Y-76374748D01*
X143033356Y-76566755D01*
X142878153Y-76696057D01*
X142718106Y-76769144D01*
X142546903Y-76792504D01*
X142544815Y-76792509D01*
X142324865Y-76755026D01*
X142102248Y-76652585D01*
X141900480Y-76500742D01*
X141743073Y-76315055D01*
X141695902Y-76230832D01*
X141661976Y-76153802D01*
X141632287Y-76069654D01*
X141603925Y-75965223D01*
X141573982Y-75827346D01*
X141539546Y-75642856D01*
X141497710Y-75398589D01*
X141455955Y-75145151D01*
X141389702Y-74829777D01*
X141299031Y-74582210D01*
X141172474Y-74386587D01*
X140998567Y-74227043D01*
X140765844Y-74087716D01*
X140652500Y-74033540D01*
X140418514Y-73960499D01*
X140160434Y-73933726D01*
X139908763Y-73953355D01*
X139694001Y-74019521D01*
X139674736Y-74029226D01*
X139504430Y-74147580D01*
X139322550Y-74320693D01*
X139149990Y-74525132D01*
X139007645Y-74737462D01*
X138956401Y-74834849D01*
X138814781Y-75104288D01*
X138673196Y-75314860D01*
X138538532Y-75457084D01*
X138472440Y-75501445D01*
X138268063Y-75567204D01*
X138072391Y-75551253D01*
X137887841Y-75456315D01*
X137716831Y-75285111D01*
X137561778Y-75040365D01*
X137425097Y-74724798D01*
X137309207Y-74341135D01*
X137262762Y-74138801D01*
X137153769Y-73716083D01*
X137018937Y-73371923D01*
X136855906Y-73103532D01*
X136662314Y-72908121D01*
X136435799Y-72782901D01*
X136173999Y-72725082D01*
X136061545Y-72720200D01*
X135780256Y-72761511D01*
X135513110Y-72882719D01*
X135263515Y-73079737D01*
X135034879Y-73348480D01*
X134830611Y-73684862D01*
X134654118Y-74084795D01*
X134508808Y-74544194D01*
X134494715Y-74598815D01*
X134428835Y-74868454D01*
X134376398Y-75108561D01*
X134335928Y-75334334D01*
X134305951Y-75560972D01*
X134284994Y-75803675D01*
X134271581Y-76077641D01*
X134264239Y-76398068D01*
X134261494Y-76780157D01*
X134261389Y-77004334D01*
X126949076Y-77004334D01*
X127183841Y-76943078D01*
X127406963Y-76870794D01*
X127853905Y-76666495D01*
X128283945Y-76386893D01*
X128687580Y-76041029D01*
X129055308Y-75637943D01*
X129377624Y-75186676D01*
X129604946Y-74779791D01*
X129722487Y-74527739D01*
X129835238Y-74256129D01*
X129946121Y-73955722D01*
X130058058Y-73617279D01*
X130173969Y-73231562D01*
X130296778Y-72789330D01*
X130429405Y-72281345D01*
X130558847Y-71763285D01*
X130769204Y-70923969D01*
X130970058Y-70159953D01*
X131164711Y-69462846D01*
X131311758Y-68973135D01*
X136278701Y-68973135D01*
X136302050Y-69270848D01*
X136357538Y-69544554D01*
X136451028Y-69823333D01*
X136585765Y-70130747D01*
X136733829Y-70425905D01*
X136877602Y-70669015D01*
X137036708Y-70889247D01*
X137230773Y-71115770D01*
X137295974Y-71186356D01*
X137634988Y-71501764D01*
X138002386Y-71757909D01*
X138385586Y-71947928D01*
X138772003Y-72064956D01*
X138959167Y-72093621D01*
X139145340Y-72106817D01*
X139403100Y-72116874D01*
X139719422Y-72123792D01*
X140081284Y-72127573D01*
X140475664Y-72128220D01*
X140889538Y-72125733D01*
X141309884Y-72120114D01*
X141723678Y-72111363D01*
X142117900Y-72099484D01*
X142282334Y-72093245D01*
X142799803Y-72069857D01*
X143259597Y-72044270D01*
X143656561Y-72016895D01*
X143985541Y-71988142D01*
X144241380Y-71958420D01*
X144418923Y-71928139D01*
X144448826Y-71920960D01*
X144588809Y-71855633D01*
X144713340Y-71750913D01*
X144718452Y-71744961D01*
X144785472Y-71636579D01*
X144817857Y-71506514D01*
X144813512Y-71349181D01*
X144775720Y-71182695D01*
X147078544Y-71182695D01*
X147086829Y-71353943D01*
X147151103Y-71502258D01*
X147274997Y-71629006D01*
X147462139Y-71735551D01*
X147716159Y-71823258D01*
X148040688Y-71893490D01*
X148439353Y-71947613D01*
X148915785Y-71986992D01*
X149266303Y-72005218D01*
X149581411Y-72016660D01*
X149931755Y-72026116D01*
X150306062Y-72033567D01*
X150693059Y-72038993D01*
X151081473Y-72042374D01*
X151460032Y-72043690D01*
X151817462Y-72042921D01*
X152142491Y-72040048D01*
X152423846Y-72035050D01*
X152650254Y-72027909D01*
X152810443Y-72018602D01*
X152872568Y-72011574D01*
X153043939Y-71973283D01*
X153243065Y-71914171D01*
X153389893Y-71861250D01*
X153904066Y-71613885D01*
X154357144Y-71307953D01*
X154748444Y-70944208D01*
X155077285Y-70523403D01*
X155342984Y-70046289D01*
X155544860Y-69513619D01*
X155558124Y-69469000D01*
X155592322Y-69331759D01*
X155615449Y-69183330D01*
X155629169Y-69004136D01*
X155635149Y-68774600D01*
X155635560Y-68558834D01*
X155633131Y-68303542D01*
X155626742Y-68112077D01*
X155613850Y-67963609D01*
X155591909Y-67837311D01*
X155558377Y-67712353D01*
X155516646Y-67585167D01*
X155299857Y-67063125D01*
X155026596Y-66590988D01*
X154702112Y-66175220D01*
X154331658Y-65822283D01*
X153920481Y-65538640D01*
X153801810Y-65474080D01*
X153422709Y-65297400D01*
X153064370Y-65171076D01*
X152722088Y-65097357D01*
X152391156Y-65078490D01*
X152066869Y-65116725D01*
X151744520Y-65214309D01*
X151419403Y-65373490D01*
X151086814Y-65596516D01*
X150742044Y-65885636D01*
X150380390Y-66243097D01*
X149997143Y-66671148D01*
X149587600Y-67172037D01*
X149205476Y-67669834D01*
X148883041Y-68108441D01*
X148573771Y-68545598D01*
X148281916Y-68974288D01*
X148011724Y-69387491D01*
X147767447Y-69778188D01*
X147553333Y-70139360D01*
X147373633Y-70463989D01*
X147232595Y-70745057D01*
X147134470Y-70975543D01*
X147083507Y-71148430D01*
X147078544Y-71182695D01*
X144775720Y-71182695D01*
X144770340Y-71158998D01*
X144686246Y-70930382D01*
X144559135Y-70657750D01*
X144386910Y-70335519D01*
X144167478Y-69958107D01*
X143898741Y-69519931D01*
X143860184Y-69458388D01*
X143401318Y-68746182D01*
X142964240Y-68107018D01*
X142543547Y-67533757D01*
X142133837Y-67019257D01*
X141729709Y-66556380D01*
X141415313Y-66227007D01*
X141106347Y-65927763D01*
X140833820Y-65691780D01*
X140586006Y-65512688D01*
X140351178Y-65384117D01*
X140117610Y-65299697D01*
X139873574Y-65253059D01*
X139607345Y-65237833D01*
X139594167Y-65237784D01*
X139135153Y-65266056D01*
X138714325Y-65356176D01*
X138306694Y-65513622D01*
X138281834Y-65525463D01*
X137827467Y-65790461D01*
X137418684Y-66123930D01*
X137060434Y-66520059D01*
X136757667Y-66973042D01*
X136515331Y-67477068D01*
X136436652Y-67691000D01*
X136374892Y-67885639D01*
X136333170Y-68054208D01*
X136306559Y-68226305D01*
X136290132Y-68431529D01*
X136281628Y-68622334D01*
X136278701Y-68973135D01*
X131311758Y-68973135D01*
X131356463Y-68824255D01*
X131548617Y-68235786D01*
X131744472Y-67689049D01*
X131947330Y-67175651D01*
X132160493Y-66687199D01*
X132387262Y-66215300D01*
X132630937Y-65751563D01*
X132894821Y-65287595D01*
X133182214Y-64815004D01*
X133466831Y-64370567D01*
X134168162Y-63365124D01*
X134908428Y-62434832D01*
X135687785Y-61579577D01*
X136506390Y-60799248D01*
X137364398Y-60093730D01*
X138261968Y-59462910D01*
X139199254Y-58906676D01*
X140176414Y-58424913D01*
X141193603Y-58017510D01*
X142250979Y-57684352D01*
X142954601Y-57508751D01*
X143873871Y-57344824D01*
X144812409Y-57260732D01*
X145764763Y-57255335D01*
X146725480Y-57327489D01*
G37*
X146725480Y-57327489D02*
X147689109Y-57476054D01*
X148650196Y-57699887D01*
X149603290Y-57997847D01*
X150542939Y-58368792D01*
X151463689Y-58811580D01*
X152360090Y-59325069D01*
X152714541Y-59552610D01*
X153542713Y-60147308D01*
X154336380Y-60811250D01*
X155096364Y-61545589D01*
X155823485Y-62351477D01*
X156518563Y-63230068D01*
X157182419Y-64182514D01*
X157815873Y-65209968D01*
X158419745Y-66313583D01*
X158994857Y-67494511D01*
X159542027Y-68753907D01*
X159891945Y-69638334D01*
X160206974Y-70425809D01*
X160559738Y-71238149D01*
X160930326Y-72030167D01*
X161289323Y-72725134D01*
X161656362Y-73343866D01*
X162039417Y-73894792D01*
X162446459Y-74386344D01*
X162885464Y-74826954D01*
X163364405Y-75225050D01*
X163891255Y-75589065D01*
X164473987Y-75927429D01*
X164752458Y-76071512D01*
X165063038Y-76224606D01*
X165335501Y-76350778D01*
X165581145Y-76450965D01*
X165811269Y-76526105D01*
X166037169Y-76577135D01*
X166270145Y-76604995D01*
X166521493Y-76610620D01*
X166802512Y-76594949D01*
X167124500Y-76558920D01*
X167498754Y-76503470D01*
X167936573Y-76429537D01*
X168296167Y-76365627D01*
X168804460Y-76277337D01*
X169252097Y-76207030D01*
X169660619Y-76152397D01*
X170051568Y-76111130D01*
X170446488Y-76080921D01*
X170866919Y-76059462D01*
X171280667Y-76045834D01*
X171701227Y-76037008D01*
X172050030Y-76036777D01*
X172339778Y-76047830D01*
X172583174Y-76072856D01*
X172792919Y-76114540D01*
X172981717Y-76175573D01*
X173162270Y-76258641D01*
X173347281Y-76366432D01*
X173549452Y-76501635D01*
X173599036Y-76536414D01*
X173891460Y-76762346D01*
X174146130Y-77005152D01*
X174373476Y-77278659D01*
X174583928Y-77596695D01*
X174787915Y-77973087D01*
X174960596Y-78341539D01*
X175120804Y-78724874D01*
X175273494Y-79138982D01*
X175421131Y-79592490D01*
X175566180Y-80094023D01*
X175711108Y-80652209D01*
X175858381Y-81275674D01*
X176010464Y-81973043D01*
X176042616Y-82126667D01*
X176083698Y-82319687D01*
X176141230Y-82583336D01*
X176212558Y-82905760D01*
X176295024Y-83275107D01*
X176385973Y-83679523D01*
X176482748Y-84107154D01*
X176582694Y-84546147D01*
X176678179Y-84963000D01*
X176809549Y-85535904D01*
X176945852Y-86132557D01*
X177085679Y-86746670D01*
X177227625Y-87371954D01*
X177370282Y-88002118D01*
X177512243Y-88630874D01*
X177652102Y-89251933D01*
X177788452Y-89859004D01*
X177919885Y-90445800D01*
X178044996Y-91006030D01*
X178162376Y-91533405D01*
X178270620Y-92021636D01*
X178368320Y-92464433D01*
X178454069Y-92855508D01*
X178526461Y-93188570D01*
X178584089Y-93457331D01*
X178625545Y-93655501D01*
X178647873Y-93768334D01*
X178702174Y-94113049D01*
X178740517Y-94466032D01*
X178762310Y-94809954D01*
X178766963Y-95127488D01*
X178753883Y-95401306D01*
X178722478Y-95614081D01*
X178712240Y-95653820D01*
X178631190Y-95849868D01*
X178500675Y-96036687D01*
X178315296Y-96218095D01*
X178069653Y-96397906D01*
X177758348Y-96579937D01*
X177375983Y-96768003D01*
X176917157Y-96965920D01*
X176773906Y-97023759D01*
X176554146Y-97109308D01*
X176279057Y-97213170D01*
X175961512Y-97330761D01*
X175614384Y-97457496D01*
X175250549Y-97588788D01*
X174882879Y-97720054D01*
X174524248Y-97846709D01*
X174187531Y-97964166D01*
X173885601Y-98067842D01*
X173631331Y-98153151D01*
X173437597Y-98215508D01*
X173372554Y-98235163D01*
X173106922Y-98309119D01*
X172903626Y-98354772D01*
X172745433Y-98372754D01*
X172615108Y-98363694D01*
X172495418Y-98328223D01*
X172377584Y-98271565D01*
X172219090Y-98166579D01*
X172026662Y-98009228D01*
X171816625Y-97815284D01*
X171605304Y-97600516D01*
X171409026Y-97380693D01*
X171256748Y-97188879D01*
X170917205Y-96695614D01*
X170575257Y-96133974D01*
X170229997Y-95501976D01*
X169880521Y-94797636D01*
X169525922Y-94018970D01*
X169165296Y-93163996D01*
X168797736Y-92230729D01*
X168422337Y-91217186D01*
X168062081Y-90191167D01*
X167970109Y-89930823D01*
X167867033Y-89651798D01*
X167765034Y-89386384D01*
X167676295Y-89166876D01*
X167670853Y-89153965D01*
X167585786Y-88945920D01*
X167505884Y-88738281D01*
X167441924Y-88559681D01*
X167412681Y-88468203D01*
X167359120Y-88308490D01*
X167313736Y-88220026D01*
X167280025Y-88205930D01*
X167261487Y-88269320D01*
X167259000Y-88331152D01*
X167271087Y-88545423D01*
X167306650Y-88835546D01*
X167364642Y-89196340D01*
X167444016Y-89622618D01*
X167543727Y-90109197D01*
X167662726Y-90650893D01*
X167799967Y-91242522D01*
X167954405Y-91878899D01*
X168061928Y-92307834D01*
X168169341Y-92728887D01*
X168268150Y-93110005D01*
X168361771Y-93462836D01*
X168453620Y-93799033D01*
X168547112Y-94130247D01*
X168645662Y-94468128D01*
X168752688Y-94824327D01*
X168871603Y-95210495D01*
X169005824Y-95638282D01*
X169158767Y-96119341D01*
X169333847Y-96665322D01*
X169396077Y-96858667D01*
X169639867Y-97616748D01*
X169857616Y-98296334D01*
X170049915Y-98899301D01*
X170217357Y-99427523D01*
X170360533Y-99882873D01*
X170480036Y-100267227D01*
X170576457Y-100582459D01*
X170646403Y-100816834D01*
X170763827Y-101173625D01*
X170899824Y-101493901D01*
X171066840Y-101801011D01*
X171277321Y-102118309D01*
X171492536Y-102404334D01*
X171713304Y-102695052D01*
X171881086Y-102939730D01*
X172002738Y-103152224D01*
X172085116Y-103346390D01*
X172135076Y-103536082D01*
X172159475Y-103735155D01*
X172160688Y-103754647D01*
X172145999Y-104179216D01*
X172051855Y-104576404D01*
X171879205Y-104945359D01*
X171628997Y-105285228D01*
X171302181Y-105595160D01*
X170899704Y-105874303D01*
X170422515Y-106121805D01*
X169871563Y-106336814D01*
X169247795Y-106518477D01*
X169025141Y-106571186D01*
X168634103Y-106646526D01*
X168309423Y-106681188D01*
X168043284Y-106675321D01*
X167827870Y-106629071D01*
X167745936Y-106595383D01*
X167585137Y-106489361D01*
X167385769Y-106308415D01*
X167148117Y-106052848D01*
X166872465Y-105722960D01*
X166628020Y-105410000D01*
X165980638Y-104506850D01*
X165354449Y-103524013D01*
X164750884Y-102464131D01*
X164171373Y-101329844D01*
X163617347Y-100123794D01*
X163132989Y-98957183D01*
X162998112Y-98611873D01*
X162871778Y-98278350D01*
X162750870Y-97946998D01*
X162632273Y-97608203D01*
X162512872Y-97252349D01*
X162389551Y-96869821D01*
X162259195Y-96451004D01*
X162118687Y-95986284D01*
X161964914Y-95466045D01*
X161794759Y-94880672D01*
X161657447Y-94403334D01*
X161485451Y-93807114D01*
X161333719Y-93289462D01*
X161201137Y-92847019D01*
X161086592Y-92476430D01*
X160988971Y-92174338D01*
X160907161Y-91937386D01*
X160840047Y-91762217D01*
X160786518Y-91645474D01*
X160745458Y-91583802D01*
X160718500Y-91572511D01*
X160697005Y-91622007D01*
X160684263Y-91742406D01*
X160679815Y-91920447D01*
X160683205Y-92142867D01*
X160693973Y-92396407D01*
X160711664Y-92667804D01*
X160735819Y-92943797D01*
X160765979Y-93211125D01*
X160778216Y-93302667D01*
X160878079Y-93975353D01*
X160998749Y-94718648D01*
X161138054Y-95521673D01*
X161293819Y-96373551D01*
X161463871Y-97263400D01*
X161646036Y-98180344D01*
X161838141Y-99113503D01*
X162038013Y-100051998D01*
X162243476Y-100984950D01*
X162452359Y-101901482D01*
X162662486Y-102790713D01*
X162727873Y-103060500D01*
X162836201Y-103500006D01*
X162954990Y-103973704D01*
X163081097Y-104469626D01*
X163211374Y-104975804D01*
X163342677Y-105480269D01*
X163471861Y-105971054D01*
X163595779Y-106436189D01*
X163711288Y-106863708D01*
X163815240Y-107241641D01*
X163904492Y-107558021D01*
X163958435Y-107742832D01*
X164136608Y-108373579D01*
X164293504Y-108995891D01*
X164427691Y-109600802D01*
X164537741Y-110179343D01*
X164622223Y-110722550D01*
X164679706Y-111221453D01*
X164708760Y-111667088D01*
X164707954Y-112050487D01*
X164685580Y-112301256D01*
X164607074Y-112656282D01*
X164480870Y-112941823D01*
X164305359Y-113159414D01*
X164078932Y-113310594D01*
X163799980Y-113396899D01*
X163514130Y-113420408D01*
X163196794Y-113392014D01*
X162835275Y-113311394D01*
X162446049Y-113185384D01*
X162045595Y-113020825D01*
X161650388Y-112824555D01*
X161276907Y-112603412D01*
X160941628Y-112364235D01*
X160911676Y-112340270D01*
X160650644Y-112102818D01*
X160366757Y-111797051D01*
X160067967Y-111433514D01*
X159762227Y-111022755D01*
X159457489Y-110575320D01*
X159161705Y-110101757D01*
X158957986Y-109749167D01*
X158650469Y-109166617D01*
X158337004Y-108513224D01*
X158022531Y-107802105D01*
X157711991Y-107046380D01*
X157410327Y-106259168D01*
X157122479Y-105453588D01*
X156853387Y-104642760D01*
X156607994Y-103839801D01*
X156391240Y-103057833D01*
X156295314Y-102679500D01*
X156221285Y-102372071D01*
X156150578Y-102066270D01*
X156081373Y-101752808D01*
X156011848Y-101422396D01*
X155940182Y-101065741D01*
X155864556Y-100673556D01*
X155783147Y-100236549D01*
X155694135Y-99745430D01*
X155595699Y-99190910D01*
X155486020Y-98563697D01*
X155465603Y-98446167D01*
X155360283Y-97845153D01*
X155266633Y-97323808D01*
X155183717Y-96878079D01*
X155110604Y-96503912D01*
X155046360Y-96197253D01*
X154990052Y-95954047D01*
X154940746Y-95770240D01*
X154897510Y-95641780D01*
X154859410Y-95564611D01*
X154825513Y-95534680D01*
X154797752Y-95544856D01*
X154776029Y-95611126D01*
X154760561Y-95756130D01*
X154751200Y-95974177D01*
X154747801Y-96259578D01*
X154750218Y-96606642D01*
X154758304Y-97009679D01*
X154771913Y-97462998D01*
X154790900Y-97960909D01*
X154815117Y-98497722D01*
X154844418Y-99067747D01*
X154878659Y-99665293D01*
X154917691Y-100284670D01*
X154920685Y-100330000D01*
X155122019Y-102748840D01*
X155405797Y-105177502D01*
X155771176Y-107610593D01*
X156217311Y-110042720D01*
X156743358Y-112468489D01*
X156964611Y-113389834D01*
X157049863Y-113738924D01*
X157121918Y-114043350D01*
X157184927Y-114323027D01*
X157243040Y-114597877D01*
X157300405Y-114887815D01*
X157361172Y-115212761D01*
X157429491Y-115592634D01*
X157462900Y-115781667D01*
X157492828Y-115928660D01*
X157541859Y-116142262D01*
X157606287Y-116407543D01*
X157682407Y-116709575D01*
X157766513Y-117033430D01*
X157854900Y-117364179D01*
X157864181Y-117398342D01*
X157989667Y-117862158D01*
X158093395Y-118252658D01*
X158176998Y-118577896D01*
X158242108Y-118845928D01*
X158290358Y-119064807D01*
X158323381Y-119242589D01*
X158342811Y-119387330D01*
X158350278Y-119507082D01*
X158347418Y-119609902D01*
X158335862Y-119703845D01*
X158333883Y-119715391D01*
X158228569Y-120071305D01*
X158040063Y-120419580D01*
X157769566Y-120759396D01*
X157418275Y-121089938D01*
X156987392Y-121410388D01*
X156478114Y-121719928D01*
X155891643Y-122017743D01*
X155229177Y-122303014D01*
X154491916Y-122574924D01*
X153818167Y-122791657D01*
X152499053Y-123155696D01*
X151178129Y-123448741D01*
X149840263Y-123673432D01*
X148470329Y-123832408D01*
X147404667Y-123910555D01*
X147170202Y-123921060D01*
X146861677Y-123930823D01*
X146489692Y-123939777D01*
X146064851Y-123947855D01*
X145597757Y-123954988D01*
X145099012Y-123961108D01*
X144579218Y-123966149D01*
X144048978Y-123970042D01*
X143518896Y-123972720D01*
X142999572Y-123974114D01*
X142501611Y-123974157D01*
X142035614Y-123972781D01*
X141612185Y-123969919D01*
X141241925Y-123965502D01*
X140935438Y-123959463D01*
X140737167Y-123953174D01*
X139960425Y-123905177D01*
X139162267Y-123824490D01*
X138357705Y-123713977D01*
X137561755Y-123576501D01*
X136789432Y-123414925D01*
X136055751Y-123232115D01*
X135375725Y-123030932D01*
X134764370Y-122814242D01*
X134763126Y-122813756D01*
X134200634Y-122570250D01*
X133691142Y-122301557D01*
X133240471Y-122012017D01*
X132854445Y-121705973D01*
X132538888Y-121387766D01*
X132299622Y-121061736D01*
X132220716Y-120918344D01*
X132058834Y-120590706D01*
X132060554Y-120017103D01*
X132066635Y-119764755D01*
X132085187Y-119521220D01*
X132119020Y-119273058D01*
X132170944Y-119006827D01*
X132243769Y-118709086D01*
X132340306Y-118366393D01*
X132463366Y-117965307D01*
X132539235Y-117727770D01*
X132620720Y-117469440D01*
X132688613Y-117237945D01*
X132746366Y-117016949D01*
X132797432Y-116790116D01*
X132845262Y-116541109D01*
X132893309Y-116253591D01*
X132945026Y-115911227D01*
X132990756Y-115591167D01*
X133095278Y-114900000D01*
X133216562Y-114198582D01*
X133359857Y-113457159D01*
X133412725Y-113199334D01*
X133482275Y-112847394D01*
X133561122Y-112416466D01*
X133649358Y-111905959D01*
X133747077Y-111315284D01*
X133854373Y-110643851D01*
X133971337Y-109891069D01*
X134098065Y-109056350D01*
X134234650Y-108139104D01*
X134381184Y-107138740D01*
X134474211Y-106496353D01*
X134561022Y-105873099D01*
X134645495Y-105225031D01*
X134727190Y-104557974D01*
X134805663Y-103877751D01*
X134880471Y-103190188D01*
X134951173Y-102501108D01*
X135017324Y-101816337D01*
X135078483Y-101141699D01*
X135134207Y-100483018D01*
X135184053Y-99846119D01*
X135227578Y-99236827D01*
X135264340Y-98660965D01*
X135293897Y-98124359D01*
X135315805Y-97632833D01*
X135329621Y-97192211D01*
X135334904Y-96808319D01*
X135331210Y-96486980D01*
X135318096Y-96234019D01*
X135295121Y-96055261D01*
X135273567Y-95978890D01*
X135226740Y-95883916D01*
X135193036Y-95862094D01*
X135172769Y-95885000D01*
X135146648Y-95952146D01*
X135112078Y-96075062D01*
X135068214Y-96257716D01*
X135014214Y-96504073D01*
X134949235Y-96818102D01*
X134872435Y-97203769D01*
X134782971Y-97665041D01*
X134682592Y-98192167D01*
X134539789Y-98940461D01*
X134408078Y-99614259D01*
X134285171Y-100222670D01*
X134168778Y-100774800D01*
X134056611Y-101279757D01*
X133946382Y-101746648D01*
X133835803Y-102184581D01*
X133722584Y-102602664D01*
X133604437Y-103010003D01*
X133479075Y-103415706D01*
X133344208Y-103828880D01*
X133197547Y-104258633D01*
X133060394Y-104648000D01*
X132676883Y-105706199D01*
X132308718Y-106684910D01*
X131954305Y-107587599D01*
X131612051Y-108417733D01*
X131280362Y-109178779D01*
X130957645Y-109874204D01*
X130642305Y-110507473D01*
X130332749Y-111082054D01*
X130027383Y-111601413D01*
X129724614Y-112069017D01*
X129508630Y-112373834D01*
X129350616Y-112573832D01*
X129156071Y-112797858D01*
X128938030Y-113032931D01*
X128709530Y-113266068D01*
X128483608Y-113484288D01*
X128273299Y-113674610D01*
X128091641Y-113824050D01*
X127962699Y-113913288D01*
X127562915Y-114121378D01*
X127129660Y-114298662D01*
X126678498Y-114441791D01*
X126224999Y-114547418D01*
X125784728Y-114612195D01*
X125373253Y-114632775D01*
X125006141Y-114605810D01*
X124866962Y-114579038D01*
X124502582Y-114462289D01*
X124163377Y-114286445D01*
X123834095Y-114042479D01*
X123610547Y-113835535D01*
X123299968Y-113494357D01*
X123066280Y-113162499D01*
X122904034Y-112829559D01*
X122807783Y-112485136D01*
X122777673Y-112245194D01*
X122777761Y-111991166D01*
X122808076Y-111659747D01*
X122868290Y-111252511D01*
X122958078Y-110771027D01*
X123077113Y-110216869D01*
X123225069Y-109591607D01*
X123401619Y-108896815D01*
X123606438Y-108134062D01*
X123704495Y-107780667D01*
X123985333Y-106750735D01*
X124263482Y-105678373D01*
X124536824Y-104573846D01*
X124803240Y-103447421D01*
X125060608Y-102309364D01*
X125306811Y-101169941D01*
X125539729Y-100039419D01*
X125757242Y-98928062D01*
X125957232Y-97846138D01*
X126137578Y-96803913D01*
X126296162Y-95811652D01*
X126430864Y-94879622D01*
X126510174Y-94255167D01*
X154643667Y-94255167D01*
X154664834Y-94276334D01*
X154686000Y-94255167D01*
X154664834Y-94234000D01*
X154643667Y-94255167D01*
X126510174Y-94255167D01*
X126531681Y-94085834D01*
X126563808Y-93811864D01*
X126602543Y-93481429D01*
X126644649Y-93122153D01*
X126686888Y-92761665D01*
X126726022Y-92427589D01*
X126726763Y-92421261D01*
X126765434Y-92080444D01*
X126792205Y-91815868D01*
X126807247Y-91619972D01*
X126810729Y-91485193D01*
X126802823Y-91403970D01*
X126783696Y-91368742D01*
X126753520Y-91371947D01*
X126750292Y-91373848D01*
X126705985Y-91435860D01*
X126643672Y-91575895D01*
X126564724Y-91789555D01*
X126470514Y-92072443D01*
X126362412Y-92420162D01*
X126241792Y-92828317D01*
X126110025Y-93292509D01*
X125968483Y-93808341D01*
X125837984Y-94297500D01*
X125636883Y-95038805D01*
X125423258Y-95785818D01*
X125200305Y-96529097D01*
X124971217Y-97259201D01*
X124739189Y-97966689D01*
X124507413Y-98642119D01*
X124279085Y-99276049D01*
X124057398Y-99859038D01*
X123845546Y-100381646D01*
X123646723Y-100834429D01*
X123575274Y-100986167D01*
X123029598Y-102040822D01*
X122406221Y-103101545D01*
X121710816Y-104159687D01*
X120949059Y-105206594D01*
X120156550Y-106197888D01*
X119911628Y-106481147D01*
X119699194Y-106698671D01*
X119505397Y-106855582D01*
X119316386Y-106957005D01*
X119118308Y-107008063D01*
X118897313Y-107013880D01*
X118639549Y-106979579D01*
X118331164Y-106910284D01*
X118271611Y-106895110D01*
X117786448Y-106759113D01*
X117374099Y-106618337D01*
X117022714Y-106467025D01*
X116720447Y-106299421D01*
X116455449Y-106109772D01*
X116223790Y-105900293D01*
X116024016Y-105681256D01*
X115869515Y-105463176D01*
X115747144Y-105238287D01*
X115648008Y-105017220D01*
X115573632Y-104800935D01*
X115524198Y-104579152D01*
X115499887Y-104341590D01*
X115500881Y-104077968D01*
X115527361Y-103778007D01*
X115579508Y-103431426D01*
X115657505Y-103027943D01*
X115761532Y-102557280D01*
X115797164Y-102404334D01*
X115864380Y-102110490D01*
X115932268Y-101799747D01*
X115995145Y-101499074D01*
X116047330Y-101235442D01*
X116073650Y-101092000D01*
X116116615Y-100846149D01*
X116161650Y-100588987D01*
X116202856Y-100354185D01*
X116229461Y-100203000D01*
X116268997Y-99995834D01*
X116326668Y-99720235D01*
X116402846Y-99374605D01*
X116497908Y-98957343D01*
X116612226Y-98466851D01*
X116746176Y-97901528D01*
X116900131Y-97259777D01*
X117074467Y-96539997D01*
X117269557Y-95740589D01*
X117363878Y-95355834D01*
X117605144Y-94370108D01*
X117825651Y-93463095D01*
X118026086Y-92631606D01*
X118207137Y-91872448D01*
X118369493Y-91182430D01*
X118513840Y-90558361D01*
X118640867Y-89997050D01*
X118751262Y-89495305D01*
X118845713Y-89049936D01*
X118924907Y-88657750D01*
X118989532Y-88315557D01*
X119040276Y-88020165D01*
X119077827Y-87768383D01*
X119102873Y-87557020D01*
X119116101Y-87382885D01*
X119118200Y-87242786D01*
X119117420Y-87220262D01*
X119104834Y-86931500D01*
X118887538Y-87354834D01*
X118801230Y-87532699D01*
X118694266Y-87768092D01*
X118576073Y-88039398D01*
X118456082Y-88325004D01*
X118351936Y-88582500D01*
X117931465Y-89608507D01*
X117460796Y-90689602D01*
X116944424Y-91816247D01*
X116386846Y-92978902D01*
X115792559Y-94168027D01*
X115166059Y-95374083D01*
X115029549Y-95631000D01*
X114735105Y-96177263D01*
X114473021Y-96650558D01*
X114240462Y-97054922D01*
X114034594Y-97394392D01*
X113852582Y-97673004D01*
X113691591Y-97894796D01*
X113548787Y-98063805D01*
X113421334Y-98184067D01*
X113306397Y-98259619D01*
X113201143Y-98294498D01*
X113156717Y-98298000D01*
X113043715Y-98280725D01*
X112864777Y-98231725D01*
X112630614Y-98155242D01*
X112351938Y-98055516D01*
X112039462Y-97936788D01*
X111703896Y-97803298D01*
X111355954Y-97659287D01*
X111006347Y-97508996D01*
X110665786Y-97356665D01*
X110344984Y-97206536D01*
X110118143Y-97095089D01*
X109711234Y-96875670D01*
X109382104Y-96665165D01*
X109125001Y-96458645D01*
X108934177Y-96251181D01*
X108803883Y-96037844D01*
X108761048Y-95931600D01*
X108738498Y-95856115D01*
X108721908Y-95774236D01*
X108712172Y-95680734D01*
X108710182Y-95570383D01*
X108716832Y-95437954D01*
X108733014Y-95278219D01*
X108759621Y-95085950D01*
X108797546Y-94855921D01*
X108847682Y-94582903D01*
X108910922Y-94261668D01*
X108988160Y-93886988D01*
X109080287Y-93453637D01*
X109188197Y-92956385D01*
X109312783Y-92390006D01*
X109454937Y-91749271D01*
X109542706Y-91355334D01*
X109802610Y-90191360D01*
X110045421Y-89106712D01*
X110271943Y-88097963D01*
X110482980Y-87161684D01*
X110679336Y-86294447D01*
X110861816Y-85492826D01*
X111031222Y-84753393D01*
X111188359Y-84072718D01*
X111334031Y-83447376D01*
X111469042Y-82873939D01*
X111594195Y-82348977D01*
X111710296Y-81869065D01*
X111818146Y-81430774D01*
X111918552Y-81030676D01*
X112012315Y-80665345D01*
X112100241Y-80331351D01*
X112183134Y-80025268D01*
X112261797Y-79743667D01*
X112286006Y-79658865D01*
X112495480Y-79034319D01*
X112747743Y-78466732D01*
X113039802Y-77959704D01*
X113368665Y-77516833D01*
X113731338Y-77141719D01*
X114124828Y-76837959D01*
X114546144Y-76609154D01*
X114935000Y-76473336D01*
X115144366Y-76435279D01*
X115420581Y-76411194D01*
X115746960Y-76401276D01*
X116106814Y-76405716D01*
X116483455Y-76424709D01*
X116797667Y-76451748D01*
X117086021Y-76484242D01*
X117445926Y-76529104D01*
X117865455Y-76584568D01*
X118332682Y-76648865D01*
X118835679Y-76720229D01*
X119362518Y-76796892D01*
X119901274Y-76877086D01*
X120440018Y-76959045D01*
X120966825Y-77041001D01*
X121469766Y-77121187D01*
X121936915Y-77197835D01*
X122356344Y-77269179D01*
X122576167Y-77307991D01*
X122851943Y-77356296D01*
X123069351Y-77390002D01*
X123253071Y-77410988D01*
X123427782Y-77421131D01*
X123618164Y-77422310D01*
X123848897Y-77416404D01*
X123952000Y-77412704D01*
X124433748Y-77385758D01*
X124934435Y-77341412D01*
X125438686Y-77282077D01*
X125931126Y-77210165D01*
X126396381Y-77128087D01*
X126819078Y-77038254D01*
X126949076Y-77004334D01*
X134261389Y-77004334D01*
X134263595Y-77438119D01*
X134270445Y-77806284D01*
X134283725Y-78127827D01*
X134305221Y-78421748D01*
X134336719Y-78707044D01*
X134380005Y-79002713D01*
X134436864Y-79327754D01*
X134509082Y-79701166D01*
X134520042Y-79756000D01*
X134641095Y-80330050D01*
X134762739Y-80836695D01*
X134891567Y-81292984D01*
X135034175Y-81715966D01*
X135197157Y-82122689D01*
X135387107Y-82530202D01*
X135610621Y-82955553D01*
X135874294Y-83415792D01*
X136046906Y-83703270D01*
X136301135Y-84115594D01*
X136524725Y-84464901D01*
X136726322Y-84763172D01*
X136914575Y-85022389D01*
X137098130Y-85254534D01*
X137285636Y-85471590D01*
X137453004Y-85651526D01*
X137810299Y-85992321D01*
X138194354Y-86292099D01*
X138624834Y-86564759D01*
X139091921Y-86809981D01*
X139446784Y-86970921D01*
X139758301Y-87084956D01*
X140049773Y-87157399D01*
X140344502Y-87193561D01*
X140665789Y-87198754D01*
X140779500Y-87194674D01*
X141211565Y-87153958D01*
X141588977Y-87070045D01*
X141921264Y-86936413D01*
X142217956Y-86746537D01*
X142488581Y-86493895D01*
X142742670Y-86171963D01*
X142989751Y-85774218D01*
X143070944Y-85626020D01*
X143181893Y-85428126D01*
X143295899Y-85241919D01*
X143398939Y-85089375D01*
X143471695Y-84997975D01*
X143566489Y-84904661D01*
X143647787Y-84856342D01*
X143751188Y-84838372D01*
X143865381Y-84836000D01*
X144077892Y-84855574D01*
X144245451Y-84910277D01*
X144352561Y-84994084D01*
X144374909Y-85034144D01*
X144387716Y-85102008D01*
X144403102Y-85236708D01*
X144419368Y-85420522D01*
X144434816Y-85635727D01*
X144438959Y-85702459D01*
X144478830Y-86126358D01*
X144545919Y-86479924D01*
X144644521Y-86774327D01*
X144778933Y-87020740D01*
X144953451Y-87230332D01*
X145065550Y-87331863D01*
X145363714Y-87527882D01*
X145710440Y-87670967D01*
X146085678Y-87757790D01*
X146469376Y-87785022D01*
X146841483Y-87749334D01*
X147118707Y-87672736D01*
X147372952Y-87542374D01*
X147602239Y-87358878D01*
X147784263Y-87142596D01*
X147869313Y-86987989D01*
X147916296Y-86856387D01*
X147971186Y-86668068D01*
X148026702Y-86449609D01*
X148069685Y-86256493D01*
X148160576Y-85867985D01*
X148261223Y-85545868D01*
X148378203Y-85271923D01*
X148507090Y-85044929D01*
X148646968Y-84861004D01*
X148786520Y-84752282D01*
X148937596Y-84710181D01*
X148970870Y-84709000D01*
X149152152Y-84735097D01*
X149326054Y-84816911D01*
X149497696Y-84959723D01*
X149672194Y-85168818D01*
X149854664Y-85449478D01*
X150050224Y-85806986D01*
X150067889Y-85841630D01*
X150262884Y-86203214D01*
X150444507Y-86490285D01*
X150618841Y-86710728D01*
X150791970Y-86872431D01*
X150934735Y-86965358D01*
X151140653Y-87034843D01*
X151406076Y-87060581D01*
X151719651Y-87045160D01*
X152070020Y-86991171D01*
X152445831Y-86901204D01*
X152835727Y-86777847D01*
X153228353Y-86623692D01*
X153612355Y-86441327D01*
X153876367Y-86294459D01*
X154422014Y-85929473D01*
X154968620Y-85484212D01*
X155511906Y-84962906D01*
X156047590Y-84369786D01*
X156571390Y-83709080D01*
X156771113Y-83434581D01*
X157316517Y-82634833D01*
X157788847Y-81873517D01*
X158187885Y-81151064D01*
X158513416Y-80467904D01*
X158765222Y-79824470D01*
X158943086Y-79221192D01*
X158984394Y-79036480D01*
X159050123Y-78653345D01*
X159104588Y-78207987D01*
X159147615Y-77714745D01*
X159179033Y-77187956D01*
X159198669Y-76641956D01*
X159206350Y-76091083D01*
X159201903Y-75549674D01*
X159185157Y-75032066D01*
X159155939Y-74552597D01*
X159114076Y-74125602D01*
X159059395Y-73765421D01*
X159048491Y-73710308D01*
X158944781Y-73324126D01*
X158806471Y-72990126D01*
X158638701Y-72712915D01*
X158446610Y-72497097D01*
X158235336Y-72347278D01*
X158010019Y-72268065D01*
X157775798Y-72264062D01*
X157537811Y-72339876D01*
X157525972Y-72345811D01*
X157355626Y-72456382D01*
X157211404Y-72605578D01*
X157088394Y-72802834D01*
X156981682Y-73057583D01*
X156886356Y-73379260D01*
X156808210Y-73724089D01*
X156709827Y-74146147D01*
X156602088Y-74487902D01*
X156482460Y-74753442D01*
X156348405Y-74946853D01*
X156197388Y-75072225D01*
X156026873Y-75133645D01*
X155928888Y-75141667D01*
X155784432Y-75119346D01*
X155627254Y-75048301D01*
X155448067Y-74922407D01*
X155237582Y-74735537D01*
X155088167Y-74587269D01*
X154823415Y-74334735D01*
X154548757Y-74105771D01*
X154275846Y-73907857D01*
X154016337Y-73748473D01*
X153781884Y-73635100D01*
X153584142Y-73575218D01*
X153499741Y-73567702D01*
X153261687Y-73612178D01*
X153041297Y-73735194D01*
X152845923Y-73931254D01*
X152696074Y-74168508D01*
X152654392Y-74273445D01*
X152602049Y-74439503D01*
X152545398Y-74644864D01*
X152490792Y-74867709D01*
X152484764Y-74894208D01*
X152381730Y-75291475D01*
X152264967Y-75635317D01*
X152138593Y-75915057D01*
X152016765Y-76107413D01*
X151863902Y-76254501D01*
X151681215Y-76356366D01*
X151489531Y-76407047D01*
X151309680Y-76400583D01*
X151182394Y-76346215D01*
X151092073Y-76258181D01*
X150993024Y-76111677D01*
X150881300Y-75899719D01*
X150752954Y-75615324D01*
X150705083Y-75501500D01*
X150541127Y-75126579D01*
X150387748Y-74827137D01*
X150236624Y-74596126D01*
X150079435Y-74426492D01*
X149907863Y-74311187D01*
X149713588Y-74243158D01*
X149488289Y-74215355D01*
X149223647Y-74220726D01*
X149196171Y-74222705D01*
X148926906Y-74264537D01*
X148695168Y-74350924D01*
X148493717Y-74489100D01*
X148315316Y-74686300D01*
X148152727Y-74949757D01*
X147998712Y-75286706D01*
X147916655Y-75501500D01*
X147767166Y-75893423D01*
X147630750Y-76206274D01*
X147504866Y-76444192D01*
X147386970Y-76611321D01*
X147274520Y-76711799D01*
X147164972Y-76749770D01*
X147149786Y-76750334D01*
X147088593Y-76743741D01*
X147032437Y-76717507D01*
X146974339Y-76661943D01*
X146907318Y-76567362D01*
X146824394Y-76424077D01*
X146718586Y-76222402D01*
X146600704Y-75988334D01*
X146408381Y-75619623D01*
X146231979Y-75321263D01*
X146062556Y-75082671D01*
X145891170Y-74893263D01*
X145708883Y-74742456D01*
X145506752Y-74619666D01*
X145400737Y-74567882D01*
X145097744Y-74461975D01*
X144818214Y-74430885D01*
X144568648Y-74475274D01*
X144552218Y-74481321D01*
X144393441Y-74558945D01*
X144243997Y-74670965D01*
X144097156Y-74825935D01*
X143946189Y-75032407D01*
X143784367Y-75298934D01*
X143604959Y-75634068D01*
X143533025Y-75776667D01*
X143354480Y-76113549D01*
X143190028Y-76374748D01*
X143033356Y-76566755D01*
X142878153Y-76696057D01*
X142718106Y-76769144D01*
X142546903Y-76792504D01*
X142544815Y-76792509D01*
X142324865Y-76755026D01*
X142102248Y-76652585D01*
X141900480Y-76500742D01*
X141743073Y-76315055D01*
X141695902Y-76230832D01*
X141661976Y-76153802D01*
X141632287Y-76069654D01*
X141603925Y-75965223D01*
X141573982Y-75827346D01*
X141539546Y-75642856D01*
X141497710Y-75398589D01*
X141455955Y-75145151D01*
X141389702Y-74829777D01*
X141299031Y-74582210D01*
X141172474Y-74386587D01*
X140998567Y-74227043D01*
X140765844Y-74087716D01*
X140652500Y-74033540D01*
X140418514Y-73960499D01*
X140160434Y-73933726D01*
X139908763Y-73953355D01*
X139694001Y-74019521D01*
X139674736Y-74029226D01*
X139504430Y-74147580D01*
X139322550Y-74320693D01*
X139149990Y-74525132D01*
X139007645Y-74737462D01*
X138956401Y-74834849D01*
X138814781Y-75104288D01*
X138673196Y-75314860D01*
X138538532Y-75457084D01*
X138472440Y-75501445D01*
X138268063Y-75567204D01*
X138072391Y-75551253D01*
X137887841Y-75456315D01*
X137716831Y-75285111D01*
X137561778Y-75040365D01*
X137425097Y-74724798D01*
X137309207Y-74341135D01*
X137262762Y-74138801D01*
X137153769Y-73716083D01*
X137018937Y-73371923D01*
X136855906Y-73103532D01*
X136662314Y-72908121D01*
X136435799Y-72782901D01*
X136173999Y-72725082D01*
X136061545Y-72720200D01*
X135780256Y-72761511D01*
X135513110Y-72882719D01*
X135263515Y-73079737D01*
X135034879Y-73348480D01*
X134830611Y-73684862D01*
X134654118Y-74084795D01*
X134508808Y-74544194D01*
X134494715Y-74598815D01*
X134428835Y-74868454D01*
X134376398Y-75108561D01*
X134335928Y-75334334D01*
X134305951Y-75560972D01*
X134284994Y-75803675D01*
X134271581Y-76077641D01*
X134264239Y-76398068D01*
X134261494Y-76780157D01*
X134261389Y-77004334D01*
X126949076Y-77004334D01*
X127183841Y-76943078D01*
X127406963Y-76870794D01*
X127853905Y-76666495D01*
X128283945Y-76386893D01*
X128687580Y-76041029D01*
X129055308Y-75637943D01*
X129377624Y-75186676D01*
X129604946Y-74779791D01*
X129722487Y-74527739D01*
X129835238Y-74256129D01*
X129946121Y-73955722D01*
X130058058Y-73617279D01*
X130173969Y-73231562D01*
X130296778Y-72789330D01*
X130429405Y-72281345D01*
X130558847Y-71763285D01*
X130769204Y-70923969D01*
X130970058Y-70159953D01*
X131164711Y-69462846D01*
X131311758Y-68973135D01*
X136278701Y-68973135D01*
X136302050Y-69270848D01*
X136357538Y-69544554D01*
X136451028Y-69823333D01*
X136585765Y-70130747D01*
X136733829Y-70425905D01*
X136877602Y-70669015D01*
X137036708Y-70889247D01*
X137230773Y-71115770D01*
X137295974Y-71186356D01*
X137634988Y-71501764D01*
X138002386Y-71757909D01*
X138385586Y-71947928D01*
X138772003Y-72064956D01*
X138959167Y-72093621D01*
X139145340Y-72106817D01*
X139403100Y-72116874D01*
X139719422Y-72123792D01*
X140081284Y-72127573D01*
X140475664Y-72128220D01*
X140889538Y-72125733D01*
X141309884Y-72120114D01*
X141723678Y-72111363D01*
X142117900Y-72099484D01*
X142282334Y-72093245D01*
X142799803Y-72069857D01*
X143259597Y-72044270D01*
X143656561Y-72016895D01*
X143985541Y-71988142D01*
X144241380Y-71958420D01*
X144418923Y-71928139D01*
X144448826Y-71920960D01*
X144588809Y-71855633D01*
X144713340Y-71750913D01*
X144718452Y-71744961D01*
X144785472Y-71636579D01*
X144817857Y-71506514D01*
X144813512Y-71349181D01*
X144775720Y-71182695D01*
X147078544Y-71182695D01*
X147086829Y-71353943D01*
X147151103Y-71502258D01*
X147274997Y-71629006D01*
X147462139Y-71735551D01*
X147716159Y-71823258D01*
X148040688Y-71893490D01*
X148439353Y-71947613D01*
X148915785Y-71986992D01*
X149266303Y-72005218D01*
X149581411Y-72016660D01*
X149931755Y-72026116D01*
X150306062Y-72033567D01*
X150693059Y-72038993D01*
X151081473Y-72042374D01*
X151460032Y-72043690D01*
X151817462Y-72042921D01*
X152142491Y-72040048D01*
X152423846Y-72035050D01*
X152650254Y-72027909D01*
X152810443Y-72018602D01*
X152872568Y-72011574D01*
X153043939Y-71973283D01*
X153243065Y-71914171D01*
X153389893Y-71861250D01*
X153904066Y-71613885D01*
X154357144Y-71307953D01*
X154748444Y-70944208D01*
X155077285Y-70523403D01*
X155342984Y-70046289D01*
X155544860Y-69513619D01*
X155558124Y-69469000D01*
X155592322Y-69331759D01*
X155615449Y-69183330D01*
X155629169Y-69004136D01*
X155635149Y-68774600D01*
X155635560Y-68558834D01*
X155633131Y-68303542D01*
X155626742Y-68112077D01*
X155613850Y-67963609D01*
X155591909Y-67837311D01*
X155558377Y-67712353D01*
X155516646Y-67585167D01*
X155299857Y-67063125D01*
X155026596Y-66590988D01*
X154702112Y-66175220D01*
X154331658Y-65822283D01*
X153920481Y-65538640D01*
X153801810Y-65474080D01*
X153422709Y-65297400D01*
X153064370Y-65171076D01*
X152722088Y-65097357D01*
X152391156Y-65078490D01*
X152066869Y-65116725D01*
X151744520Y-65214309D01*
X151419403Y-65373490D01*
X151086814Y-65596516D01*
X150742044Y-65885636D01*
X150380390Y-66243097D01*
X149997143Y-66671148D01*
X149587600Y-67172037D01*
X149205476Y-67669834D01*
X148883041Y-68108441D01*
X148573771Y-68545598D01*
X148281916Y-68974288D01*
X148011724Y-69387491D01*
X147767447Y-69778188D01*
X147553333Y-70139360D01*
X147373633Y-70463989D01*
X147232595Y-70745057D01*
X147134470Y-70975543D01*
X147083507Y-71148430D01*
X147078544Y-71182695D01*
X144775720Y-71182695D01*
X144770340Y-71158998D01*
X144686246Y-70930382D01*
X144559135Y-70657750D01*
X144386910Y-70335519D01*
X144167478Y-69958107D01*
X143898741Y-69519931D01*
X143860184Y-69458388D01*
X143401318Y-68746182D01*
X142964240Y-68107018D01*
X142543547Y-67533757D01*
X142133837Y-67019257D01*
X141729709Y-66556380D01*
X141415313Y-66227007D01*
X141106347Y-65927763D01*
X140833820Y-65691780D01*
X140586006Y-65512688D01*
X140351178Y-65384117D01*
X140117610Y-65299697D01*
X139873574Y-65253059D01*
X139607345Y-65237833D01*
X139594167Y-65237784D01*
X139135153Y-65266056D01*
X138714325Y-65356176D01*
X138306694Y-65513622D01*
X138281834Y-65525463D01*
X137827467Y-65790461D01*
X137418684Y-66123930D01*
X137060434Y-66520059D01*
X136757667Y-66973042D01*
X136515331Y-67477068D01*
X136436652Y-67691000D01*
X136374892Y-67885639D01*
X136333170Y-68054208D01*
X136306559Y-68226305D01*
X136290132Y-68431529D01*
X136281628Y-68622334D01*
X136278701Y-68973135D01*
X131311758Y-68973135D01*
X131356463Y-68824255D01*
X131548617Y-68235786D01*
X131744472Y-67689049D01*
X131947330Y-67175651D01*
X132160493Y-66687199D01*
X132387262Y-66215300D01*
X132630937Y-65751563D01*
X132894821Y-65287595D01*
X133182214Y-64815004D01*
X133466831Y-64370567D01*
X134168162Y-63365124D01*
X134908428Y-62434832D01*
X135687785Y-61579577D01*
X136506390Y-60799248D01*
X137364398Y-60093730D01*
X138261968Y-59462910D01*
X139199254Y-58906676D01*
X140176414Y-58424913D01*
X141193603Y-58017510D01*
X142250979Y-57684352D01*
X142954601Y-57508751D01*
X143873871Y-57344824D01*
X144812409Y-57260732D01*
X145764763Y-57255335D01*
X146725480Y-57327489D01*
D10*
X142200000Y-68580000D02*
G75*
G03*
X142200000Y-68580000I-2500000J0D01*
G01*
X141245000Y-66020000D02*
X138155000Y-66020000D01*
X139700462Y-71570000D02*
G75*
G02*
X138155170Y-66020000I-462J2990000D01*
G01*
X139699538Y-71570000D02*
G75*
G03*
X141244830Y-66020000I462J2990000D01*
G01*
D12*
X156812380Y-69318095D02*
X155812380Y-69318095D01*
X155812380Y-69080000D01*
X155860000Y-68937142D01*
X155955238Y-68841904D01*
X156050476Y-68794285D01*
X156240952Y-68746666D01*
X156383809Y-68746666D01*
X156574285Y-68794285D01*
X156669523Y-68841904D01*
X156764761Y-68937142D01*
X156812380Y-69080000D01*
X156812380Y-69318095D01*
X155907619Y-68365714D02*
X155860000Y-68318095D01*
X155812380Y-68222857D01*
X155812380Y-67984761D01*
X155860000Y-67889523D01*
X155907619Y-67841904D01*
X156002857Y-67794285D01*
X156098095Y-67794285D01*
X156240952Y-67841904D01*
X156812380Y-68413333D01*
X156812380Y-67794285D01*
X144112380Y-69318095D02*
X143112380Y-69318095D01*
X143112380Y-69080000D01*
X143160000Y-68937142D01*
X143255238Y-68841904D01*
X143350476Y-68794285D01*
X143540952Y-68746666D01*
X143683809Y-68746666D01*
X143874285Y-68794285D01*
X143969523Y-68841904D01*
X144064761Y-68937142D01*
X144112380Y-69080000D01*
X144112380Y-69318095D01*
X143112380Y-68413333D02*
X143112380Y-67794285D01*
X143493333Y-68127619D01*
X143493333Y-67984761D01*
X143540952Y-67889523D01*
X143588571Y-67841904D01*
X143683809Y-67794285D01*
X143921904Y-67794285D01*
X144017142Y-67841904D01*
X144064761Y-67889523D01*
X144112380Y-67984761D01*
X144112380Y-68270476D01*
X144064761Y-68365714D01*
X144017142Y-68413333D01*
M02*
