G04 #@! TF.GenerationSoftware,KiCad,Pcbnew,(5.1.9)-1*
G04 #@! TF.CreationDate,2021-04-10T08:26:10+02:00*
G04 #@! TF.ProjectId,NE555V2,4e453535-3556-4322-9e6b-696361645f70,rev?*
G04 #@! TF.SameCoordinates,Original*
G04 #@! TF.FileFunction,Profile,NP*
%FSLAX46Y46*%
G04 Gerber Fmt 4.6, Leading zero omitted, Abs format (unit mm)*
G04 Created by KiCad (PCBNEW (5.1.9)-1) date 2021-04-10 08:26:10*
%MOMM*%
%LPD*%
G01*
G04 APERTURE LIST*
G04 #@! TA.AperFunction,Profile*
%ADD10C,0.100000*%
G04 #@! TD*
G04 APERTURE END LIST*
D10*
X145532072Y-56711786D02*
X144625614Y-56736246D01*
X144625614Y-56736246D02*
X143731821Y-56812946D01*
X143731821Y-56812946D02*
X142861568Y-56941920D01*
X142861568Y-56941920D02*
X142025732Y-57123195D01*
X142025732Y-57123195D02*
X141607248Y-57239810D01*
X141607248Y-57239810D02*
X141187359Y-57376695D01*
X141187359Y-57376695D02*
X140766694Y-57533234D01*
X140766694Y-57533234D02*
X140345882Y-57708813D01*
X140345882Y-57708813D02*
X139925551Y-57902817D01*
X139925551Y-57902817D02*
X139506330Y-58114629D01*
X139506330Y-58114629D02*
X139088849Y-58343635D01*
X139088849Y-58343635D02*
X138673735Y-58589219D01*
X138673735Y-58589219D02*
X137853126Y-59127660D01*
X137853126Y-59127660D02*
X137049534Y-59725031D01*
X137049534Y-59725031D02*
X136267989Y-60376408D01*
X136267989Y-60376408D02*
X135513522Y-61076870D01*
X135513522Y-61076870D02*
X134791163Y-61821494D01*
X134791163Y-61821494D02*
X134105942Y-62605357D01*
X134105942Y-62605357D02*
X133462890Y-63423536D01*
X133462890Y-63423536D02*
X132867037Y-64271110D01*
X132867037Y-64271110D02*
X132323413Y-65143156D01*
X132323413Y-65143156D02*
X132072759Y-65586817D01*
X132072759Y-65586817D02*
X131837049Y-66034750D01*
X131837049Y-66034750D02*
X131616912Y-66486341D01*
X131616912Y-66486341D02*
X131412975Y-66940972D01*
X131412975Y-66940972D02*
X131225869Y-67398030D01*
X131225869Y-67398030D02*
X131056222Y-67856898D01*
X131056222Y-67856898D02*
X130864533Y-68451919D01*
X130864533Y-68451919D02*
X130618031Y-69284399D01*
X130618031Y-69284399D02*
X130087702Y-71220354D01*
X130087702Y-71220354D02*
X129630706Y-72970768D01*
X129630706Y-72970768D02*
X129360286Y-73931347D01*
X129360286Y-73931347D02*
X129262086Y-74220695D01*
X129262086Y-74220695D02*
X129170976Y-74438882D01*
X129170976Y-74438882D02*
X128957289Y-74830164D01*
X128957289Y-74830164D02*
X128812624Y-75060856D01*
X128812624Y-75060856D02*
X128658035Y-75275424D01*
X128658035Y-75275424D02*
X128492607Y-75474330D01*
X128492607Y-75474330D02*
X128315422Y-75658034D01*
X128315422Y-75658034D02*
X128125561Y-75826995D01*
X128125561Y-75826995D02*
X127922109Y-75981676D01*
X127922109Y-75981676D02*
X127704146Y-76122535D01*
X127704146Y-76122535D02*
X127470756Y-76250034D01*
X127470756Y-76250034D02*
X127221022Y-76364633D01*
X127221022Y-76364633D02*
X126954026Y-76466792D01*
X126954026Y-76466792D02*
X126668850Y-76556972D01*
X126668850Y-76556972D02*
X126364577Y-76635632D01*
X126364577Y-76635632D02*
X125695072Y-76760239D01*
X125695072Y-76760239D02*
X124938169Y-76844299D01*
X124938169Y-76844299D02*
X124048654Y-76901349D01*
X124048654Y-76901349D02*
X123673823Y-76900602D01*
X123673823Y-76900602D02*
X123284195Y-76874292D01*
X123284195Y-76874292D02*
X122833711Y-76817882D01*
X122833711Y-76817882D02*
X122276311Y-76726832D01*
X122276311Y-76726832D02*
X120656519Y-76422678D01*
X120656519Y-76422678D02*
X119802603Y-76265967D01*
X119802603Y-76265967D02*
X118965261Y-76127024D01*
X118965261Y-76127024D02*
X117418683Y-75911733D01*
X117418683Y-75911733D02*
X116748638Y-75840033D01*
X116748638Y-75840033D02*
X116173550Y-75795393D01*
X116173550Y-75795393D02*
X115713015Y-75780133D01*
X115713015Y-75780133D02*
X115386629Y-75796583D01*
X115386629Y-75796583D02*
X115078792Y-75850733D01*
X115078792Y-75850733D02*
X114776321Y-75931663D01*
X114776321Y-75931663D02*
X114480202Y-76038879D01*
X114480202Y-76038879D02*
X114191416Y-76171876D01*
X114191416Y-76171876D02*
X113910950Y-76330152D01*
X113910950Y-76330152D02*
X113639785Y-76513205D01*
X113639785Y-76513205D02*
X113378907Y-76720534D01*
X113378907Y-76720534D02*
X113129299Y-76951636D01*
X113129299Y-76951636D02*
X112792293Y-77323872D01*
X112792293Y-77323872D02*
X112489386Y-77740819D01*
X112489386Y-77740819D02*
X112214323Y-78217669D01*
X112214323Y-78217669D02*
X111960850Y-78769614D01*
X111960850Y-78769614D02*
X111722711Y-79411847D01*
X111722711Y-79411847D02*
X111493652Y-80159558D01*
X111493652Y-80159558D02*
X111267416Y-81027941D01*
X111267416Y-81027941D02*
X111037749Y-82032188D01*
X111037749Y-82032188D02*
X110619850Y-83912064D01*
X110619850Y-83912064D02*
X110204719Y-85711330D01*
X110204719Y-85711330D02*
X109772188Y-87594331D01*
X109772188Y-87594331D02*
X109312559Y-89675540D01*
X109312559Y-89675540D02*
X108524219Y-93219538D01*
X108524219Y-93219538D02*
X108367598Y-93910217D01*
X108367598Y-93910217D02*
X108251092Y-94482397D01*
X108251092Y-94482397D02*
X108173622Y-94954239D01*
X108173622Y-94954239D02*
X108134112Y-95343903D01*
X108134112Y-95343903D02*
X108131512Y-95669549D01*
X108131512Y-95669549D02*
X108164702Y-95949337D01*
X108164702Y-95949337D02*
X108232622Y-96201427D01*
X108232622Y-96201427D02*
X108334193Y-96443978D01*
X108334193Y-96443978D02*
X108484999Y-96706900D01*
X108484999Y-96706900D02*
X108670436Y-96941576D01*
X108670436Y-96941576D02*
X108894426Y-97152251D01*
X108894426Y-97152251D02*
X109160893Y-97343176D01*
X109160893Y-97343176D02*
X109707577Y-97647142D01*
X109707577Y-97647142D02*
X110417040Y-97989473D01*
X110417040Y-97989473D02*
X111134908Y-98299618D01*
X111134908Y-98299618D02*
X111706803Y-98507029D01*
X111706803Y-98507029D02*
X112011265Y-98615223D01*
X112011265Y-98615223D02*
X112434241Y-98789478D01*
X112434241Y-98789478D02*
X113462488Y-99254416D01*
X113462488Y-99254416D02*
X114445045Y-99738334D01*
X114445045Y-99738334D02*
X114810908Y-99936313D01*
X114810908Y-99936313D02*
X115035413Y-100077721D01*
X115035413Y-100077721D02*
X115216499Y-100236199D01*
X115216499Y-100236199D02*
X115351761Y-100406006D01*
X115351761Y-100406006D02*
X115442141Y-100596162D01*
X115442141Y-100596162D02*
X115488571Y-100815687D01*
X115488571Y-100815687D02*
X115491971Y-101073600D01*
X115491971Y-101073600D02*
X115453331Y-101378921D01*
X115453331Y-101378921D02*
X115373561Y-101740672D01*
X115373561Y-101740672D02*
X115253599Y-102167870D01*
X115253599Y-102167870D02*
X115109714Y-102668229D01*
X115109714Y-102668229D02*
X114999360Y-103109498D01*
X114999360Y-103109498D02*
X114921650Y-103501490D01*
X114921650Y-103501490D02*
X114875700Y-103854017D01*
X114875700Y-103854017D02*
X114860620Y-104176891D01*
X114860620Y-104176891D02*
X114875530Y-104479924D01*
X114875530Y-104479924D02*
X114919540Y-104772927D01*
X114919540Y-104772927D02*
X114991760Y-105065713D01*
X114991760Y-105065713D02*
X115075730Y-105320218D01*
X115075730Y-105320218D02*
X115175898Y-105559891D01*
X115175898Y-105559891D02*
X115293285Y-105785444D01*
X115293285Y-105785444D02*
X115428912Y-105997588D01*
X115428912Y-105997588D02*
X115583799Y-106197036D01*
X115583799Y-106197036D02*
X115758969Y-106384500D01*
X115758969Y-106384500D02*
X115955440Y-106560691D01*
X115955440Y-106560691D02*
X116174235Y-106726321D01*
X116174235Y-106726321D02*
X116416374Y-106882103D01*
X116416374Y-106882103D02*
X116682878Y-107028748D01*
X116682878Y-107028748D02*
X116974769Y-107166969D01*
X116974769Y-107166969D02*
X117293066Y-107297476D01*
X117293066Y-107297476D02*
X117638790Y-107420983D01*
X117638790Y-107420983D02*
X118012964Y-107538201D01*
X118012964Y-107538201D02*
X118850740Y-107756617D01*
X118850740Y-107756617D02*
X119444895Y-107908013D01*
X119444895Y-107908013D02*
X119974114Y-108071654D01*
X119974114Y-108071654D02*
X120442893Y-108249926D01*
X120442893Y-108249926D02*
X120855728Y-108445210D01*
X120855728Y-108445210D02*
X121217113Y-108659891D01*
X121217113Y-108659891D02*
X121531545Y-108896353D01*
X121531545Y-108896353D02*
X121803519Y-109156979D01*
X121803519Y-109156979D02*
X122037530Y-109444153D01*
X122037530Y-109444153D02*
X122187931Y-109666247D01*
X122187931Y-109666247D02*
X122301447Y-109872659D01*
X122301447Y-109872659D02*
X122380387Y-110081510D01*
X122380387Y-110081510D02*
X122427067Y-110310917D01*
X122427067Y-110310917D02*
X122443797Y-110579000D01*
X122443797Y-110579000D02*
X122432887Y-110903878D01*
X122432887Y-110903878D02*
X122337377Y-111796494D01*
X122337377Y-111796494D02*
X122315437Y-112045545D01*
X122315437Y-112045545D02*
X122313737Y-112290951D01*
X122313737Y-112290951D02*
X122331927Y-112532124D01*
X122331927Y-112532124D02*
X122369667Y-112768476D01*
X122369667Y-112768476D02*
X122426607Y-112999417D01*
X122426607Y-112999417D02*
X122502407Y-113224359D01*
X122502407Y-113224359D02*
X122596717Y-113442712D01*
X122596717Y-113442712D02*
X122709196Y-113653888D01*
X122709196Y-113653888D02*
X122839497Y-113857297D01*
X122839497Y-113857297D02*
X122987276Y-114052352D01*
X122987276Y-114052352D02*
X123152188Y-114238463D01*
X123152188Y-114238463D02*
X123333887Y-114415041D01*
X123333887Y-114415041D02*
X123532029Y-114581497D01*
X123532029Y-114581497D02*
X123746267Y-114737243D01*
X123746267Y-114737243D02*
X123976258Y-114881690D01*
X123976258Y-114881690D02*
X124221656Y-115014248D01*
X124221656Y-115014248D02*
X124585847Y-115177086D01*
X124585847Y-115177086D02*
X124939266Y-115293937D01*
X124939266Y-115293937D02*
X125288893Y-115364837D01*
X125288893Y-115364837D02*
X125641705Y-115389807D01*
X125641705Y-115389807D02*
X126004681Y-115368887D01*
X126004681Y-115368887D02*
X126384799Y-115302117D01*
X126384799Y-115302117D02*
X126789038Y-115189517D01*
X126789038Y-115189517D02*
X127224376Y-115031124D01*
X127224376Y-115031124D02*
X127945702Y-114768775D01*
X127945702Y-114768775D02*
X128280892Y-114668006D01*
X128280892Y-114668006D02*
X128600284Y-114587566D01*
X128600284Y-114587566D02*
X128904767Y-114527486D01*
X128904767Y-114527486D02*
X129195232Y-114487816D01*
X129195232Y-114487816D02*
X129472565Y-114468586D01*
X129472565Y-114468586D02*
X129737656Y-114469886D01*
X129737656Y-114469886D02*
X129991394Y-114491666D01*
X129991394Y-114491666D02*
X130234668Y-114534016D01*
X130234668Y-114534016D02*
X130468366Y-114596976D01*
X130468366Y-114596976D02*
X130693378Y-114680576D01*
X130693378Y-114680576D02*
X130910592Y-114784867D01*
X130910592Y-114784867D02*
X131120897Y-114909886D01*
X131120897Y-114909886D02*
X131325182Y-115055674D01*
X131325182Y-115055674D02*
X131524336Y-115222270D01*
X131524336Y-115222270D02*
X131793791Y-115477935D01*
X131793791Y-115477935D02*
X131991754Y-115712202D01*
X131991754Y-115712202D02*
X132064814Y-115829648D01*
X132064814Y-115829648D02*
X132121074Y-115951749D01*
X132121074Y-115951749D02*
X132160884Y-116081838D01*
X132160884Y-116081838D02*
X132184594Y-116223250D01*
X132184594Y-116223250D02*
X132192594Y-116379321D01*
X132192594Y-116379321D02*
X132185194Y-116553384D01*
X132185194Y-116553384D02*
X132125644Y-116968827D01*
X132125644Y-116968827D02*
X132008832Y-117496256D01*
X132008832Y-117496256D02*
X131837602Y-118162347D01*
X131837602Y-118162347D02*
X131670719Y-118812425D01*
X131670719Y-118812425D02*
X131548005Y-119348720D01*
X131548005Y-119348720D02*
X131468525Y-119790459D01*
X131468525Y-119790459D02*
X131431325Y-120156869D01*
X131431325Y-120156869D02*
X131435525Y-120467177D01*
X131435525Y-120467177D02*
X131480085Y-120740609D01*
X131480085Y-120740609D02*
X131564115Y-120996393D01*
X131564115Y-120996393D02*
X131686671Y-121253755D01*
X131686671Y-121253755D02*
X131849104Y-121532399D01*
X131849104Y-121532399D02*
X132027311Y-121787696D01*
X132027311Y-121787696D02*
X132225580Y-122023533D01*
X132225580Y-122023533D02*
X132448205Y-122243797D01*
X132448205Y-122243797D02*
X132699475Y-122452376D01*
X132699475Y-122452376D02*
X132983682Y-122653156D01*
X132983682Y-122653156D02*
X133305117Y-122850025D01*
X133305117Y-122850025D02*
X133668071Y-123046870D01*
X133668071Y-123046870D02*
X134182592Y-123292056D01*
X134182592Y-123292056D02*
X134736204Y-123517903D01*
X134736204Y-123517903D02*
X135331719Y-123725179D01*
X135331719Y-123725179D02*
X135971945Y-123914653D01*
X135971945Y-123914653D02*
X136659692Y-124087091D01*
X136659692Y-124087091D02*
X137397771Y-124243261D01*
X137397771Y-124243261D02*
X138188991Y-124383931D01*
X138188991Y-124383931D02*
X139036161Y-124509869D01*
X139036161Y-124509869D02*
X140034431Y-124633404D01*
X140034431Y-124633404D02*
X140486811Y-124670854D01*
X140486811Y-124670854D02*
X140986051Y-124694604D01*
X140986051Y-124694604D02*
X142359209Y-124708574D01*
X142359209Y-124708574D02*
X144622091Y-124690404D01*
X144622091Y-124690404D02*
X146532991Y-124661624D01*
X146532991Y-124661624D02*
X147865485Y-124613084D01*
X147865485Y-124613084D02*
X148852579Y-124531764D01*
X148852579Y-124531764D02*
X149727281Y-124404640D01*
X149727281Y-124404640D02*
X151915602Y-124020793D01*
X151915602Y-124020793D02*
X153267288Y-123754143D01*
X153267288Y-123754143D02*
X153750664Y-123637730D01*
X153750664Y-123637730D02*
X154170404Y-123518171D01*
X154170404Y-123518171D02*
X155013011Y-123226356D01*
X155013011Y-123226356D02*
X155829058Y-122900605D01*
X155829058Y-122900605D02*
X156554063Y-122561166D01*
X156554063Y-122561166D02*
X157188124Y-122207968D01*
X157188124Y-122207968D02*
X157471080Y-122026188D01*
X157471080Y-122026188D02*
X157731336Y-121840942D01*
X157731336Y-121840942D02*
X157968904Y-121652221D01*
X157968904Y-121652221D02*
X158183796Y-121460016D01*
X158183796Y-121460016D02*
X158376024Y-121264319D01*
X158376024Y-121264319D02*
X158545601Y-121065120D01*
X158545601Y-121065120D02*
X158692538Y-120862412D01*
X158692538Y-120862412D02*
X158816847Y-120656185D01*
X158816847Y-120656185D02*
X158918541Y-120446430D01*
X158918541Y-120446430D02*
X158997631Y-120233139D01*
X158997631Y-120233139D02*
X159068811Y-119983180D01*
X159068811Y-119983180D02*
X159111171Y-119744742D01*
X159111171Y-119744742D02*
X159120071Y-119485160D01*
X159120071Y-119485160D02*
X159090871Y-119171770D01*
X159090871Y-119171770D02*
X159018941Y-118771903D01*
X159018941Y-118771903D02*
X158899635Y-118252896D01*
X158899635Y-118252896D02*
X158500358Y-116726797D01*
X158500358Y-116726797D02*
X158341997Y-116109046D01*
X158341997Y-116109046D02*
X158273747Y-115719031D01*
X158273747Y-115719031D02*
X158270647Y-115576062D01*
X158270647Y-115576062D02*
X158286707Y-115449992D01*
X158286707Y-115449992D02*
X158371917Y-115195170D01*
X158371917Y-115195170D02*
X158468397Y-114997351D01*
X158468397Y-114997351D02*
X158588682Y-114808846D01*
X158588682Y-114808846D02*
X158732911Y-114629527D01*
X158732911Y-114629527D02*
X158901222Y-114459267D01*
X158901222Y-114459267D02*
X159093752Y-114297938D01*
X159093752Y-114297938D02*
X159310637Y-114145412D01*
X159310637Y-114145412D02*
X159552014Y-114001562D01*
X159552014Y-114001562D02*
X159818020Y-113866259D01*
X159818020Y-113866259D02*
X160108655Y-113745970D01*
X160108655Y-113745970D02*
X160398188Y-113660550D01*
X160398188Y-113660550D02*
X160690490Y-113610010D01*
X160690490Y-113610010D02*
X160989435Y-113594380D01*
X160989435Y-113594380D02*
X161298895Y-113613680D01*
X161298895Y-113613680D02*
X161622742Y-113667940D01*
X161622742Y-113667940D02*
X161964850Y-113757170D01*
X161964850Y-113757170D02*
X162329090Y-113881403D01*
X162329090Y-113881403D02*
X162815050Y-114041064D01*
X162815050Y-114041064D02*
X163256920Y-114136034D01*
X163256920Y-114136034D02*
X163462608Y-114159004D01*
X163462608Y-114159004D02*
X163658817Y-114165504D01*
X163658817Y-114165504D02*
X163846064Y-114155404D01*
X163846064Y-114155404D02*
X164024861Y-114128614D01*
X164024861Y-114128614D02*
X164195725Y-114085034D01*
X164195725Y-114085034D02*
X164359169Y-114024554D01*
X164359169Y-114024554D02*
X164515709Y-113947074D01*
X164515709Y-113947074D02*
X164665860Y-113852494D01*
X164665860Y-113852494D02*
X164810135Y-113740708D01*
X164810135Y-113740708D02*
X164949051Y-113611612D01*
X164949051Y-113611612D02*
X165212860Y-113301081D01*
X165212860Y-113301081D02*
X165288830Y-113188246D01*
X165288830Y-113188246D02*
X165347930Y-113068681D01*
X165347930Y-113068681D02*
X165392260Y-112925408D01*
X165392260Y-112925408D02*
X165423920Y-112741446D01*
X165423920Y-112741446D02*
X165457640Y-112183545D01*
X165457640Y-112183545D02*
X165465940Y-111259147D01*
X165465940Y-111259147D02*
X165471640Y-110623102D01*
X165471640Y-110623102D02*
X165491350Y-110113782D01*
X165491350Y-110113782D02*
X165531390Y-109709134D01*
X165531390Y-109709134D02*
X165598050Y-109387105D01*
X165598050Y-109387105D02*
X165697630Y-109125643D01*
X165697630Y-109125643D02*
X165836414Y-108902695D01*
X165836414Y-108902695D02*
X166020700Y-108696208D01*
X166020700Y-108696208D02*
X166256780Y-108484130D01*
X166256780Y-108484130D02*
X166466752Y-108318377D01*
X166466752Y-108318377D02*
X166683856Y-108169724D01*
X166683856Y-108169724D02*
X166912935Y-108035981D01*
X166912935Y-108035981D02*
X167158833Y-107914955D01*
X167158833Y-107914955D02*
X167426391Y-107804454D01*
X167426391Y-107804454D02*
X167720453Y-107702289D01*
X167720453Y-107702289D02*
X168407460Y-107514194D01*
X168407460Y-107514194D02*
X169328733Y-107279687D01*
X169328733Y-107279687D02*
X170102961Y-107046235D01*
X170102961Y-107046235D02*
X170747628Y-106803918D01*
X170747628Y-106803918D02*
X171026840Y-106676336D01*
X171026840Y-106676336D02*
X171280219Y-106542819D01*
X171280219Y-106542819D02*
X171509949Y-106402126D01*
X171509949Y-106402126D02*
X171718217Y-106253018D01*
X171718217Y-106253018D02*
X171907208Y-106094256D01*
X171907208Y-106094256D02*
X172079107Y-105924599D01*
X172079107Y-105924599D02*
X172236100Y-105742807D01*
X172236100Y-105742807D02*
X172380373Y-105547641D01*
X172380373Y-105547641D02*
X172514111Y-105337862D01*
X172514111Y-105337862D02*
X172639500Y-105112228D01*
X172639500Y-105112228D02*
X172744272Y-104866236D01*
X172744272Y-104866236D02*
X172820952Y-104590905D01*
X172820952Y-104590905D02*
X172869352Y-104296629D01*
X172869352Y-104296629D02*
X172889272Y-103993803D01*
X172889272Y-103993803D02*
X172880572Y-103692821D01*
X172880572Y-103692821D02*
X172842952Y-103404078D01*
X172842952Y-103404078D02*
X172776272Y-103137967D01*
X172776272Y-103137967D02*
X172680342Y-102904884D01*
X172680342Y-102904884D02*
X172556842Y-102696141D01*
X172556842Y-102696141D02*
X172376136Y-102427496D01*
X172376136Y-102427496D02*
X171940222Y-101849076D01*
X171940222Y-101849076D02*
X171605677Y-101426863D01*
X171605677Y-101426863D02*
X171508577Y-101280950D01*
X171508577Y-101280950D02*
X171452037Y-101159891D01*
X171452037Y-101159891D02*
X171431407Y-101049733D01*
X171431407Y-101049733D02*
X171442017Y-100936518D01*
X171442017Y-100936518D02*
X171538317Y-100645101D01*
X171538317Y-100645101D02*
X171682311Y-100343048D01*
X171682311Y-100343048D02*
X171774481Y-100201073D01*
X171774481Y-100201073D02*
X171881495Y-100064216D01*
X171881495Y-100064216D02*
X172144266Y-99803105D01*
X172144266Y-99803105D02*
X172479031Y-99554211D01*
X172479031Y-99554211D02*
X172894193Y-99312035D01*
X172894193Y-99312035D02*
X173398155Y-99071073D01*
X173398155Y-99071073D02*
X173999319Y-98825826D01*
X173999319Y-98825826D02*
X174706090Y-98570790D01*
X174706090Y-98570790D02*
X175561534Y-98268597D01*
X175561534Y-98268597D02*
X176340285Y-97976186D01*
X176340285Y-97976186D02*
X177036908Y-97696032D01*
X177036908Y-97696032D02*
X177645970Y-97430613D01*
X177645970Y-97430613D02*
X178162036Y-97182405D01*
X178162036Y-97182405D02*
X178579670Y-96953884D01*
X178579670Y-96953884D02*
X178893440Y-96747526D01*
X178893440Y-96747526D02*
X179097910Y-96565808D01*
X179097910Y-96565808D02*
X179324626Y-96282589D01*
X179324626Y-96282589D02*
X179490384Y-96002855D01*
X179490384Y-96002855D02*
X179550794Y-95856380D01*
X179550794Y-95856380D02*
X179596444Y-95701277D01*
X179596444Y-95701277D02*
X179627484Y-95534381D01*
X179627484Y-95534381D02*
X179644064Y-95352526D01*
X179644064Y-95352526D02*
X179634464Y-94931275D01*
X179634464Y-94931275D02*
X179568974Y-94412193D01*
X179568974Y-94412193D02*
X179448816Y-93769953D01*
X179448816Y-93769953D02*
X179275249Y-92979226D01*
X179275249Y-92979226D02*
X178845889Y-90997121D01*
X178845889Y-90997121D02*
X178576541Y-89767638D01*
X178576541Y-89767638D02*
X178262029Y-88414260D01*
X178262029Y-88414260D02*
X177905588Y-86866867D01*
X177905588Y-86866867D02*
X177535279Y-85170815D01*
X177535279Y-85170815D02*
X177043276Y-82953051D01*
X177043276Y-82953051D02*
X176546703Y-80905847D01*
X176546703Y-80905847D02*
X176111095Y-79286788D01*
X176111095Y-79286788D02*
X175936633Y-78718308D01*
X175936633Y-78718308D02*
X175801989Y-78353459D01*
X175801989Y-78353459D02*
X175649083Y-78048682D01*
X175649083Y-78048682D02*
X175439601Y-77684827D01*
X175439601Y-77684827D02*
X175201121Y-77307576D01*
X175201121Y-77307576D02*
X174961219Y-76962606D01*
X174961219Y-76962606D02*
X174648190Y-76566309D01*
X174648190Y-76566309D02*
X174504824Y-76412361D01*
X174504824Y-76412361D02*
X174360721Y-76279865D01*
X174360721Y-76279865D02*
X174208756Y-76162808D01*
X174208756Y-76162808D02*
X174041801Y-76055178D01*
X174041801Y-76055178D02*
X173634419Y-75844153D01*
X173634419Y-75844153D02*
X173273315Y-75695134D01*
X173273315Y-75695134D02*
X172897409Y-75586594D01*
X172897409Y-75586594D02*
X172481784Y-75518094D01*
X172481784Y-75518094D02*
X172001521Y-75489194D01*
X172001521Y-75489194D02*
X171431702Y-75499444D01*
X171431702Y-75499444D02*
X170747407Y-75548414D01*
X170747407Y-75548414D02*
X169923719Y-75635664D01*
X169923719Y-75635664D02*
X168935719Y-75760748D01*
X168935719Y-75760748D02*
X167378444Y-75951648D01*
X167378444Y-75951648D02*
X166808617Y-76009438D01*
X166808617Y-76009438D02*
X166485189Y-76030328D01*
X166485189Y-76030328D02*
X166284444Y-76014738D01*
X166284444Y-76014738D02*
X166064420Y-75970298D01*
X166064420Y-75970298D02*
X165828030Y-75898968D01*
X165828030Y-75898968D02*
X165578192Y-75802698D01*
X165578192Y-75802698D02*
X165317820Y-75683458D01*
X165317820Y-75683458D02*
X165049830Y-75543201D01*
X165049830Y-75543201D02*
X164502662Y-75207478D01*
X164502662Y-75207478D02*
X163960010Y-74811201D01*
X163960010Y-74811201D02*
X163445203Y-74370044D01*
X163445203Y-74370044D02*
X163205529Y-74137533D01*
X163205529Y-74137533D02*
X162981564Y-73899681D01*
X162981564Y-73899681D02*
X162776222Y-73658444D01*
X162776222Y-73658444D02*
X162592419Y-73415784D01*
X162592419Y-73415784D02*
X162347312Y-73059484D01*
X162347312Y-73059484D02*
X162125952Y-72709663D01*
X162125952Y-72709663D02*
X161914589Y-72338000D01*
X161914589Y-72338000D02*
X161699475Y-71916176D01*
X161699475Y-71916176D02*
X161466863Y-71415871D01*
X161466863Y-71415871D02*
X161203003Y-70808765D01*
X161203003Y-70808765D02*
X160526549Y-69160874D01*
X160526549Y-69160874D02*
X160173384Y-68308761D01*
X160173384Y-68308761D02*
X159817284Y-67499695D01*
X159817284Y-67499695D02*
X159456655Y-66731427D01*
X159456655Y-66731427D02*
X159089904Y-66001709D01*
X159089904Y-66001709D02*
X158715437Y-65308293D01*
X158715437Y-65308293D02*
X158331662Y-64648931D01*
X158331662Y-64648931D02*
X157936985Y-64021375D01*
X157936985Y-64021375D02*
X157529813Y-63423377D01*
X157529813Y-63423377D02*
X157108552Y-62852689D01*
X157108552Y-62852689D02*
X156671610Y-62307062D01*
X156671610Y-62307062D02*
X156217393Y-61784249D01*
X156217393Y-61784249D02*
X155744308Y-61282002D01*
X155744308Y-61282002D02*
X155250761Y-60798072D01*
X155250761Y-60798072D02*
X154735159Y-60330212D01*
X154735159Y-60330212D02*
X154195910Y-59876173D01*
X154195910Y-59876173D02*
X153631419Y-59433708D01*
X153631419Y-59433708D02*
X153135354Y-59082174D01*
X153135354Y-59082174D02*
X152577385Y-58728564D01*
X152577385Y-58728564D02*
X151977820Y-58383102D01*
X151977820Y-58383102D02*
X151356965Y-58056014D01*
X151356965Y-58056014D02*
X150735128Y-57757526D01*
X150735128Y-57757526D02*
X150132617Y-57497863D01*
X150132617Y-57497863D02*
X149569738Y-57287252D01*
X149569738Y-57287252D02*
X149066799Y-57135916D01*
X149066799Y-57135916D02*
X148218661Y-56951630D01*
X148218661Y-56951630D02*
X147339608Y-56819505D01*
X147339608Y-56819505D02*
X146440527Y-56739565D01*
X146440527Y-56739565D02*
X145532309Y-56711835D01*
X145532309Y-56711835D02*
X145532329Y-56711843D01*
X145532329Y-56711843D02*
X145532072Y-56711786D01*
M02*
