%TF.GenerationSoftware,KiCad,Pcbnew,(5.1.6)-1*%
%TF.CreationDate,2021-02-21T20:50:40+01:00*%
%TF.ProjectId,RobiV3,526f6269-5633-42e6-9b69-6361645f7063,rev?*%
%TF.SameCoordinates,Original*%
%TF.FileFunction,Legend,Bot*%
%TF.FilePolarity,Positive*%
%FSLAX46Y46*%
G04 Gerber Fmt 4.6, Leading zero omitted, Abs format (unit mm)*
G04 Created by KiCad (PCBNEW (5.1.6)-1) date 2021-02-21 20:50:40*
%MOMM*%
%LPD*%
G01*
G04 APERTURE LIST*
%ADD10C,0.300000*%
%ADD11C,0.500000*%
%ADD12C,0.200000*%
%ADD13C,0.120000*%
%ADD14C,0.150000*%
G04 APERTURE END LIST*
D10*
X119728857Y-92737714D02*
X119800285Y-92809142D01*
X120014571Y-92880571D01*
X120157428Y-92880571D01*
X120371714Y-92809142D01*
X120514571Y-92666285D01*
X120586000Y-92523428D01*
X120657428Y-92237714D01*
X120657428Y-92023428D01*
X120586000Y-91737714D01*
X120514571Y-91594857D01*
X120371714Y-91452000D01*
X120157428Y-91380571D01*
X120014571Y-91380571D01*
X119800285Y-91452000D01*
X119728857Y-91523428D01*
X118228857Y-92880571D02*
X118728857Y-92166285D01*
X119086000Y-92880571D02*
X119086000Y-91380571D01*
X118514571Y-91380571D01*
X118371714Y-91452000D01*
X118300285Y-91523428D01*
X118228857Y-91666285D01*
X118228857Y-91880571D01*
X118300285Y-92023428D01*
X118371714Y-92094857D01*
X118514571Y-92166285D01*
X119086000Y-92166285D01*
X117657428Y-91523428D02*
X117586000Y-91452000D01*
X117443142Y-91380571D01*
X117086000Y-91380571D01*
X116943142Y-91452000D01*
X116871714Y-91523428D01*
X116800285Y-91666285D01*
X116800285Y-91809142D01*
X116871714Y-92023428D01*
X117728857Y-92880571D01*
X116800285Y-92880571D01*
X115871714Y-91380571D02*
X115728857Y-91380571D01*
X115586000Y-91452000D01*
X115514571Y-91523428D01*
X115443142Y-91666285D01*
X115371714Y-91952000D01*
X115371714Y-92309142D01*
X115443142Y-92594857D01*
X115514571Y-92737714D01*
X115586000Y-92809142D01*
X115728857Y-92880571D01*
X115871714Y-92880571D01*
X116014571Y-92809142D01*
X116086000Y-92737714D01*
X116157428Y-92594857D01*
X116228857Y-92309142D01*
X116228857Y-91952000D01*
X116157428Y-91666285D01*
X116086000Y-91523428D01*
X116014571Y-91452000D01*
X115871714Y-91380571D01*
X114871714Y-91380571D02*
X113943142Y-91380571D01*
X114443142Y-91952000D01*
X114228857Y-91952000D01*
X114086000Y-92023428D01*
X114014571Y-92094857D01*
X113943142Y-92237714D01*
X113943142Y-92594857D01*
X114014571Y-92737714D01*
X114086000Y-92809142D01*
X114228857Y-92880571D01*
X114657428Y-92880571D01*
X114800285Y-92809142D01*
X114871714Y-92737714D01*
X113371714Y-91523428D02*
X113300285Y-91452000D01*
X113157428Y-91380571D01*
X112800285Y-91380571D01*
X112657428Y-91452000D01*
X112586000Y-91523428D01*
X112514571Y-91666285D01*
X112514571Y-91809142D01*
X112586000Y-92023428D01*
X113443142Y-92880571D01*
X112514571Y-92880571D01*
X123868000Y-81704571D02*
X123868000Y-80204571D01*
X123010857Y-81704571D02*
X123653714Y-80847428D01*
X123010857Y-80204571D02*
X123868000Y-81061714D01*
X122368000Y-81704571D02*
X122368000Y-80204571D01*
X122368000Y-80918857D02*
X121510857Y-80918857D01*
X121510857Y-81704571D02*
X121510857Y-80204571D01*
X120296571Y-80918857D02*
X120796571Y-80918857D01*
X120796571Y-81704571D02*
X120796571Y-80204571D01*
X120082285Y-80204571D01*
X118439428Y-80347428D02*
X118368000Y-80276000D01*
X118225142Y-80204571D01*
X117868000Y-80204571D01*
X117725142Y-80276000D01*
X117653714Y-80347428D01*
X117582285Y-80490285D01*
X117582285Y-80633142D01*
X117653714Y-80847428D01*
X118510857Y-81704571D01*
X117582285Y-81704571D01*
X116653714Y-80204571D02*
X116510857Y-80204571D01*
X116368000Y-80276000D01*
X116296571Y-80347428D01*
X116225142Y-80490285D01*
X116153714Y-80776000D01*
X116153714Y-81133142D01*
X116225142Y-81418857D01*
X116296571Y-81561714D01*
X116368000Y-81633142D01*
X116510857Y-81704571D01*
X116653714Y-81704571D01*
X116796571Y-81633142D01*
X116868000Y-81561714D01*
X116939428Y-81418857D01*
X117010857Y-81133142D01*
X117010857Y-80776000D01*
X116939428Y-80490285D01*
X116868000Y-80347428D01*
X116796571Y-80276000D01*
X116653714Y-80204571D01*
X115582285Y-80347428D02*
X115510857Y-80276000D01*
X115368000Y-80204571D01*
X115010857Y-80204571D01*
X114868000Y-80276000D01*
X114796571Y-80347428D01*
X114725142Y-80490285D01*
X114725142Y-80633142D01*
X114796571Y-80847428D01*
X115653714Y-81704571D01*
X114725142Y-81704571D01*
X113296571Y-81704571D02*
X114153714Y-81704571D01*
X113725142Y-81704571D02*
X113725142Y-80204571D01*
X113868000Y-80418857D01*
X114010857Y-80561714D01*
X114153714Y-80633142D01*
D11*
X134133714Y-75557142D02*
X133562285Y-77557142D01*
X132990857Y-76128571D01*
X132419428Y-77557142D01*
X131848000Y-75557142D01*
X130990857Y-75557142D02*
X130419428Y-77557142D01*
X129848000Y-76128571D01*
X129276571Y-77557142D01*
X128705142Y-75557142D01*
X127848000Y-75557142D02*
X127276571Y-77557142D01*
X126705142Y-76128571D01*
X126133714Y-77557142D01*
X125562285Y-75557142D01*
X124419428Y-77271428D02*
X124276571Y-77414285D01*
X124419428Y-77557142D01*
X124562285Y-77414285D01*
X124419428Y-77271428D01*
X124419428Y-77557142D01*
X122562285Y-77557142D02*
X122848000Y-77414285D01*
X122990857Y-77271428D01*
X123133714Y-76985714D01*
X123133714Y-76128571D01*
X122990857Y-75842857D01*
X122848000Y-75700000D01*
X122562285Y-75557142D01*
X122133714Y-75557142D01*
X121848000Y-75700000D01*
X121705142Y-75842857D01*
X121562285Y-76128571D01*
X121562285Y-76985714D01*
X121705142Y-77271428D01*
X121848000Y-77414285D01*
X122133714Y-77557142D01*
X122562285Y-77557142D01*
X120276571Y-77557142D02*
X120276571Y-74557142D01*
X120276571Y-75700000D02*
X119990857Y-75557142D01*
X119419428Y-75557142D01*
X119133714Y-75700000D01*
X118990857Y-75842857D01*
X118848000Y-76128571D01*
X118848000Y-76985714D01*
X118990857Y-77271428D01*
X119133714Y-77414285D01*
X119419428Y-77557142D01*
X119990857Y-77557142D01*
X120276571Y-77414285D01*
X116419428Y-77414285D02*
X116705142Y-77557142D01*
X117276571Y-77557142D01*
X117562285Y-77414285D01*
X117705142Y-77128571D01*
X117705142Y-75985714D01*
X117562285Y-75700000D01*
X117276571Y-75557142D01*
X116705142Y-75557142D01*
X116419428Y-75700000D01*
X116276571Y-75985714D01*
X116276571Y-76271428D01*
X117705142Y-76557142D01*
X114990857Y-77557142D02*
X114990857Y-75557142D01*
X114990857Y-76128571D02*
X114848000Y-75842857D01*
X114705142Y-75700000D01*
X114419428Y-75557142D01*
X114133714Y-75557142D01*
X112705142Y-77557142D02*
X112990857Y-77414285D01*
X113133714Y-77128571D01*
X113133714Y-74557142D01*
X110276571Y-77557142D02*
X110276571Y-75985714D01*
X110419428Y-75700000D01*
X110705142Y-75557142D01*
X111276571Y-75557142D01*
X111562285Y-75700000D01*
X110276571Y-77414285D02*
X110562285Y-77557142D01*
X111276571Y-77557142D01*
X111562285Y-77414285D01*
X111705142Y-77128571D01*
X111705142Y-76842857D01*
X111562285Y-76557142D01*
X111276571Y-76414285D01*
X110562285Y-76414285D01*
X110276571Y-76271428D01*
X108848000Y-77557142D02*
X108848000Y-74557142D01*
X108848000Y-75700000D02*
X108562285Y-75557142D01*
X107990857Y-75557142D01*
X107705142Y-75700000D01*
X107562285Y-75842857D01*
X107419428Y-76128571D01*
X107419428Y-76985714D01*
X107562285Y-77271428D01*
X107705142Y-77414285D01*
X107990857Y-77557142D01*
X108562285Y-77557142D01*
X108848000Y-77414285D01*
X106133714Y-77271428D02*
X105990857Y-77414285D01*
X106133714Y-77557142D01*
X106276571Y-77414285D01*
X106133714Y-77271428D01*
X106133714Y-77557142D01*
X103419428Y-77557142D02*
X103419428Y-74557142D01*
X103419428Y-77414285D02*
X103705142Y-77557142D01*
X104276571Y-77557142D01*
X104562285Y-77414285D01*
X104705142Y-77271428D01*
X104848000Y-76985714D01*
X104848000Y-76128571D01*
X104705142Y-75842857D01*
X104562285Y-75700000D01*
X104276571Y-75557142D01*
X103705142Y-75557142D01*
X103419428Y-75700000D01*
X100848000Y-77414285D02*
X101133714Y-77557142D01*
X101705142Y-77557142D01*
X101990857Y-77414285D01*
X102133714Y-77128571D01*
X102133714Y-75985714D01*
X101990857Y-75700000D01*
X101705142Y-75557142D01*
X101133714Y-75557142D01*
X100848000Y-75700000D01*
X100705142Y-75985714D01*
X100705142Y-76271428D01*
X102133714Y-76557142D01*
D12*
X127150857Y-57654000D02*
X127865142Y-57654000D01*
X127008000Y-58082571D02*
X127508000Y-56582571D01*
X128008000Y-58082571D01*
X103020857Y-58670000D02*
X103735142Y-58670000D01*
X102878000Y-59098571D02*
X103378000Y-57598571D01*
X103878000Y-59098571D01*
D13*
%TO.C,S1*%
X124053600Y-119913400D02*
X114096800Y-119913400D01*
X114096800Y-119913400D02*
X114096800Y-123850400D01*
X114096800Y-123850400D02*
X124053600Y-123850400D01*
X124053600Y-123850400D02*
X124079000Y-119913400D01*
%TO.C,U1*%
X127747282Y-106172000D02*
G75*
G03*
X127747282Y-106172000I-11500000J0D01*
G01*
X127203200Y-102539800D02*
X127152400Y-109905800D01*
X127152400Y-109905800D02*
X130251200Y-109905800D01*
X130251200Y-109905800D02*
X130302000Y-102590600D01*
X130302000Y-102590600D02*
X127304800Y-102641400D01*
%TO.C,D1*%
D14*
X107164095Y-60904380D02*
X107164095Y-59904380D01*
X106926000Y-59904380D01*
X106783142Y-59952000D01*
X106687904Y-60047238D01*
X106640285Y-60142476D01*
X106592666Y-60332952D01*
X106592666Y-60475809D01*
X106640285Y-60666285D01*
X106687904Y-60761523D01*
X106783142Y-60856761D01*
X106926000Y-60904380D01*
X107164095Y-60904380D01*
X105640285Y-60904380D02*
X106211714Y-60904380D01*
X105926000Y-60904380D02*
X105926000Y-59904380D01*
X106021238Y-60047238D01*
X106116476Y-60142476D01*
X106211714Y-60190095D01*
%TO.C,D2*%
X125452095Y-59888380D02*
X125452095Y-58888380D01*
X125214000Y-58888380D01*
X125071142Y-58936000D01*
X124975904Y-59031238D01*
X124928285Y-59126476D01*
X124880666Y-59316952D01*
X124880666Y-59459809D01*
X124928285Y-59650285D01*
X124975904Y-59745523D01*
X125071142Y-59840761D01*
X125214000Y-59888380D01*
X125452095Y-59888380D01*
X124499714Y-58983619D02*
X124452095Y-58936000D01*
X124356857Y-58888380D01*
X124118761Y-58888380D01*
X124023523Y-58936000D01*
X123975904Y-58983619D01*
X123928285Y-59078857D01*
X123928285Y-59174095D01*
X123975904Y-59316952D01*
X124547333Y-59888380D01*
X123928285Y-59888380D01*
%TO.C,S1*%
X119379904Y-126388761D02*
X119237047Y-126436380D01*
X118998952Y-126436380D01*
X118903714Y-126388761D01*
X118856095Y-126341142D01*
X118808476Y-126245904D01*
X118808476Y-126150666D01*
X118856095Y-126055428D01*
X118903714Y-126007809D01*
X118998952Y-125960190D01*
X119189428Y-125912571D01*
X119284666Y-125864952D01*
X119332285Y-125817333D01*
X119379904Y-125722095D01*
X119379904Y-125626857D01*
X119332285Y-125531619D01*
X119284666Y-125484000D01*
X119189428Y-125436380D01*
X118951333Y-125436380D01*
X118808476Y-125484000D01*
X117856095Y-126436380D02*
X118427523Y-126436380D01*
X118141809Y-126436380D02*
X118141809Y-125436380D01*
X118237047Y-125579238D01*
X118332285Y-125674476D01*
X118427523Y-125722095D01*
%TO.C,U1*%
X115061904Y-106640380D02*
X115061904Y-107449904D01*
X115014285Y-107545142D01*
X114966666Y-107592761D01*
X114871428Y-107640380D01*
X114680952Y-107640380D01*
X114585714Y-107592761D01*
X114538095Y-107545142D01*
X114490476Y-107449904D01*
X114490476Y-106640380D01*
X113490476Y-107640380D02*
X114061904Y-107640380D01*
X113776190Y-107640380D02*
X113776190Y-106640380D01*
X113871428Y-106783238D01*
X113966666Y-106878476D01*
X114061904Y-106926095D01*
%TD*%
M02*
