%TF.GenerationSoftware,KiCad,Pcbnew,(5.1.6)-1*%
%TF.CreationDate,2021-02-21T20:50:40+01:00*%
%TF.ProjectId,RobiV3,526f6269-5633-42e6-9b69-6361645f7063,rev?*%
%TF.SameCoordinates,Original*%
%TF.FileFunction,Profile,NP*%
%FSLAX46Y46*%
G04 Gerber Fmt 4.6, Leading zero omitted, Abs format (unit mm)*
G04 Created by KiCad (PCBNEW (5.1.6)-1) date 2021-02-21 20:50:40*
%MOMM*%
%LPD*%
G01*
G04 APERTURE LIST*
%TA.AperFunction,Profile*%
%ADD10C,0.100000*%
%TD*%
G04 APERTURE END LIST*
D10*
X126070100Y-52792060D02*
X125542000Y-52804600D01*
X125542000Y-52804600D02*
X124951200Y-52846110D01*
X124951200Y-52846110D02*
X124294300Y-52922420D01*
X124294300Y-52922420D02*
X123571700Y-53040260D01*
X123571700Y-53040260D02*
X122779900Y-53202800D01*
X122779900Y-53202800D02*
X121916600Y-53418260D01*
X121916600Y-53418260D02*
X120982800Y-53689850D01*
X120982800Y-53689850D02*
X119975500Y-54025210D01*
X119975500Y-54025210D02*
X119767000Y-54139300D01*
X119767000Y-54139300D02*
X119596900Y-54265920D01*
X119596900Y-54265920D02*
X119463000Y-54400220D01*
X119463000Y-54400220D02*
X119361200Y-54541440D01*
X119361200Y-54541440D02*
X119234300Y-54831340D01*
X119234300Y-54831340D02*
X119190000Y-55113580D01*
X119190000Y-55113580D02*
X119279700Y-56836020D01*
X119279700Y-56836020D02*
X119361400Y-57685550D01*
X119361400Y-57685550D02*
X119480300Y-58522550D01*
X119480300Y-58522550D02*
X119648500Y-59344210D01*
X119648500Y-59344210D02*
X119874100Y-60147350D01*
X119874100Y-60147350D02*
X120170200Y-60929400D01*
X120170200Y-60929400D02*
X120542900Y-61685200D01*
X120542900Y-61685200D02*
X120647700Y-62030300D01*
X120647700Y-62030300D02*
X120702100Y-62376300D01*
X120702100Y-62376300D02*
X120684500Y-62548300D01*
X120684500Y-62548300D02*
X120622200Y-62721400D01*
X120622200Y-62721400D02*
X120505400Y-62894300D01*
X120505400Y-62894300D02*
X120326200Y-63066300D01*
X120326200Y-63066300D02*
X109332200Y-63903400D01*
X109332200Y-63903400D02*
X108807200Y-62313400D01*
X108807200Y-62313400D02*
X108936100Y-62347300D01*
X108936100Y-62347300D02*
X109067000Y-62348200D01*
X109067000Y-62348200D02*
X109331900Y-62262200D01*
X109331900Y-62262200D02*
X109595000Y-62080600D01*
X109595000Y-62080600D02*
X109848700Y-61829200D01*
X109848700Y-61829200D02*
X110080500Y-61533500D01*
X110080500Y-61533500D02*
X110280900Y-61219300D01*
X110280900Y-61219300D02*
X110441100Y-60912900D01*
X110441100Y-60912900D02*
X110551900Y-60638330D01*
X110551900Y-60638330D02*
X110670800Y-60165690D01*
X110670800Y-60165690D02*
X110815800Y-59738490D01*
X110815800Y-59738490D02*
X110959900Y-59316150D01*
X110959900Y-59316150D02*
X111085800Y-58859030D01*
X111085800Y-58859030D02*
X111174400Y-58326350D01*
X111174400Y-58326350D02*
X111201600Y-57676950D01*
X111201600Y-57676950D02*
X111146200Y-56869880D01*
X111146200Y-56869880D02*
X110989000Y-55866600D01*
X110989000Y-55866600D02*
X110959800Y-55626810D01*
X110959800Y-55626810D02*
X110903400Y-55404620D01*
X110903400Y-55404620D02*
X110718100Y-55007350D01*
X110718100Y-55007350D02*
X110449200Y-54668060D01*
X110449200Y-54668060D02*
X110115600Y-54379080D01*
X110115600Y-54379080D02*
X109734000Y-54135560D01*
X109734000Y-54135560D02*
X109317800Y-53930570D01*
X109317800Y-53930570D02*
X108458500Y-53605870D01*
X108458500Y-53605870D02*
X107848200Y-53514970D01*
X107848200Y-53514970D02*
X107238700Y-53466520D01*
X107238700Y-53466520D02*
X106626200Y-53456790D01*
X106626200Y-53456790D02*
X106015800Y-53482040D01*
X106015800Y-53482040D02*
X105406300Y-53539090D01*
X105406300Y-53539090D02*
X104793700Y-53623070D01*
X104793700Y-53623070D02*
X103573900Y-53857050D01*
X103573900Y-53857050D02*
X103299000Y-53897650D01*
X103299000Y-53897650D02*
X103047200Y-53962350D01*
X103047200Y-53962350D02*
X102817300Y-54051390D01*
X102817300Y-54051390D02*
X102608900Y-54163420D01*
X102608900Y-54163420D02*
X102419400Y-54296770D01*
X102419400Y-54296770D02*
X102248300Y-54452390D01*
X102248300Y-54452390D02*
X101961200Y-54822540D01*
X101961200Y-54822540D02*
X101739500Y-55266190D01*
X101739500Y-55266190D02*
X101573300Y-55773640D01*
X101573300Y-55773640D02*
X101460400Y-56339980D01*
X101460400Y-56339980D02*
X101392000Y-56954780D01*
X101392000Y-56954780D02*
X101514800Y-58113670D01*
X101514800Y-58113670D02*
X101677000Y-59234970D01*
X101677000Y-59234970D02*
X101783800Y-59770280D01*
X101783800Y-59770280D02*
X101914800Y-60283510D01*
X101914800Y-60283510D02*
X102072900Y-60769810D01*
X102072900Y-60769810D02*
X102263400Y-61225100D01*
X102263400Y-61225100D02*
X102638000Y-61822200D01*
X102638000Y-61822200D02*
X102838600Y-62083400D01*
X102838600Y-62083400D02*
X103051000Y-62307500D01*
X103051000Y-62307500D02*
X103280700Y-62484400D01*
X103280700Y-62484400D02*
X103528600Y-62607100D01*
X103528600Y-62607100D02*
X103799600Y-62664100D01*
X103799600Y-62664100D02*
X104095700Y-62647700D01*
X104095700Y-62647700D02*
X106540700Y-62480400D01*
X106540700Y-62480400D02*
X107150000Y-63736100D01*
X107150000Y-63736100D02*
X89961750Y-65912900D01*
X89961750Y-65912900D02*
X90397810Y-68843400D01*
X90397810Y-68843400D02*
X89970720Y-68631600D01*
X89970720Y-68631600D02*
X89522570Y-68442200D01*
X89522570Y-68442200D02*
X89041090Y-68288600D01*
X89041090Y-68288600D02*
X88513210Y-68182200D01*
X88513210Y-68182200D02*
X87925870Y-68137900D01*
X87925870Y-68137900D02*
X87267020Y-68168700D01*
X87267020Y-68168700D02*
X86526660Y-68287700D01*
X86526660Y-68287700D02*
X85686499Y-68508000D01*
X85686499Y-68508000D02*
X85684499Y-68508000D01*
X85684499Y-68508000D02*
X85999899Y-74056800D01*
X85999899Y-74056800D02*
X86181180Y-76829900D01*
X86181180Y-76829900D02*
X86397750Y-79599200D01*
X86397750Y-79599200D02*
X86666570Y-82363400D01*
X86666570Y-82363400D02*
X87004190Y-85119900D01*
X87004190Y-85119900D02*
X87427200Y-87869900D01*
X87427200Y-87869900D02*
X87950980Y-90609000D01*
X87950980Y-90609000D02*
X89228370Y-91762100D01*
X89228370Y-91762100D02*
X89889180Y-92307300D01*
X89889180Y-92307300D02*
X90573200Y-92824300D01*
X90573200Y-92824300D02*
X91282370Y-93304800D01*
X91282370Y-93304800D02*
X92023700Y-93741500D01*
X92023700Y-93741500D02*
X92803420Y-94129200D01*
X92803420Y-94129200D02*
X93624280Y-94460700D01*
X93624280Y-94460700D02*
X93624280Y-96009100D01*
X93624280Y-96009100D02*
X99294700Y-96134900D01*
X99294700Y-96134900D02*
X98946100Y-97139000D01*
X98946100Y-97139000D02*
X98963700Y-97433800D01*
X98963700Y-97433800D02*
X99010100Y-97689000D01*
X99010100Y-97689000D02*
X99090500Y-97898800D01*
X99090500Y-97898800D02*
X99211400Y-98058200D01*
X99211400Y-98058200D02*
X99372500Y-98159700D01*
X99372500Y-98159700D02*
X99583100Y-98198300D01*
X99583100Y-98198300D02*
X99847100Y-98167500D01*
X99847100Y-98167500D02*
X100168300Y-98060000D01*
X100168300Y-98060000D02*
X102349200Y-97808800D01*
X102349200Y-97808800D02*
X102436800Y-101743600D01*
X102436800Y-101743600D02*
X101877800Y-101602500D01*
X101877800Y-101602500D02*
X101316700Y-101512600D01*
X101316700Y-101512600D02*
X100752600Y-101470100D01*
X100752600Y-101470100D02*
X100185600Y-101472100D01*
X100185600Y-101472100D02*
X99616400Y-101511700D01*
X99616400Y-101511700D02*
X99045200Y-101587100D01*
X99045200Y-101587100D02*
X97896900Y-101825800D01*
X97896900Y-101825800D02*
X96745400Y-102153500D01*
X96745400Y-102153500D02*
X95589100Y-102536300D01*
X95589100Y-102536300D02*
X93275260Y-103334600D01*
X93275260Y-103334600D02*
X92649720Y-103178100D01*
X92649720Y-103178100D02*
X92074470Y-103089000D01*
X92074470Y-103089000D02*
X91548550Y-103061200D01*
X91548550Y-103061200D02*
X91069210Y-103087200D01*
X91069210Y-103087200D02*
X90633930Y-103162600D01*
X90633930Y-103162600D02*
X90238010Y-103282400D01*
X90238010Y-103282400D02*
X89879540Y-103439000D01*
X89879540Y-103439000D02*
X89556150Y-103628500D01*
X89556150Y-103628500D02*
X89266090Y-103843000D01*
X89266090Y-103843000D02*
X89006050Y-104078800D01*
X89006050Y-104078800D02*
X88561790Y-104587200D01*
X88561790Y-104587200D02*
X88203310Y-105108300D01*
X88203310Y-105108300D02*
X87909160Y-105595400D01*
X87909160Y-105595400D02*
X87515210Y-106581200D01*
X87515210Y-106581200D02*
X87195910Y-107578700D01*
X87195910Y-107578700D02*
X86946000Y-108589700D01*
X86946000Y-108589700D02*
X86758680Y-109615200D01*
X86758680Y-109615200D02*
X86631770Y-110655300D01*
X86631770Y-110655300D02*
X86560270Y-111712700D01*
X86560270Y-111712700D02*
X86537070Y-112788500D01*
X86537070Y-112788500D02*
X86558270Y-113883600D01*
X86558270Y-113883600D02*
X86747550Y-114657700D01*
X86747550Y-114657700D02*
X86840350Y-115344000D01*
X86840350Y-115344000D02*
X86908750Y-116006100D01*
X86908750Y-116006100D02*
X87018500Y-116706700D01*
X87018500Y-116706700D02*
X87238190Y-117508900D01*
X87238190Y-117508900D02*
X87411480Y-117969100D01*
X87411480Y-117969100D02*
X87640140Y-118478600D01*
X87640140Y-118478600D02*
X87930190Y-119045000D01*
X87930190Y-119045000D02*
X88290810Y-119676100D01*
X88290810Y-119676100D02*
X88733120Y-120380700D01*
X88733120Y-120380700D02*
X89261970Y-121166500D01*
X89261970Y-121166500D02*
X89637800Y-121312400D01*
X89637800Y-121312400D02*
X90018500Y-121417700D01*
X90018500Y-121417700D02*
X90398230Y-121483600D01*
X90398230Y-121483600D02*
X90768990Y-121511600D01*
X90768990Y-121511600D02*
X91127470Y-121504000D01*
X91127470Y-121504000D02*
X91462940Y-121461300D01*
X91462940Y-121461300D02*
X91772310Y-121385900D01*
X91772310Y-121385900D02*
X92049300Y-121279800D01*
X92049300Y-121279800D02*
X92386730Y-121095200D01*
X92386730Y-121095200D02*
X92720260Y-120838900D01*
X92720260Y-120838900D02*
X93047560Y-120481300D01*
X93047560Y-120481300D02*
X93362760Y-119995200D01*
X93362760Y-119995200D02*
X93464510Y-119650100D01*
X93464510Y-119650100D02*
X93531010Y-119297300D01*
X93531010Y-119297300D02*
X93577410Y-118570500D01*
X93577410Y-118570500D02*
X93540210Y-117824300D01*
X93540210Y-117824300D02*
X93450510Y-117064700D01*
X93450510Y-117064700D02*
X93187740Y-114972100D01*
X93187740Y-114972100D02*
X93673130Y-115408800D01*
X93673130Y-115408800D02*
X94131610Y-115786800D01*
X94131610Y-115786800D02*
X94552670Y-116070000D01*
X94552670Y-116070000D02*
X94747010Y-116164800D01*
X94747010Y-116164800D02*
X94932390Y-116222800D01*
X94932390Y-116222800D02*
X95103740Y-116238300D01*
X95103740Y-116238300D02*
X95261800Y-116208100D01*
X95261800Y-116208100D02*
X95407800Y-116127000D01*
X95407800Y-116127000D02*
X95538800Y-115990900D01*
X95538800Y-115990900D02*
X95651700Y-115795600D01*
X95651700Y-115795600D02*
X95751500Y-115535600D01*
X95751500Y-115535600D02*
X95831000Y-115206000D01*
X95831000Y-115206000D02*
X95893300Y-114804900D01*
X95893300Y-114804900D02*
X95457100Y-111371700D01*
X95457100Y-111371700D02*
X95893300Y-111162800D01*
X95893300Y-111162800D02*
X96330600Y-111003500D01*
X96330600Y-111003500D02*
X96764600Y-110889400D01*
X96764600Y-110889400D02*
X97201900Y-110816800D01*
X97201900Y-110816800D02*
X97637900Y-110780200D01*
X97637900Y-110780200D02*
X98075200Y-110776300D01*
X98075200Y-110776300D02*
X98946600Y-110842800D01*
X98946600Y-110842800D02*
X99819800Y-110981100D01*
X99819800Y-110981100D02*
X100692400Y-111154000D01*
X100692400Y-111154000D02*
X101563700Y-111325200D01*
X101563700Y-111325200D02*
X102437000Y-111455700D01*
X102437000Y-111455700D02*
X102643500Y-113153900D01*
X102643500Y-113153900D02*
X102780500Y-114870500D01*
X102780500Y-114870500D02*
X102856100Y-116604600D01*
X102856100Y-116604600D02*
X102873700Y-118353000D01*
X102873700Y-118353000D02*
X102848500Y-119767000D01*
X102848500Y-119767000D02*
X102858500Y-120396600D01*
X102858500Y-120396600D02*
X102815100Y-120787700D01*
X102815100Y-120787700D02*
X102768700Y-121887700D01*
X102768700Y-121887700D02*
X102659900Y-123669900D01*
X102659900Y-123669900D02*
X102523900Y-125461000D01*
X102523900Y-125461000D02*
X102190600Y-129056600D01*
X102190600Y-129056600D02*
X101823700Y-132660900D01*
X101823700Y-132660900D02*
X101480300Y-136259300D01*
X101480300Y-136259300D02*
X101215400Y-139836600D01*
X101215400Y-139836600D02*
X101108500Y-140193300D01*
X101108500Y-140193300D02*
X100973400Y-140506400D01*
X100973400Y-140506400D02*
X100815300Y-140779900D01*
X100815300Y-140779900D02*
X100636000Y-141016700D01*
X100636000Y-141016700D02*
X100437500Y-141220700D01*
X100437500Y-141220700D02*
X100222900Y-141395600D01*
X100222900Y-141395600D02*
X99749700Y-141676900D01*
X99749700Y-141676900D02*
X99236700Y-141890500D01*
X99236700Y-141890500D02*
X98700800Y-142066300D01*
X98700800Y-142066300D02*
X98163000Y-142236500D01*
X98163000Y-142236500D02*
X97638100Y-142431700D01*
X97638100Y-142431700D02*
X97454800Y-142576700D01*
X97454800Y-142576700D02*
X97316900Y-142765200D01*
X97316900Y-142765200D02*
X97219200Y-142992300D01*
X97219200Y-142992300D02*
X97158700Y-143253300D01*
X97158700Y-143253300D02*
X97135500Y-143543200D01*
X97135500Y-143543200D02*
X97143500Y-143854400D01*
X97143500Y-143854400D02*
X97246300Y-144525200D01*
X97246300Y-144525200D02*
X97446900Y-145222200D01*
X97446900Y-145222200D02*
X97725800Y-145901700D01*
X97725800Y-145901700D02*
X98057200Y-146521200D01*
X98057200Y-146521200D02*
X98421900Y-147036300D01*
X98421900Y-147036300D02*
X99080800Y-147226700D01*
X99080800Y-147226700D02*
X99753600Y-147392000D01*
X99753600Y-147392000D02*
X101133600Y-147645300D01*
X101133600Y-147645300D02*
X102552900Y-147804900D01*
X102552900Y-147804900D02*
X104006500Y-147873300D01*
X104006500Y-147873300D02*
X105488500Y-147858700D01*
X105488500Y-147858700D02*
X106989400Y-147765900D01*
X106989400Y-147765900D02*
X108503400Y-147601700D01*
X108503400Y-147601700D02*
X110026500Y-147370700D01*
X110026500Y-147370700D02*
X110250300Y-147102800D01*
X110250300Y-147102800D02*
X110433500Y-146754100D01*
X110433500Y-146754100D02*
X110581600Y-146337500D01*
X110581600Y-146337500D02*
X110696500Y-145865800D01*
X110696500Y-145865800D02*
X110783000Y-145352600D01*
X110783000Y-145352600D02*
X110843500Y-144810300D01*
X110843500Y-144810300D02*
X110899900Y-143687200D01*
X110899900Y-143687200D02*
X110874700Y-143452300D01*
X110874700Y-143452300D02*
X110794000Y-143251200D01*
X110794000Y-143251200D02*
X110666100Y-143080200D01*
X110666100Y-143080200D02*
X110495900Y-142936200D01*
X110495900Y-142936200D02*
X110289300Y-142815400D01*
X110289300Y-142815400D02*
X110051600Y-142714700D01*
X110051600Y-142714700D02*
X109501600Y-142558200D01*
X109501600Y-142558200D02*
X108267600Y-142325400D01*
X108267600Y-142325400D02*
X107671100Y-142192900D01*
X107671100Y-142192900D02*
X107147400Y-142013200D01*
X107147400Y-142013200D02*
X107277400Y-140213300D01*
X107277400Y-140213300D02*
X108194100Y-134896400D01*
X108194100Y-134896400D02*
X112819900Y-135064500D01*
X112819900Y-135064500D02*
X118577800Y-135817600D01*
X118577800Y-135817600D02*
X120979400Y-136312500D01*
X120979400Y-136312500D02*
X122178000Y-136564700D01*
X122178000Y-136564700D02*
X123382900Y-136793700D01*
X123382900Y-136793700D02*
X124597300Y-136979200D01*
X124597300Y-136979200D02*
X125827300Y-137101100D01*
X125827300Y-137101100D02*
X127076900Y-137138800D01*
X127076900Y-137138800D02*
X127710400Y-137120400D01*
X127710400Y-137120400D02*
X128349700Y-137073100D01*
X128349700Y-137073100D02*
X130531000Y-136068900D01*
X130531000Y-136068900D02*
X130909200Y-136095800D01*
X130909200Y-136095800D02*
X131273700Y-136168300D01*
X131273700Y-136168300D02*
X131628500Y-136285300D01*
X131628500Y-136285300D02*
X131971600Y-136445800D01*
X131971600Y-136445800D02*
X132303000Y-136646800D01*
X132303000Y-136646800D02*
X132624600Y-136889400D01*
X132624600Y-136889400D02*
X132934600Y-137171600D01*
X132934600Y-137171600D02*
X133236700Y-137491700D01*
X133236700Y-137491700D02*
X134004700Y-138322000D01*
X134004700Y-138322000D02*
X134379000Y-138751000D01*
X134379000Y-138751000D02*
X134739600Y-139233400D01*
X134739600Y-139233400D02*
X135078800Y-139803600D01*
X135078800Y-139803600D02*
X135388800Y-140497600D01*
X135388800Y-140497600D02*
X135663600Y-141348100D01*
X135663600Y-141348100D02*
X135897500Y-142389100D01*
X135897500Y-142389100D02*
X135679200Y-142333000D01*
X135679200Y-142333000D02*
X135459000Y-142316500D01*
X135459000Y-142316500D02*
X135234700Y-142334900D01*
X135234700Y-142334900D02*
X135008600Y-142383400D01*
X135008600Y-142383400D02*
X134548600Y-142551400D01*
X134548600Y-142551400D02*
X134086600Y-142785500D01*
X134086600Y-142785500D02*
X133164600Y-143303400D01*
X133164600Y-143303400D02*
X132714300Y-143515100D01*
X132714300Y-143515100D02*
X131918900Y-144062100D01*
X131918900Y-144062100D02*
X131542700Y-144369500D01*
X131542700Y-144369500D02*
X131174400Y-144710600D01*
X131174400Y-144710600D02*
X130788300Y-145159200D01*
X130788300Y-145159200D02*
X130649900Y-145376700D01*
X130649900Y-145376700D02*
X130556300Y-145595100D01*
X130556300Y-145595100D02*
X130509600Y-145819400D01*
X130509600Y-145819400D02*
X130513600Y-146052300D01*
X130513600Y-146052300D02*
X130572100Y-146298800D01*
X130572100Y-146298800D02*
X130691100Y-146562800D01*
X130691100Y-146562800D02*
X130872400Y-146847800D01*
X130872400Y-146847800D02*
X131121900Y-147158900D01*
X131121900Y-147158900D02*
X131443500Y-147499200D01*
X131443500Y-147499200D02*
X131839200Y-147874200D01*
X131839200Y-147874200D02*
X135461100Y-148002700D01*
X135461100Y-148002700D02*
X137238900Y-148044400D01*
X137238900Y-148044400D02*
X138979500Y-148044400D01*
X138979500Y-148044400D02*
X140671600Y-147981600D01*
X140671600Y-147981600D02*
X142309000Y-147834600D01*
X142309000Y-147834600D02*
X143100500Y-147722600D01*
X143100500Y-147722600D02*
X143876300Y-147582500D01*
X143876300Y-147582500D02*
X144630700Y-147410400D01*
X144630700Y-147410400D02*
X145363600Y-147204400D01*
X145363600Y-147204400D02*
X145720300Y-146961800D01*
X145720300Y-146961800D02*
X146008900Y-146722100D01*
X146008900Y-146722100D02*
X146236900Y-146484300D01*
X146236900Y-146484300D02*
X146404600Y-146248500D01*
X146404600Y-146248500D02*
X146515600Y-146013800D01*
X146515600Y-146013800D02*
X146578000Y-145781700D01*
X146578000Y-145781700D02*
X146593600Y-145550700D01*
X146593600Y-145550700D02*
X146566300Y-145321700D01*
X146566300Y-145321700D02*
X146498100Y-145092600D01*
X146498100Y-145092600D02*
X146396800Y-144866500D01*
X146396800Y-144866500D02*
X146104300Y-144415000D01*
X146104300Y-144415000D02*
X145720300Y-143966400D01*
X145720300Y-143966400D02*
X145277800Y-143520900D01*
X145277800Y-143520900D02*
X144724200Y-143145900D01*
X144724200Y-143145900D02*
X144133600Y-142833700D01*
X144133600Y-142833700D02*
X143515700Y-142574700D01*
X143515700Y-142574700D02*
X142874300Y-142357200D01*
X142874300Y-142357200D02*
X141548700Y-142001600D01*
X141548700Y-142001600D02*
X140217300Y-141678800D01*
X140217300Y-141678800D02*
X132539000Y-109195800D01*
X132539000Y-109195800D02*
X133424000Y-109104000D01*
X133424000Y-109104000D02*
X134281700Y-109058700D01*
X134281700Y-109058700D02*
X135110100Y-109058700D01*
X135110100Y-109058700D02*
X135915300Y-109100200D01*
X135915300Y-109100200D02*
X136695000Y-109181400D01*
X136695000Y-109181400D02*
X137453200Y-109300200D01*
X137453200Y-109300200D02*
X138188100Y-109454900D01*
X138188100Y-109454900D02*
X138903600Y-109643300D01*
X138903600Y-109643300D02*
X139599400Y-109861900D01*
X139599400Y-109861900D02*
X140277800Y-110110200D01*
X140277800Y-110110200D02*
X140940600Y-110384800D01*
X140940600Y-110384800D02*
X141587800Y-110684500D01*
X141587800Y-110684500D02*
X142843100Y-111348400D01*
X142843100Y-111348400D02*
X144055500Y-112083800D01*
X144055500Y-112083800D02*
X144268100Y-112958700D01*
X144268100Y-112958700D02*
X144379100Y-113500900D01*
X144379100Y-113500900D02*
X144461000Y-114061400D01*
X144461000Y-114061400D02*
X144490300Y-114603600D01*
X144490300Y-114603600D02*
X144439600Y-115090000D01*
X144439600Y-115090000D02*
X144377300Y-115299600D01*
X144377300Y-115299600D02*
X144285700Y-115481500D01*
X144285700Y-115481500D02*
X144163000Y-115630100D01*
X144163000Y-115630100D02*
X144005000Y-115740300D01*
X144005000Y-115740300D02*
X143576200Y-115979100D01*
X143576200Y-115979100D02*
X143194100Y-116233300D01*
X143194100Y-116233300D02*
X142866600Y-116496300D01*
X142866600Y-116496300D02*
X142597600Y-116764000D01*
X142597600Y-116764000D02*
X142389000Y-117030700D01*
X142389000Y-117030700D02*
X142246800Y-117291500D01*
X142246800Y-117291500D02*
X142176600Y-117542000D01*
X142176600Y-117542000D02*
X142182600Y-117774900D01*
X142182600Y-117774900D02*
X142270200Y-117985700D01*
X142270200Y-117985700D02*
X142443700Y-118169400D01*
X142443700Y-118169400D02*
X142706800Y-118321000D01*
X142706800Y-118321000D02*
X143063600Y-118434200D01*
X143063600Y-118434200D02*
X143521700Y-118504700D01*
X143521700Y-118504700D02*
X144083000Y-118526900D01*
X144083000Y-118526900D02*
X144753600Y-118495000D01*
X144753600Y-118495000D02*
X145539200Y-118405000D01*
X145539200Y-118405000D02*
X145100600Y-119015000D01*
X145100600Y-119015000D02*
X144699100Y-119621900D01*
X144699100Y-119621900D02*
X144375500Y-120221200D01*
X144375500Y-120221200D02*
X144254700Y-120518000D01*
X144254700Y-120518000D02*
X144168800Y-120810900D01*
X144168800Y-120810900D02*
X144120200Y-121100800D01*
X144120200Y-121100800D02*
X144116200Y-121387900D01*
X144116200Y-121387900D02*
X144161000Y-121670200D01*
X144161000Y-121670200D02*
X144256600Y-121948400D01*
X144256600Y-121948400D02*
X144412500Y-122221900D01*
X144412500Y-122221900D02*
X144630800Y-122489800D01*
X144630800Y-122489800D02*
X144919200Y-122752600D01*
X144919200Y-122752600D02*
X145278000Y-123009700D01*
X145278000Y-123009700D02*
X145697100Y-123325800D01*
X145697100Y-123325800D02*
X146135600Y-123574200D01*
X146135600Y-123574200D02*
X146587800Y-123756900D01*
X146587800Y-123756900D02*
X147053800Y-123877800D01*
X147053800Y-123877800D02*
X147525500Y-123938600D01*
X147525500Y-123938600D02*
X147999200Y-123944400D01*
X147999200Y-123944400D02*
X148472900Y-123897100D01*
X148472900Y-123897100D02*
X148940700Y-123799400D01*
X148940700Y-123799400D02*
X149400800Y-123654400D01*
X149400800Y-123654400D02*
X149845200Y-123465900D01*
X149845200Y-123465900D02*
X150272100Y-123236900D01*
X150272100Y-123236900D02*
X150677600Y-122970000D01*
X150677600Y-122970000D02*
X151055700Y-122668500D01*
X151055700Y-122668500D02*
X151404700Y-122335000D01*
X151404700Y-122335000D02*
X151720500Y-121973500D01*
X151720500Y-121973500D02*
X151997300Y-121585900D01*
X151997300Y-121585900D02*
X152242900Y-121236200D01*
X152242900Y-121236200D02*
X152461200Y-120867900D01*
X152461200Y-120867900D02*
X152650300Y-120482200D01*
X152650300Y-120482200D02*
X152815900Y-120083100D01*
X152815900Y-120083100D02*
X153073300Y-119249900D01*
X153073300Y-119249900D02*
X153246700Y-118382000D01*
X153246700Y-118382000D02*
X153344200Y-117496600D01*
X153344200Y-117496600D02*
X153377400Y-116608400D01*
X153377400Y-116608400D02*
X153361800Y-115733600D01*
X153361800Y-115733600D02*
X153305300Y-114888900D01*
X153305300Y-114888900D02*
X153258400Y-113929900D01*
X153258400Y-113929900D02*
X153164900Y-113071600D01*
X153164900Y-113071600D02*
X153034300Y-112307200D01*
X153034300Y-112307200D02*
X152864600Y-111628600D01*
X152864600Y-111628600D02*
X152663900Y-111028400D01*
X152663900Y-111028400D02*
X152430000Y-110499600D01*
X152430000Y-110499600D02*
X152170700Y-110035800D01*
X152170700Y-110035800D02*
X151886100Y-109627800D01*
X151886100Y-109627800D02*
X151580100Y-109270200D01*
X151580100Y-109270200D02*
X151258500Y-108953200D01*
X151258500Y-108953200D02*
X150919300Y-108671000D01*
X150919300Y-108671000D02*
X150570400Y-108416800D01*
X150570400Y-108416800D02*
X149849100Y-107958700D01*
X149849100Y-107958700D02*
X149118000Y-107521800D01*
X149118000Y-107521800D02*
X148523600Y-107215400D01*
X148523600Y-107215400D02*
X147956300Y-106880100D01*
X147956300Y-106880100D02*
X146862700Y-106162800D01*
X146862700Y-106162800D02*
X145755500Y-105455200D01*
X145755500Y-105455200D02*
X145170700Y-105132400D01*
X145170700Y-105132400D02*
X144554700Y-104842500D01*
X144554700Y-104842500D02*
X143104500Y-104281000D01*
X143104500Y-104281000D02*
X141586000Y-103762900D01*
X141586000Y-103762900D02*
X138537200Y-102761500D01*
X138537200Y-102761500D02*
X137096700Y-102231800D01*
X137096700Y-102231800D02*
X136418300Y-101948700D01*
X136418300Y-101948700D02*
X135775000Y-101649900D01*
X135775000Y-101649900D02*
X135174600Y-101331900D01*
X135174600Y-101331900D02*
X134619100Y-100992700D01*
X134619100Y-100992700D02*
X134118100Y-100629300D01*
X134118100Y-100629300D02*
X133673700Y-100238000D01*
X133673700Y-100238000D02*
X133868500Y-99993300D01*
X133868500Y-99993300D02*
X134018600Y-99722700D01*
X134018600Y-99722700D02*
X134131700Y-99430900D01*
X134131700Y-99430900D02*
X134209700Y-99117600D01*
X134209700Y-99117600D02*
X134254600Y-98786200D01*
X134254600Y-98786200D02*
X134274100Y-98438100D01*
X134274100Y-98438100D02*
X134244800Y-97702700D01*
X134244800Y-97702700D02*
X134149300Y-96927400D01*
X134149300Y-96927400D02*
X134016700Y-96131900D01*
X134016700Y-96131900D02*
X133942000Y-95437200D01*
X133942000Y-95437200D02*
X144084900Y-93683600D01*
X144084900Y-93683600D02*
X144421500Y-93550700D01*
X144421500Y-93550700D02*
X144697100Y-93386800D01*
X144697100Y-93386800D02*
X144917100Y-93196800D01*
X144917100Y-93196800D02*
X145086300Y-92985700D01*
X145086300Y-92985700D02*
X145209900Y-92759000D01*
X145209900Y-92759000D02*
X145292800Y-92521900D01*
X145292800Y-92521900D02*
X145340000Y-92279100D01*
X145340000Y-92279100D02*
X145356600Y-92035900D01*
X145356600Y-92035900D02*
X139870600Y-65327100D01*
X139870600Y-65327100D02*
X139529500Y-64976200D01*
X139529500Y-64976200D02*
X139172700Y-64657300D01*
X139172700Y-64657300D02*
X138802400Y-64367400D01*
X138802400Y-64367400D02*
X138420300Y-64106300D01*
X138420300Y-64106300D02*
X138022700Y-63872500D01*
X138022700Y-63872500D02*
X137613300Y-63665600D01*
X137613300Y-63665600D02*
X136761400Y-63322400D01*
X136761400Y-63322400D02*
X135864700Y-63068200D01*
X135864700Y-63068200D02*
X134933000Y-62892300D01*
X134933000Y-62892300D02*
X133968100Y-62784000D01*
X133968100Y-62784000D02*
X132975800Y-62731900D01*
X132975800Y-62731900D02*
X124950500Y-62647700D01*
X124950500Y-62647700D02*
X126956300Y-62145100D01*
X126956300Y-62145100D02*
X127141500Y-62071600D01*
X127141500Y-62071600D02*
X127326800Y-62022400D01*
X127326800Y-62022400D02*
X127511900Y-61973000D01*
X127511900Y-61973000D02*
X127697100Y-61900700D01*
X127697100Y-61900700D02*
X127884200Y-61779000D01*
X127884200Y-61779000D02*
X128069400Y-61586500D01*
X128069400Y-61586500D02*
X128254600Y-61297500D01*
X128254600Y-61297500D02*
X128439800Y-60889500D01*
X128439800Y-60889500D02*
X128626900Y-60588040D01*
X128626900Y-60588040D02*
X128782800Y-60271010D01*
X128782800Y-60271010D02*
X129014800Y-59594480D01*
X129014800Y-59594480D02*
X129159100Y-58869530D01*
X129159100Y-58869530D02*
X129237100Y-58110710D01*
X129237100Y-58110710D02*
X129270200Y-57326830D01*
X129270200Y-57326830D02*
X129280200Y-56530420D01*
X129280200Y-56530420D02*
X129313400Y-54945270D01*
X129313400Y-54945270D02*
X129346600Y-54695950D01*
X129346600Y-54695950D02*
X129333000Y-54426210D01*
X129333000Y-54426210D02*
X129272600Y-54148840D01*
X129272600Y-54148840D02*
X129161500Y-53876330D01*
X129161500Y-53876330D02*
X128999700Y-53621020D01*
X128999700Y-53621020D02*
X128787100Y-53395820D01*
X128787100Y-53395820D02*
X128524000Y-53212340D01*
X128524000Y-53212340D02*
X128206300Y-53083650D01*
X128206300Y-53083650D02*
X127997700Y-53023800D01*
X127997700Y-53023800D02*
X127580500Y-52926170D01*
X127580500Y-52926170D02*
X126943100Y-52833400D01*
X126943100Y-52833400D02*
X126071800Y-52792060D01*
X126071800Y-52792060D02*
X126070100Y-52792060D01*
M02*
