%TF.GenerationSoftware,KiCad,Pcbnew,(5.1.9)-1*%
%TF.CreationDate,2021-05-28T20:42:47+02:00*%
%TF.ProjectId,Smiley2,536d696c-6579-4322-9e6b-696361645f70,rev?*%
%TF.SameCoordinates,Original*%
%TF.FileFunction,Copper,L2,Bot*%
%TF.FilePolarity,Positive*%
%FSLAX46Y46*%
G04 Gerber Fmt 4.6, Leading zero omitted, Abs format (unit mm)*
G04 Created by KiCad (PCBNEW (5.1.9)-1) date 2021-05-28 20:42:47*
%MOMM*%
%LPD*%
G01*
G04 APERTURE LIST*
%TA.AperFunction,ComponentPad*%
%ADD10R,1.700000X1.524000*%
%TD*%
%TA.AperFunction,SMDPad,CuDef*%
%ADD11C,17.780000*%
%TD*%
%TA.AperFunction,ComponentPad*%
%ADD12C,1.524000*%
%TD*%
%TA.AperFunction,SMDPad,CuDef*%
%ADD13C,11.000000*%
%TD*%
%TA.AperFunction,ComponentPad*%
%ADD14R,1.200000X1.200000*%
%TD*%
%TA.AperFunction,ComponentPad*%
%ADD15C,1.200000*%
%TD*%
%TA.AperFunction,ComponentPad*%
%ADD16R,1.800000X1.800000*%
%TD*%
%TA.AperFunction,ComponentPad*%
%ADD17C,1.800000*%
%TD*%
%TA.AperFunction,ComponentPad*%
%ADD18O,1.600000X1.600000*%
%TD*%
%TA.AperFunction,ComponentPad*%
%ADD19C,1.600000*%
%TD*%
%TA.AperFunction,ComponentPad*%
%ADD20C,2.000000*%
%TD*%
%TA.AperFunction,ComponentPad*%
%ADD21R,1.600000X1.600000*%
%TD*%
%TA.AperFunction,ViaPad*%
%ADD22C,0.600000*%
%TD*%
%TA.AperFunction,Conductor*%
%ADD23C,0.250000*%
%TD*%
G04 APERTURE END LIST*
D10*
%TO.P,BAT-HLD-002,~*%
%TO.N,Net-(S1-Pad3)*%
X153611400Y-108419700D03*
%TO.P,BAT-HLD-002,1*%
%TO.N,N/C*%
X171051400Y-108459700D03*
%TO.P,BAT-HLD-002,~*%
%TO.N,Net-(S1-Pad3)*%
X151501400Y-99309700D03*
%TO.P,BAT-HLD-002,1*%
%TO.N,N/C*%
X173231400Y-99349700D03*
D11*
%TO.P,BAT-HLD-002,2*%
%TO.N,Net-(C1-Pad2)*%
X162331400Y-101739700D03*
%TD*%
D12*
%TO.P,REF\u002A\u002A,3*%
%TO.N,Net-(P1-Pad1)*%
X194957700Y-90944700D03*
%TO.P,REF\u002A\u002A,2*%
%TO.N,Net-(C1-Pad1)*%
X192417700Y-85864700D03*
%TO.P,REF\u002A\u002A,1*%
%TO.N,Net-(P1-Pad1)*%
X197497700Y-85864700D03*
%TD*%
D13*
%TO.P,LP,1*%
%TO.N,N/C*%
X157878600Y-49379100D03*
%TD*%
D14*
%TO.P,C1,1*%
%TO.N,Net-(C1-Pad1)*%
X180555900Y-86207600D03*
D15*
%TO.P,C1,2*%
%TO.N,Net-(C1-Pad2)*%
X178555900Y-86207600D03*
%TD*%
D16*
%TO.P,D1,1*%
%TO.N,Net-(D2-Pad1)*%
X156858600Y-122139100D03*
D17*
%TO.P,D1,2*%
%TO.N,Net-(D1-Pad2)*%
X159398600Y-122139100D03*
%TD*%
%TO.P,D2,2*%
%TO.N,Net-(D2-Pad2)*%
X166888600Y-121189100D03*
D16*
%TO.P,D2,1*%
%TO.N,Net-(D2-Pad1)*%
X164348600Y-121189100D03*
%TD*%
D17*
%TO.P,D3,2*%
%TO.N,Net-(D3-Pad2)*%
X173478600Y-118929100D03*
D16*
%TO.P,D3,1*%
%TO.N,Net-(D2-Pad1)*%
X170938600Y-118929100D03*
%TD*%
D17*
%TO.P,D4,2*%
%TO.N,Net-(D4-Pad2)*%
X179208600Y-115279100D03*
D16*
%TO.P,D4,1*%
%TO.N,Net-(D2-Pad1)*%
X176668600Y-115279100D03*
%TD*%
%TO.P,D5,1*%
%TO.N,Net-(D2-Pad1)*%
X181448600Y-110399100D03*
D17*
%TO.P,D5,2*%
%TO.N,Net-(D5-Pad2)*%
X183988600Y-110399100D03*
%TD*%
D16*
%TO.P,D6,1*%
%TO.N,Net-(D2-Pad1)*%
X185476600Y-104592100D03*
D17*
%TO.P,D6,2*%
%TO.N,Net-(D6-Pad2)*%
X188016600Y-104592100D03*
%TD*%
%TO.P,D7,2*%
%TO.N,Net-(D7-Pad2)*%
X191298600Y-98623100D03*
D16*
%TO.P,D7,1*%
%TO.N,Net-(D2-Pad1)*%
X188758600Y-98623100D03*
%TD*%
D17*
%TO.P,D8,2*%
%TO.N,Net-(U2-Pad3)*%
X177221600Y-74874100D03*
D16*
%TO.P,D8,1*%
%TO.N,Net-(D8-Pad1)*%
X174681600Y-74874100D03*
%TD*%
%TO.P,D22,1*%
%TO.N,Net-(D2-Pad1)*%
X149278600Y-121189100D03*
D17*
%TO.P,D22,2*%
%TO.N,Net-(D2-Pad2)*%
X151818600Y-121189100D03*
%TD*%
D16*
%TO.P,D33,1*%
%TO.N,Net-(D2-Pad1)*%
X142638600Y-118889100D03*
D17*
%TO.P,D33,2*%
%TO.N,Net-(D3-Pad2)*%
X145178600Y-118889100D03*
%TD*%
D16*
%TO.P,D44,1*%
%TO.N,Net-(D2-Pad1)*%
X136948600Y-115229100D03*
D17*
%TO.P,D44,2*%
%TO.N,Net-(D4-Pad2)*%
X139488600Y-115229100D03*
%TD*%
%TO.P,D55,2*%
%TO.N,Net-(D5-Pad2)*%
X134798600Y-110399100D03*
D16*
%TO.P,D55,1*%
%TO.N,Net-(D2-Pad1)*%
X132258600Y-110399100D03*
%TD*%
D17*
%TO.P,D66,2*%
%TO.N,Net-(D6-Pad2)*%
X130738600Y-104489100D03*
D16*
%TO.P,D66,1*%
%TO.N,Net-(D2-Pad1)*%
X128198600Y-104489100D03*
%TD*%
%TO.P,D77,1*%
%TO.N,Net-(D2-Pad1)*%
X124808600Y-98669100D03*
D17*
%TO.P,D77,2*%
%TO.N,Net-(D7-Pad2)*%
X127348600Y-98669100D03*
%TD*%
D16*
%TO.P,D88,1*%
%TO.N,Net-(D8-Pad1)*%
X145148600Y-75139100D03*
D17*
%TO.P,D88,2*%
%TO.N,Net-(U2-Pad3)*%
X147688600Y-75139100D03*
%TD*%
D18*
%TO.P,R1,2*%
%TO.N,Net-(P1-Pad1)*%
X186486800Y-59156600D03*
D19*
%TO.P,R1,1*%
%TO.N,Net-(C3-Pad1)*%
X186486800Y-66776600D03*
%TD*%
D18*
%TO.P,R2,2*%
%TO.N,Net-(C1-Pad2)*%
X153508600Y-83479100D03*
D19*
%TO.P,R2,1*%
%TO.N,Net-(D8-Pad1)*%
X153508600Y-75859100D03*
%TD*%
%TO.P,R3,1*%
%TO.N,Net-(D2-Pad1)*%
X161219600Y-83446600D03*
D18*
%TO.P,R3,2*%
%TO.N,Net-(C1-Pad2)*%
X161219600Y-75826600D03*
%TD*%
D20*
%TO.P,S1,1*%
%TO.N,Net-(S1-Pad1)*%
X192588600Y-111299100D03*
%TO.P,S1,2*%
%TO.N,Net-(C3-Pad1)*%
X192588600Y-108759100D03*
%TO.P,S1,3*%
%TO.N,Net-(S1-Pad3)*%
X192588600Y-106219100D03*
%TD*%
D21*
%TO.P,U2,1*%
%TO.N,Net-(C1-Pad2)*%
X185813700Y-79298800D03*
D18*
%TO.P,U2,5*%
%TO.N,Net-(C2-Pad1)*%
X193433700Y-71678800D03*
%TO.P,U2,2*%
%TO.N,Net-(C1-Pad1)*%
X185813700Y-76758800D03*
%TO.P,U2,6*%
X193433700Y-74218800D03*
%TO.P,U2,3*%
%TO.N,Net-(U2-Pad3)*%
X185813700Y-74218800D03*
%TO.P,U2,7*%
%TO.N,Net-(P1-Pad1)*%
X193433700Y-76758800D03*
%TO.P,U2,4*%
%TO.N,Net-(C3-Pad1)*%
X185813700Y-71678800D03*
%TO.P,U2,8*%
X193433700Y-79298800D03*
%TD*%
D21*
%TO.P,U3,1*%
%TO.N,Net-(D6-Pad2)*%
X128580600Y-69921100D03*
D18*
%TO.P,U3,9*%
%TO.N,Net-(U3-Pad9)*%
X120960600Y-87701100D03*
%TO.P,U3,2*%
%TO.N,Net-(D2-Pad2)*%
X128580600Y-72461100D03*
%TO.P,U3,10*%
%TO.N,Net-(D5-Pad2)*%
X120960600Y-85161100D03*
%TO.P,U3,3*%
%TO.N,Net-(D1-Pad2)*%
X128580600Y-75001100D03*
%TO.P,U3,11*%
%TO.N,Net-(U3-Pad11)*%
X120960600Y-82621100D03*
%TO.P,U3,4*%
%TO.N,Net-(D3-Pad2)*%
X128580600Y-77541100D03*
%TO.P,U3,12*%
%TO.N,Net-(U3-Pad12)*%
X120960600Y-80081100D03*
%TO.P,U3,5*%
%TO.N,Net-(D7-Pad2)*%
X128580600Y-80081100D03*
%TO.P,U3,13*%
%TO.N,Net-(C1-Pad2)*%
X120960600Y-77541100D03*
%TO.P,U3,6*%
%TO.N,Net-(U3-Pad6)*%
X128580600Y-82621100D03*
%TO.P,U3,14*%
%TO.N,Net-(U2-Pad3)*%
X120960600Y-75001100D03*
%TO.P,U3,7*%
%TO.N,Net-(D4-Pad2)*%
X128580600Y-85161100D03*
%TO.P,U3,15*%
%TO.N,Net-(C1-Pad2)*%
X120960600Y-72461100D03*
%TO.P,U3,8*%
X128580600Y-87701100D03*
%TO.P,U3,16*%
%TO.N,Net-(C3-Pad1)*%
X120960600Y-69921100D03*
%TD*%
D22*
%TO.N,Net-(D1-Pad2)*%
X142938600Y-92579100D03*
%TO.N,Net-(D3-Pad2)*%
X134508600Y-92129100D03*
%TO.N,Net-(D6-Pad2)*%
X127608600Y-110649100D03*
%TD*%
D23*
%TO.N,Net-(C1-Pad1)*%
X190665100Y-74218800D02*
X193433700Y-74218800D01*
X188125100Y-76758800D02*
X190665100Y-74218800D01*
X180555900Y-86207600D02*
X180555900Y-79362300D01*
X183159400Y-76758800D02*
X187096400Y-76758800D01*
X180555900Y-79362300D02*
X183159400Y-76758800D01*
X187096400Y-76758800D02*
X188125100Y-76758800D01*
X185813700Y-76758800D02*
X187096400Y-76758800D01*
X192417700Y-85864700D02*
X190246000Y-83693000D01*
X190246000Y-78879700D02*
X188125100Y-76758800D01*
X190246000Y-83693000D02*
X190246000Y-78879700D01*
%TO.N,Net-(C1-Pad2)*%
X190080600Y-87510600D02*
X190080600Y-85193100D01*
X157409600Y-75826600D02*
X161219600Y-75826600D01*
X157409600Y-75826600D02*
X154848600Y-78387600D01*
X154848600Y-82139100D02*
X153508600Y-83479100D01*
X154848600Y-78387600D02*
X154848600Y-82139100D01*
X120960600Y-72461100D02*
X119692600Y-73729100D01*
X119692600Y-73729100D02*
X119638600Y-73729100D01*
X119638600Y-73729100D02*
X118258600Y-75109100D01*
X118258600Y-75109100D02*
X118258600Y-76849100D01*
X118950600Y-77541100D02*
X120960600Y-77541100D01*
X118258600Y-76849100D02*
X118950600Y-77541100D01*
X187432100Y-90159100D02*
X190080600Y-87510600D01*
X182065400Y-90159100D02*
X182373800Y-90159100D01*
X182048600Y-90159100D02*
X182373800Y-90159100D01*
X182373800Y-90159100D02*
X182831000Y-90159100D01*
X162953700Y-101790500D02*
X174585100Y-90159100D01*
X183564000Y-90159100D02*
X187432100Y-90159100D01*
X182831000Y-90159100D02*
X183564000Y-90159100D01*
X148632100Y-90759100D02*
X151215100Y-88176100D01*
X131278600Y-90759100D02*
X148632100Y-90759100D01*
X128580600Y-88061100D02*
X131278600Y-90759100D01*
X128580600Y-87701100D02*
X128580600Y-88061100D01*
X153508600Y-85882600D02*
X153508600Y-85543500D01*
X151215100Y-88176100D02*
X153508600Y-85882600D01*
X153508600Y-85543500D02*
X153508600Y-85855100D01*
X153508600Y-83479100D02*
X153508600Y-85543500D01*
X151215100Y-90051900D02*
X151215100Y-88176100D01*
X162953700Y-101790500D02*
X151215100Y-90051900D01*
X178555900Y-89897200D02*
X178817800Y-90159100D01*
X178555900Y-86207600D02*
X178555900Y-89897200D01*
X178817800Y-90159100D02*
X183564000Y-90159100D01*
X174585100Y-90159100D02*
X178817800Y-90159100D01*
X185813700Y-80926200D02*
X186631950Y-81744450D01*
X185813700Y-79298800D02*
X185813700Y-80926200D01*
X186631950Y-81744450D02*
X186365600Y-81478100D01*
X190080600Y-85193100D02*
X186631950Y-81744450D01*
%TO.N,Net-(C3-Pad1)*%
X120960600Y-65017100D02*
X120960600Y-69921100D01*
X124048600Y-61929100D02*
X120960600Y-65017100D01*
X132054700Y-61929100D02*
X133270000Y-63144400D01*
X132045800Y-61929100D02*
X132054700Y-61929100D01*
X132045800Y-61929100D02*
X124048600Y-61929100D01*
X175913900Y-63144400D02*
X176094950Y-63325450D01*
X133270000Y-63144400D02*
X175913900Y-63144400D01*
X186486800Y-71005700D02*
X185813700Y-71678800D01*
X186486800Y-66776600D02*
X186486800Y-71005700D01*
X184448300Y-71678800D02*
X181746450Y-68976950D01*
X185813700Y-71678800D02*
X184448300Y-71678800D01*
X181746450Y-68976950D02*
X176094950Y-63325450D01*
X181928600Y-69159100D02*
X181746450Y-68976950D01*
%TO.N,Net-(D1-Pad2)*%
X159398600Y-122139100D02*
X159398600Y-117539100D01*
X142938600Y-101079100D02*
X142938600Y-92579100D01*
X159398600Y-117539100D02*
X142938600Y-101079100D01*
%TO.N,Net-(D2-Pad1)*%
X146108600Y-124359100D02*
X149278600Y-121189100D01*
X142638600Y-120889100D02*
X146108600Y-124359100D01*
X142638600Y-118889100D02*
X142638600Y-120889100D01*
X140608600Y-118889100D02*
X136948600Y-115229100D01*
X142638600Y-118889100D02*
X140608600Y-118889100D01*
X136948600Y-115229100D02*
X134028600Y-115229100D01*
X132258600Y-113459100D02*
X132258600Y-110399100D01*
X134028600Y-115229100D02*
X132258600Y-113459100D01*
X132258600Y-110399100D02*
X130538600Y-110399100D01*
X128198600Y-108059100D02*
X128198600Y-104489100D01*
X130538600Y-110399100D02*
X128198600Y-108059100D01*
X128198600Y-104489100D02*
X125978600Y-104489100D01*
X124808600Y-103319100D02*
X124808600Y-98669100D01*
X125978600Y-104489100D02*
X124808600Y-103319100D01*
X188758600Y-98623100D02*
X188758600Y-98679100D01*
X185476600Y-101961100D02*
X185476600Y-104592100D01*
X188758600Y-98679100D02*
X185476600Y-101961100D01*
X185476600Y-104592100D02*
X183705600Y-104592100D01*
X181448600Y-106849100D02*
X181448600Y-110399100D01*
X183705600Y-104592100D02*
X181448600Y-106849100D01*
X181448600Y-110399100D02*
X178468600Y-110399100D01*
X176668600Y-112199100D02*
X176668600Y-115279100D01*
X178468600Y-110399100D02*
X176668600Y-112199100D01*
X176668600Y-115279100D02*
X173668600Y-115279100D01*
X170938600Y-118009100D02*
X170938600Y-118929100D01*
X173668600Y-115279100D02*
X170938600Y-118009100D01*
X170938600Y-118929100D02*
X167238600Y-118929100D01*
X167238600Y-118929100D02*
X167198600Y-118889100D01*
X166648600Y-118889100D02*
X164348600Y-121189100D01*
X167198600Y-118889100D02*
X166648600Y-118889100D01*
%TO.N,Net-(D3-Pad2)*%
X145178600Y-118889100D02*
X145178600Y-109579100D01*
X145178600Y-109579100D02*
X134658600Y-99059100D01*
X134658600Y-92279100D02*
X134508600Y-92129100D01*
X134658600Y-99059100D02*
X134658600Y-92279100D01*
%TO.N,Net-(D4-Pad2)*%
X128580600Y-85161100D02*
X127236600Y-85161100D01*
X127236600Y-85161100D02*
X127236600Y-92007100D01*
X127236600Y-92007100D02*
X133238600Y-98009100D01*
X133238600Y-98009100D02*
X133238600Y-102699100D01*
X139488600Y-108949100D02*
X139488600Y-115229100D01*
X133238600Y-102699100D02*
X139488600Y-108949100D01*
%TO.N,Net-(D6-Pad2)*%
X128580600Y-69921100D02*
X128126600Y-69921100D01*
X128126600Y-70487510D02*
X125438600Y-73175510D01*
X128126600Y-69921100D02*
X128126600Y-70487510D01*
X125438600Y-73175510D02*
X125438600Y-82239100D01*
X123583599Y-106624099D02*
X127608600Y-110649100D01*
X123583599Y-84094101D02*
X123583599Y-106624099D01*
X125438600Y-82239100D02*
X123583599Y-84094101D01*
%TO.N,Net-(D7-Pad2)*%
X128580600Y-80081100D02*
X125418600Y-83243100D01*
X125418600Y-83243100D02*
X125418600Y-94529100D01*
X127348600Y-96459100D02*
X127348600Y-98669100D01*
X125418600Y-94529100D02*
X127348600Y-96459100D01*
%TO.N,Net-(D8-Pad1)*%
X174681600Y-74874100D02*
X169013600Y-74874100D01*
X169013600Y-74874100D02*
X168148600Y-74009100D01*
X155358600Y-74009100D02*
X153508600Y-75859100D01*
X168148600Y-74009100D02*
X155358600Y-74009100D01*
X153508600Y-75859100D02*
X151888600Y-77479100D01*
X147488600Y-77479100D02*
X145148600Y-75139100D01*
X151888600Y-77479100D02*
X148428600Y-77479100D01*
X148428600Y-77479100D02*
X147488600Y-77479100D01*
X148428600Y-77479100D02*
X148038600Y-77479100D01*
%TO.N,Net-(U2-Pad3)*%
X177221600Y-74874100D02*
X174816600Y-72469100D01*
X151428600Y-72469100D02*
X149158600Y-72469100D01*
X174816600Y-72469100D02*
X151428600Y-72469100D01*
X151428600Y-72469100D02*
X150678600Y-72469100D01*
X147688600Y-73939100D02*
X147688600Y-75139100D01*
X149158600Y-72469100D02*
X147688600Y-73939100D01*
X144238600Y-70079100D02*
X140958600Y-66799100D01*
X140958600Y-66799100D02*
X128168600Y-66799100D01*
X128168600Y-66799100D02*
X124338600Y-70629100D01*
X124338600Y-70629100D02*
X124338600Y-73639100D01*
X122976600Y-75001100D02*
X120960600Y-75001100D01*
X124338600Y-73639100D02*
X122976600Y-75001100D01*
X147688600Y-75139100D02*
X147688600Y-72264300D01*
X145503400Y-70079100D02*
X144238600Y-70079100D01*
X147688600Y-72264300D02*
X145503400Y-70079100D01*
X180046600Y-70079100D02*
X179488600Y-70079100D01*
X185813700Y-74218800D02*
X181660800Y-70065900D01*
X178600100Y-70065900D02*
X178586900Y-70079100D01*
X181660800Y-70065900D02*
X178600100Y-70065900D01*
X178586900Y-70079100D02*
X145503400Y-70079100D01*
X179488600Y-70079100D02*
X178586900Y-70079100D01*
%TO.N,Net-(P1-Pad1)*%
X196537600Y-71584100D02*
X196385600Y-71432100D01*
X196385600Y-71432100D02*
X196508600Y-71555100D01*
X196537600Y-84904600D02*
X197497700Y-85864700D01*
X196537600Y-78938100D02*
X196537600Y-84904600D01*
X197497700Y-88404700D02*
X194957700Y-90944700D01*
X197497700Y-85864700D02*
X197497700Y-88404700D01*
X186486800Y-61533300D02*
X187038350Y-62084850D01*
X186486800Y-59156600D02*
X186486800Y-61533300D01*
X187038350Y-62084850D02*
X196385600Y-71432100D01*
X186492600Y-61539100D02*
X187038350Y-62084850D01*
X196456300Y-76758800D02*
X196537600Y-76840100D01*
X193433700Y-76758800D02*
X196456300Y-76758800D01*
X196537600Y-76840100D02*
X196537600Y-71584100D01*
X196537600Y-78938100D02*
X196537600Y-76840100D01*
%TD*%
M02*
