M48
; DRILL file {KiCad (5.1.9)-1} date 05/28/21 20:42:44
; FORMAT={-:-/ absolute / metric / decimal}
; #@! TF.CreationDate,2021-05-28T20:42:44+02:00
; #@! TF.GenerationSoftware,Kicad,Pcbnew,(5.1.9)-1
; #@! TF.FileFunction,Plated,1,2,PTH
FMAT,2
METRIC
T1C0.400
T2C0.600
T3C0.762
T4C0.800
T5C0.850
T6C0.900
T7C1.000
%
G90
G05
T1
X127.609Y-110.649
X134.509Y-92.129
X142.939Y-92.579
T2
X178.556Y-86.208
X180.556Y-86.208
T3
X192.418Y-85.865
X194.958Y-90.945
X197.498Y-85.865
T4
X120.961Y-69.921
X120.961Y-72.461
X120.961Y-75.001
X120.961Y-77.541
X120.961Y-80.081
X120.961Y-82.621
X120.961Y-85.161
X120.961Y-87.701
X128.581Y-69.921
X128.581Y-72.461
X128.581Y-75.001
X128.581Y-77.541
X128.581Y-80.081
X128.581Y-82.621
X128.581Y-85.161
X128.581Y-87.701
X153.509Y-75.859
X153.509Y-83.479
X161.22Y-75.827
X161.22Y-83.447
X185.814Y-71.679
X185.814Y-74.219
X185.814Y-76.759
X185.814Y-79.299
X186.487Y-59.157
X186.487Y-66.777
X193.434Y-71.679
X193.434Y-74.219
X193.434Y-76.759
X193.434Y-79.299
T5
X151.501Y-99.31
X153.611Y-108.42
X171.051Y-108.46
X173.231Y-99.35
T6
X124.809Y-98.669
X127.349Y-98.669
X128.199Y-104.489
X130.739Y-104.489
X132.259Y-110.399
X134.799Y-110.399
X136.949Y-115.229
X139.489Y-115.229
X142.639Y-118.889
X145.149Y-75.139
X145.179Y-118.889
X147.689Y-75.139
X149.279Y-121.189
X151.819Y-121.189
X156.859Y-122.139
X159.399Y-122.139
X164.349Y-121.189
X166.889Y-121.189
X170.939Y-118.929
X173.479Y-118.929
X174.682Y-74.874
X176.669Y-115.279
X177.222Y-74.874
X179.209Y-115.279
X181.449Y-110.399
X183.989Y-110.399
X185.477Y-104.592
X188.017Y-104.592
X188.759Y-98.623
X191.299Y-98.623
T7
X192.589Y-106.219
X192.589Y-108.759
X192.589Y-111.299
T0
M30
