%TF.GenerationSoftware,KiCad,Pcbnew,(5.1.9)-1*%
%TF.CreationDate,2021-04-10T08:00:10+02:00*%
%TF.ProjectId,Fledermaus3,466c6564-6572-46d6-9175-73332e6b6963,rev?*%
%TF.SameCoordinates,Original*%
%TF.FileFunction,Legend,Bot*%
%TF.FilePolarity,Positive*%
%FSLAX46Y46*%
G04 Gerber Fmt 4.6, Leading zero omitted, Abs format (unit mm)*
G04 Created by KiCad (PCBNEW (5.1.9)-1) date 2021-04-10 08:00:10*
%MOMM*%
%LPD*%
G01*
G04 APERTURE LIST*
%ADD10C,0.300000*%
%ADD11C,0.250000*%
%ADD12C,0.500000*%
%ADD13C,0.120000*%
%ADD14C,0.010000*%
%ADD15C,0.050000*%
%ADD16C,0.150000*%
G04 APERTURE END LIST*
D10*
X9750000Y-21678571D02*
X9750000Y-20178571D01*
X8892857Y-21678571D02*
X9535714Y-20821428D01*
X8892857Y-20178571D02*
X9750000Y-21035714D01*
X8250000Y-21678571D02*
X8250000Y-20178571D01*
X8250000Y-20892857D02*
X7392857Y-20892857D01*
X7392857Y-21678571D02*
X7392857Y-20178571D01*
X6178571Y-20892857D02*
X6678571Y-20892857D01*
X6678571Y-21678571D02*
X6678571Y-20178571D01*
X5964285Y-20178571D01*
X4321428Y-20321428D02*
X4250000Y-20250000D01*
X4107142Y-20178571D01*
X3750000Y-20178571D01*
X3607142Y-20250000D01*
X3535714Y-20321428D01*
X3464285Y-20464285D01*
X3464285Y-20607142D01*
X3535714Y-20821428D01*
X4392857Y-21678571D01*
X3464285Y-21678571D01*
X2535714Y-20178571D02*
X2392857Y-20178571D01*
X2250000Y-20250000D01*
X2178571Y-20321428D01*
X2107142Y-20464285D01*
X2035714Y-20750000D01*
X2035714Y-21107142D01*
X2107142Y-21392857D01*
X2178571Y-21535714D01*
X2250000Y-21607142D01*
X2392857Y-21678571D01*
X2535714Y-21678571D01*
X2678571Y-21607142D01*
X2750000Y-21535714D01*
X2821428Y-21392857D01*
X2892857Y-21107142D01*
X2892857Y-20750000D01*
X2821428Y-20464285D01*
X2750000Y-20321428D01*
X2678571Y-20250000D01*
X2535714Y-20178571D01*
X1464285Y-20321428D02*
X1392857Y-20250000D01*
X1250000Y-20178571D01*
X892857Y-20178571D01*
X750000Y-20250000D01*
X678571Y-20321428D01*
X607142Y-20464285D01*
X607142Y-20607142D01*
X678571Y-20821428D01*
X1535714Y-21678571D01*
X607142Y-21678571D01*
X-321428Y-20178571D02*
X-464285Y-20178571D01*
X-607142Y-20250000D01*
X-678571Y-20321428D01*
X-749999Y-20464285D01*
X-821428Y-20750000D01*
X-821428Y-21107142D01*
X-749999Y-21392857D01*
X-678571Y-21535714D01*
X-607142Y-21607142D01*
X-464285Y-21678571D01*
X-321428Y-21678571D01*
X-178571Y-21607142D01*
X-107142Y-21535714D01*
X-35714Y-21392857D01*
X35714Y-21107142D01*
X35714Y-20750000D01*
X-35714Y-20464285D01*
X-107142Y-20321428D01*
X-178571Y-20250000D01*
X-321428Y-20178571D01*
D11*
X-4841904Y12533333D02*
X-5318095Y12533333D01*
X-4746666Y12247619D02*
X-5080000Y13247619D01*
X-5413333Y12247619D01*
X2778095Y11263333D02*
X2301904Y11263333D01*
X2873333Y10977619D02*
X2540000Y11977619D01*
X2206666Y10977619D01*
X-4818095Y2087619D02*
X-4818095Y3087619D01*
X-5389523Y2087619D02*
X-4960952Y2659047D01*
X-5389523Y3087619D02*
X-4818095Y2516190D01*
X2801904Y817619D02*
X2801904Y1817619D01*
X2230476Y817619D02*
X2659047Y1389047D01*
X2230476Y1817619D02*
X2801904Y1246190D01*
D12*
X-8128095Y-21732857D02*
X-9651904Y-21732857D01*
X-8890000Y-22494761D02*
X-8890000Y-20970952D01*
D13*
%TO.C,G\u002A\u002A\u002A*%
X-2883731Y-33094594D02*
G75*
G03*
X-2899999Y-34549999I233731J-730406D01*
G01*
X2475000Y-34650000D02*
G75*
G03*
X4175000Y-34650000I850000J0D01*
G01*
X-8876256Y-34266064D02*
G75*
G03*
X-8699999Y-35574999I426256J-608936D01*
G01*
X-2775000Y-33550001D02*
G75*
G03*
X-2774999Y-34099999I125000J-274999D01*
G01*
X2975000Y-34650000D02*
G75*
G03*
X3675000Y-34650000I350000J0D01*
G01*
X3675000Y-33950000D02*
G75*
G03*
X2975000Y-33950000I-350000J0D01*
G01*
X-8450001Y-34520050D02*
G75*
G03*
X-8499999Y-35024999I1J-254950D01*
G01*
X-8289366Y-33532464D02*
G75*
G03*
X-8350000Y-34025000I-60634J-242536D01*
G01*
X698744Y-34241064D02*
G75*
G03*
X875001Y-35549999I426256J-608936D01*
G01*
X-8450000Y-33138605D02*
G75*
G03*
X-8899999Y-34224999I0J-636395D01*
G01*
X1124999Y-34495050D02*
G75*
G03*
X1075001Y-34999999I1J-254950D01*
G01*
X4175000Y-33950000D02*
G75*
G03*
X2475000Y-33950000I-850000J0D01*
G01*
X1125000Y-33113605D02*
G75*
G03*
X675001Y-34199999I0J-636395D01*
G01*
X1285634Y-33507464D02*
G75*
G03*
X1225000Y-34000000I-60634J-242536D01*
G01*
X-5975000Y-34975000D02*
X-6575000Y-34975000D01*
X-4300000Y-35100000D02*
X-5050000Y-35100000D01*
X-5050000Y-35550000D02*
X-3800000Y-35550000D01*
D14*
G36*
X12544723Y-88545226D02*
G01*
X12608542Y-88609045D01*
X12672361Y-88545226D01*
X12608542Y-88481407D01*
X12544723Y-88545226D01*
G37*
X12544723Y-88545226D02*
X12608542Y-88609045D01*
X12672361Y-88545226D01*
X12608542Y-88481407D01*
X12544723Y-88545226D01*
D13*
X-3825000Y-33100000D02*
X-4275000Y-33100000D01*
X4175000Y-34650000D02*
X4175000Y-33950000D01*
X2475000Y-33950000D02*
X2475000Y-34650000D01*
X-25000Y-33100000D02*
X25000Y-35550000D01*
X25000Y-35550000D02*
X-75000Y-35550000D01*
X-7225000Y-35575000D02*
X-6450000Y-33125000D01*
X-475000Y-34050000D02*
X-475000Y-33600000D01*
X1525000Y-33550000D02*
X1525000Y-34000000D01*
X-1125000Y-34050000D02*
X-475000Y-34050000D01*
X-6450000Y-33125000D02*
X-6125000Y-33125000D01*
X-6825000Y-35575000D02*
X-7225000Y-35575000D01*
X-1125000Y-34500000D02*
X-1125000Y-34050000D01*
X-3800000Y-35550000D02*
X-3825000Y-33100000D01*
X-4275000Y-33100000D02*
X-4300000Y-35100000D01*
D15*
X1475000Y-31450000D02*
X2950000Y-33175000D01*
D13*
X-5725000Y-35575000D02*
X-5225000Y-35575000D01*
X-1325000Y-33600000D02*
X-1325000Y-33100000D01*
X-475000Y-34500000D02*
X-1125000Y-34500000D01*
X-6125000Y-33125000D02*
X-5225000Y-35575000D01*
X-1325000Y-33100000D02*
X-25000Y-33100000D01*
X-6000000Y-34575000D02*
X-6500000Y-34575000D01*
X1525000Y-34000000D02*
X1225000Y-34000000D01*
X-475000Y-33600000D02*
X-1325000Y-33600000D01*
X-5725000Y-35575000D02*
X-5975000Y-34975000D01*
X-6575000Y-34975000D02*
X-6825000Y-35575000D01*
X-5050000Y-35100000D02*
X-5050000Y-35550000D01*
X-2375000Y-34600000D02*
X-3125000Y-35550000D01*
X-3525000Y-35550000D02*
X-3625000Y-35550000D01*
X-2225000Y-35550000D02*
X-2225000Y-34600000D01*
D15*
X-7825000Y-30825000D02*
X-7475000Y-29650000D01*
X2200000Y-29875000D02*
X1475000Y-31450000D01*
X-100000Y-28875000D02*
X-850000Y-30300000D01*
D13*
X-7550000Y-33125000D02*
X-7500000Y-35575000D01*
D15*
X-4550000Y-31850000D02*
X-5550000Y-31175000D01*
X-4350000Y-29075000D02*
X-3225000Y-30300000D01*
X-3225000Y-30300000D02*
X-3800000Y-31800000D01*
D13*
X3675000Y-33950000D02*
X3675000Y-34650000D01*
X2075000Y-35550000D02*
X875000Y-35550000D01*
D15*
X5800000Y-34775000D02*
X4975000Y-34425000D01*
D13*
X-7500000Y-35575000D02*
X-8700000Y-35575000D01*
X-8050000Y-34525000D02*
X-8050000Y-35025000D01*
X-8050001Y-34520050D02*
X-8450001Y-34520050D01*
X-2883731Y-33094594D02*
X-1775000Y-33100000D01*
X-75000Y-35550000D02*
X-1325000Y-35550000D01*
X-6500000Y-34575000D02*
X-6275000Y-33825000D01*
X-6275000Y-33825000D02*
X-6000000Y-34575000D01*
D15*
X1475000Y-31450000D02*
X7125000Y-34300000D01*
D13*
X-8450000Y-33138605D02*
X-7550000Y-33125000D01*
X1524999Y-34495050D02*
X1124999Y-34495050D01*
X-8050000Y-33525000D02*
X-8300000Y-33525000D01*
D15*
X-8775000Y-31700000D02*
X-9775000Y-31550000D01*
X4175000Y-34550000D02*
X4725000Y-34825000D01*
D13*
X1125000Y-33113605D02*
X2025000Y-33100000D01*
D15*
X3625000Y-33800000D02*
X3300000Y-34200000D01*
X3225000Y-30125000D02*
X1475000Y-31450000D01*
X-1625000Y-32750000D02*
X-650000Y-33100000D01*
D13*
X2975000Y-33950000D02*
X2975000Y-34600000D01*
X-1325000Y-35050000D02*
X-475000Y-35050000D01*
X-475000Y-35050000D02*
X-475000Y-34500000D01*
X-2275000Y-34100000D02*
X-2775000Y-34100000D01*
X1525000Y-33500000D02*
X1275000Y-33500000D01*
X-8050000Y-33575000D02*
X-8050000Y-34025000D01*
D15*
X-6250000Y-31750000D02*
X-4575000Y-31850000D01*
X4725000Y-34825000D02*
X4150000Y-34025000D01*
X-5675000Y-29700000D02*
X-7825000Y-30825000D01*
X2775000Y-33275000D02*
X-4325000Y-28675000D01*
X3300000Y-34200000D02*
X3675000Y-34375000D01*
X-7475000Y-29650000D02*
X-5675000Y-29700000D01*
D13*
X-8050000Y-34025000D02*
X-8350000Y-34025000D01*
X-2275000Y-33550000D02*
X-2275000Y-34100000D01*
X-3625000Y-35550000D02*
X-2925000Y-34600000D01*
X-8050000Y-35025000D02*
X-8500000Y-35025000D01*
D15*
X-4325000Y-28675000D02*
X-4400000Y-31400000D01*
X-850000Y-30300000D02*
X1475000Y-31450000D01*
X-5550000Y-31175000D02*
X-6250000Y-31750000D01*
X-850000Y-30300000D02*
X-4325000Y-28675000D01*
D13*
X-1775000Y-35550000D02*
X-2225000Y-35550000D01*
X-2225000Y-34600000D02*
X-2375000Y-34600000D01*
X-1325000Y-35550000D02*
X-1325000Y-35050000D01*
X-3125000Y-35550000D02*
X-3525000Y-35550000D01*
D15*
X-9775000Y-31550000D02*
X-9200000Y-32025000D01*
D13*
X1525000Y-34500000D02*
X1525000Y-35000000D01*
D15*
X-9200000Y-32025000D02*
X-8775000Y-31700000D01*
X3225000Y-30125000D02*
X2200000Y-29875000D01*
D13*
X2025000Y-33100000D02*
X2075000Y-35550000D01*
X1525000Y-35000000D02*
X1075000Y-35000000D01*
X-1775000Y-33100000D02*
X-1775000Y-35550000D01*
D15*
X-450000Y-33075000D02*
X-1225000Y-32475000D01*
X-1225000Y-32475000D02*
X-1625000Y-32750000D01*
D13*
X-2725000Y-33550000D02*
X-2275000Y-33550000D01*
D15*
X7125000Y-34300000D02*
X4225000Y-33825000D01*
X7125000Y-34300000D02*
X3225000Y-30125000D01*
X-4400000Y-31400000D02*
X-2775000Y-32525000D01*
X-2775000Y-32525000D02*
X-1100000Y-32300000D01*
X-1100000Y-32300000D02*
X725000Y-33200000D01*
X4450000Y-34450000D02*
X7125000Y-34300000D01*
X4225000Y-33825000D02*
X4450000Y-34450000D01*
X7125000Y-34300000D02*
X5800000Y-34775000D01*
X2100000Y-30050000D02*
X525000Y-30950000D01*
X-100000Y-28875000D02*
X2100000Y-30050000D01*
D13*
%TO.C,S1*%
X-11963400Y-17627600D02*
X-11963400Y-7670800D01*
X-11963400Y-7670800D02*
X-15900400Y-7670800D01*
X-15900400Y-7670800D02*
X-15900400Y-17627600D01*
X-15900400Y-17627600D02*
X-11963400Y-17653000D01*
%TO.C,U1*%
X15902718Y-15370001D02*
G75*
G03*
X15902718Y-15370001I-11500000J0D01*
G01*
X-6553200Y-19002201D02*
X-6502400Y-11636201D01*
X-6502400Y-11636201D02*
X-9601200Y-11636201D01*
X-9601200Y-11636201D02*
X-9652000Y-18951401D01*
X-9652000Y-18951401D02*
X-6654800Y-18900601D01*
%TO.C,S1*%
D16*
X-13595238Y-5238095D02*
X-13547619Y-5380952D01*
X-13547619Y-5619047D01*
X-13595238Y-5714285D01*
X-13642857Y-5761904D01*
X-13738095Y-5809523D01*
X-13833333Y-5809523D01*
X-13928571Y-5761904D01*
X-13976190Y-5714285D01*
X-14023809Y-5619047D01*
X-14071428Y-5428571D01*
X-14119047Y-5333333D01*
X-14166666Y-5285714D01*
X-14261904Y-5238095D01*
X-14357142Y-5238095D01*
X-14452380Y-5285714D01*
X-14500000Y-5333333D01*
X-14547619Y-5428571D01*
X-14547619Y-5666666D01*
X-14500000Y-5809523D01*
X-13547619Y-6761904D02*
X-13547619Y-6190476D01*
X-13547619Y-6476190D02*
X-14547619Y-6476190D01*
X-14404761Y-6380952D01*
X-14309523Y-6285714D01*
X-14261904Y-6190476D01*
%TO.C,U1*%
X4571904Y-14692380D02*
X4571904Y-15501904D01*
X4524285Y-15597142D01*
X4476666Y-15644761D01*
X4381428Y-15692380D01*
X4190952Y-15692380D01*
X4095714Y-15644761D01*
X4048095Y-15597142D01*
X4000476Y-15501904D01*
X4000476Y-14692380D01*
X3000476Y-15692380D02*
X3571904Y-15692380D01*
X3286190Y-15692380D02*
X3286190Y-14692380D01*
X3381428Y-14835238D01*
X3476666Y-14930476D01*
X3571904Y-14978095D01*
%TD*%
M02*
