%TF.GenerationSoftware,KiCad,Pcbnew,(5.1.9)-1*%
%TF.CreationDate,2021-04-10T08:00:10+02:00*%
%TF.ProjectId,Fledermaus3,466c6564-6572-46d6-9175-73332e6b6963,rev?*%
%TF.SameCoordinates,Original*%
%TF.FileFunction,Copper,L2,Bot*%
%TF.FilePolarity,Positive*%
%FSLAX46Y46*%
G04 Gerber Fmt 4.6, Leading zero omitted, Abs format (unit mm)*
G04 Created by KiCad (PCBNEW (5.1.9)-1) date 2021-04-10 08:00:10*
%MOMM*%
%LPD*%
G01*
G04 APERTURE LIST*
%ADD10C,0.150000*%
%TA.AperFunction,ComponentPad*%
%ADD11R,1.800000X1.800000*%
%TD*%
%TA.AperFunction,ComponentPad*%
%ADD12C,1.800000*%
%TD*%
%TA.AperFunction,ComponentPad*%
%ADD13C,2.000000*%
%TD*%
%TA.AperFunction,ComponentPad*%
%ADD14R,2.000000X2.000000*%
%TD*%
%TA.AperFunction,Conductor*%
%ADD15C,0.250000*%
%TD*%
G04 APERTURE END LIST*
%TO.C,D1*%
D10*
X-8587619Y8358095D02*
X-9587619Y8358095D01*
X-9587619Y8120000D01*
X-9540000Y7977142D01*
X-9444761Y7881904D01*
X-9349523Y7834285D01*
X-9159047Y7786666D01*
X-9016190Y7786666D01*
X-8825714Y7834285D01*
X-8730476Y7881904D01*
X-8635238Y7977142D01*
X-8587619Y8120000D01*
X-8587619Y8358095D01*
X-8587619Y6834285D02*
X-8587619Y7405714D01*
X-8587619Y7120000D02*
X-9587619Y7120000D01*
X-9444761Y7215238D01*
X-9349523Y7310476D01*
X-9301904Y7405714D01*
%TO.C,D2*%
X-967619Y7088095D02*
X-1967619Y7088095D01*
X-1967619Y6850000D01*
X-1920000Y6707142D01*
X-1824761Y6611904D01*
X-1729523Y6564285D01*
X-1539047Y6516666D01*
X-1396190Y6516666D01*
X-1205714Y6564285D01*
X-1110476Y6611904D01*
X-1015238Y6707142D01*
X-967619Y6850000D01*
X-967619Y7088095D01*
X-1872380Y6135714D02*
X-1920000Y6088095D01*
X-1967619Y5992857D01*
X-1967619Y5754761D01*
X-1920000Y5659523D01*
X-1872380Y5611904D01*
X-1777142Y5564285D01*
X-1681904Y5564285D01*
X-1539047Y5611904D01*
X-967619Y6183333D01*
X-967619Y5564285D01*
%TD*%
D11*
%TO.P,D1,1*%
%TO.N,Net-(D1-Pad1)*%
X-5080000Y6350000D03*
D12*
%TO.P,D1,2*%
%TO.N,Net-(D1-Pad2)*%
X-5080000Y8890000D03*
%TD*%
%TO.P,D2,2*%
%TO.N,Net-(D1-Pad2)*%
X2540000Y7620000D03*
D11*
%TO.P,D2,1*%
%TO.N,Net-(D1-Pad1)*%
X2540000Y5080000D03*
%TD*%
D13*
%TO.P,S1,1*%
%TO.N,Net-(S1-Pad1)*%
X-13970000Y-15240000D03*
%TO.P,S1,2*%
%TO.N,Net-(D1-Pad2)*%
X-13970000Y-12700000D03*
%TO.P,S1,3*%
%TO.N,Net-(S1-Pad3)*%
X-13970000Y-10160000D03*
%TD*%
%TO.P,U1,1*%
%TO.N,Net-(S1-Pad1)*%
X-8890000Y-15370001D03*
D14*
%TO.P,U1,2*%
%TO.N,Net-(D1-Pad1)*%
X11561600Y-15370001D03*
%TD*%
D15*
%TO.N,Net-(D1-Pad1)*%
X11561600Y-3941600D02*
X2540000Y5080000D01*
X11561600Y-15370001D02*
X11561600Y-3941600D01*
X-3810000Y5080000D02*
X2540000Y5080000D01*
X-5080000Y6350000D02*
X-3810000Y5080000D01*
%TO.N,Net-(D1-Pad2)*%
X2540000Y7620000D02*
X2540000Y8890000D01*
X2540000Y8890000D02*
X-5080000Y8890000D01*
X-6305001Y-5035001D02*
X-13970000Y-12700000D01*
X-5080000Y8890000D02*
X-6305001Y7664999D01*
X-6305001Y7664999D02*
X-6305001Y-5035001D01*
%TO.N,Net-(S1-Pad1)*%
X-9020001Y-15240000D02*
X-8890000Y-15370001D01*
X-13970000Y-15240000D02*
X-9020001Y-15240000D01*
%TD*%
M02*
